M48
; DRILL file {KiCad (5.1.9)-1} date 11/25/22 11:31:51
; FORMAT={-:-/ absolute / inch / decimal}
; #@! TF.CreationDate,2022-11-25T11:31:51-06:00
; #@! TF.GenerationSoftware,Kicad,Pcbnew,(5.1.9)-1
; #@! TF.FileFunction,Plated,1,2,PTH
FMAT,2
INCH
T1C0.0157
T2C0.0315
%
G90
G05
T1
X5.3025Y-3.575
X5.3025Y-3.625
X5.3025Y-3.675
X5.3025Y-3.725
X5.3025Y-3.775
X5.3025Y-3.825
X5.3025Y-3.875
X5.3025Y-3.925
X5.3875Y-3.8425
X5.3975Y-3.655
X5.3975Y-3.705
X5.3975Y-3.755
X5.4Y-3.525
X5.4Y-3.975
X5.45Y-3.525
X5.45Y-3.975
X5.5Y-3.975
X5.51Y-3.8475
X5.51Y-3.925
X5.5128Y-3.6744
X5.5129Y-3.575
T2
X5.165Y-3.56
X5.165Y-3.6387
X5.165Y-3.7175
X5.165Y-3.7962
X5.165Y-3.875
X5.165Y-3.9537
T0
M30
