%TF.GenerationSoftware,KiCad,Pcbnew,(5.1.9)-1*%
%TF.CreationDate,2022-11-25T11:31:52-06:00*%
%TF.ProjectId,adapter,61646170-7465-4722-9e6b-696361645f70,rev?*%
%TF.SameCoordinates,Original*%
%TF.FileFunction,Copper,L1,Top*%
%TF.FilePolarity,Positive*%
%FSLAX46Y46*%
G04 Gerber Fmt 4.6, Leading zero omitted, Abs format (unit mm)*
G04 Created by KiCad (PCBNEW (5.1.9)-1) date 2022-11-25 11:31:52*
%MOMM*%
%LPD*%
G01*
G04 APERTURE LIST*
%TA.AperFunction,ComponentPad*%
%ADD10O,1.350000X1.350000*%
%TD*%
%TA.AperFunction,SMDPad,CuDef*%
%ADD11R,3.480000X1.846667*%
%TD*%
%TA.AperFunction,ViaPad*%
%ADD12C,0.800000*%
%TD*%
%TA.AperFunction,Conductor*%
%ADD13C,0.500000*%
%TD*%
%TA.AperFunction,Conductor*%
%ADD14C,1.000000*%
%TD*%
%TA.AperFunction,Conductor*%
%ADD15C,0.200000*%
%TD*%
%TA.AperFunction,Conductor*%
%ADD16C,0.100000*%
%TD*%
G04 APERTURE END LIST*
D10*
%TO.P,J1,1*%
%TO.N,TXD*%
X131191000Y-90424000D03*
%TO.P,J1,2*%
%TO.N,RXD*%
X131191000Y-92424000D03*
%TO.P,J1,3*%
%TO.N,CTS*%
X131191000Y-94424000D03*
%TO.P,J1,4*%
%TO.N,RTS*%
X131191000Y-96424000D03*
%TO.P,J1,5*%
%TO.N,GND*%
X131191000Y-98424000D03*
%TO.P,J1,6*%
%TO.N,VCC*%
X131191000Y-100424000D03*
%TD*%
D11*
%TO.P,P1,1*%
%TO.N,Net-(P1-Pad1)*%
X142367000Y-89710000D03*
%TO.P,P1,2*%
%TO.N,Net-(P1-Pad2)*%
X142367000Y-92480000D03*
%TO.P,P1,3*%
%TO.N,Net-(P1-Pad3)*%
X142367000Y-95250000D03*
%TO.P,P1,4*%
%TO.N,Net-(P1-Pad4)*%
X142367000Y-98020000D03*
%TO.P,P1,5*%
%TO.N,GND*%
X142367000Y-100790000D03*
%TD*%
%TO.P,U1,1*%
%TO.N,Net-(C2-Pad1)*%
%TA.AperFunction,SMDPad,CuDef*%
G36*
G01*
X139390000Y-99545000D02*
X139390000Y-99845000D01*
G75*
G02*
X139240000Y-99995000I-150000J0D01*
G01*
X137540000Y-99995000D01*
G75*
G02*
X137390000Y-99845000I0J150000D01*
G01*
X137390000Y-99545000D01*
G75*
G02*
X137540000Y-99395000I150000J0D01*
G01*
X139240000Y-99395000D01*
G75*
G02*
X139390000Y-99545000I0J-150000D01*
G01*
G37*
%TD.AperFunction*%
%TO.P,U1,2*%
%TO.N,Net-(C4-Pad2)*%
%TA.AperFunction,SMDPad,CuDef*%
G36*
G01*
X139390000Y-98275000D02*
X139390000Y-98575000D01*
G75*
G02*
X139240000Y-98725000I-150000J0D01*
G01*
X137540000Y-98725000D01*
G75*
G02*
X137390000Y-98575000I0J150000D01*
G01*
X137390000Y-98275000D01*
G75*
G02*
X137540000Y-98125000I150000J0D01*
G01*
X139240000Y-98125000D01*
G75*
G02*
X139390000Y-98275000I0J-150000D01*
G01*
G37*
%TD.AperFunction*%
%TO.P,U1,3*%
%TO.N,Net-(C2-Pad2)*%
%TA.AperFunction,SMDPad,CuDef*%
G36*
G01*
X139390000Y-97005000D02*
X139390000Y-97305000D01*
G75*
G02*
X139240000Y-97455000I-150000J0D01*
G01*
X137540000Y-97455000D01*
G75*
G02*
X137390000Y-97305000I0J150000D01*
G01*
X137390000Y-97005000D01*
G75*
G02*
X137540000Y-96855000I150000J0D01*
G01*
X139240000Y-96855000D01*
G75*
G02*
X139390000Y-97005000I0J-150000D01*
G01*
G37*
%TD.AperFunction*%
%TO.P,U1,4*%
%TO.N,Net-(C3-Pad1)*%
%TA.AperFunction,SMDPad,CuDef*%
G36*
G01*
X139390000Y-95735000D02*
X139390000Y-96035000D01*
G75*
G02*
X139240000Y-96185000I-150000J0D01*
G01*
X137540000Y-96185000D01*
G75*
G02*
X137390000Y-96035000I0J150000D01*
G01*
X137390000Y-95735000D01*
G75*
G02*
X137540000Y-95585000I150000J0D01*
G01*
X139240000Y-95585000D01*
G75*
G02*
X139390000Y-95735000I0J-150000D01*
G01*
G37*
%TD.AperFunction*%
%TO.P,U1,5*%
%TO.N,Net-(C3-Pad2)*%
%TA.AperFunction,SMDPad,CuDef*%
G36*
G01*
X139390000Y-94465000D02*
X139390000Y-94765000D01*
G75*
G02*
X139240000Y-94915000I-150000J0D01*
G01*
X137540000Y-94915000D01*
G75*
G02*
X137390000Y-94765000I0J150000D01*
G01*
X137390000Y-94465000D01*
G75*
G02*
X137540000Y-94315000I150000J0D01*
G01*
X139240000Y-94315000D01*
G75*
G02*
X139390000Y-94465000I0J-150000D01*
G01*
G37*
%TD.AperFunction*%
%TO.P,U1,6*%
%TO.N,Net-(C5-Pad2)*%
%TA.AperFunction,SMDPad,CuDef*%
G36*
G01*
X139390000Y-93195000D02*
X139390000Y-93495000D01*
G75*
G02*
X139240000Y-93645000I-150000J0D01*
G01*
X137540000Y-93645000D01*
G75*
G02*
X137390000Y-93495000I0J150000D01*
G01*
X137390000Y-93195000D01*
G75*
G02*
X137540000Y-93045000I150000J0D01*
G01*
X139240000Y-93045000D01*
G75*
G02*
X139390000Y-93195000I0J-150000D01*
G01*
G37*
%TD.AperFunction*%
%TO.P,U1,7*%
%TO.N,Net-(P1-Pad2)*%
%TA.AperFunction,SMDPad,CuDef*%
G36*
G01*
X139390000Y-91925000D02*
X139390000Y-92225000D01*
G75*
G02*
X139240000Y-92375000I-150000J0D01*
G01*
X137540000Y-92375000D01*
G75*
G02*
X137390000Y-92225000I0J150000D01*
G01*
X137390000Y-91925000D01*
G75*
G02*
X137540000Y-91775000I150000J0D01*
G01*
X139240000Y-91775000D01*
G75*
G02*
X139390000Y-91925000I0J-150000D01*
G01*
G37*
%TD.AperFunction*%
%TO.P,U1,8*%
%TO.N,Net-(P1-Pad3)*%
%TA.AperFunction,SMDPad,CuDef*%
G36*
G01*
X139390000Y-90655000D02*
X139390000Y-90955000D01*
G75*
G02*
X139240000Y-91105000I-150000J0D01*
G01*
X137540000Y-91105000D01*
G75*
G02*
X137390000Y-90955000I0J150000D01*
G01*
X137390000Y-90655000D01*
G75*
G02*
X137540000Y-90505000I150000J0D01*
G01*
X139240000Y-90505000D01*
G75*
G02*
X139390000Y-90655000I0J-150000D01*
G01*
G37*
%TD.AperFunction*%
%TO.P,U1,9*%
%TO.N,TXD*%
%TA.AperFunction,SMDPad,CuDef*%
G36*
G01*
X134390000Y-90655000D02*
X134390000Y-90955000D01*
G75*
G02*
X134240000Y-91105000I-150000J0D01*
G01*
X132540000Y-91105000D01*
G75*
G02*
X132390000Y-90955000I0J150000D01*
G01*
X132390000Y-90655000D01*
G75*
G02*
X132540000Y-90505000I150000J0D01*
G01*
X134240000Y-90505000D01*
G75*
G02*
X134390000Y-90655000I0J-150000D01*
G01*
G37*
%TD.AperFunction*%
%TO.P,U1,10*%
%TO.N,RXD*%
%TA.AperFunction,SMDPad,CuDef*%
G36*
G01*
X134390000Y-91925000D02*
X134390000Y-92225000D01*
G75*
G02*
X134240000Y-92375000I-150000J0D01*
G01*
X132540000Y-92375000D01*
G75*
G02*
X132390000Y-92225000I0J150000D01*
G01*
X132390000Y-91925000D01*
G75*
G02*
X132540000Y-91775000I150000J0D01*
G01*
X134240000Y-91775000D01*
G75*
G02*
X134390000Y-91925000I0J-150000D01*
G01*
G37*
%TD.AperFunction*%
%TO.P,U1,11*%
%TO.N,CTS*%
%TA.AperFunction,SMDPad,CuDef*%
G36*
G01*
X134390000Y-93195000D02*
X134390000Y-93495000D01*
G75*
G02*
X134240000Y-93645000I-150000J0D01*
G01*
X132540000Y-93645000D01*
G75*
G02*
X132390000Y-93495000I0J150000D01*
G01*
X132390000Y-93195000D01*
G75*
G02*
X132540000Y-93045000I150000J0D01*
G01*
X134240000Y-93045000D01*
G75*
G02*
X134390000Y-93195000I0J-150000D01*
G01*
G37*
%TD.AperFunction*%
%TO.P,U1,12*%
%TO.N,RTS*%
%TA.AperFunction,SMDPad,CuDef*%
G36*
G01*
X134390000Y-94465000D02*
X134390000Y-94765000D01*
G75*
G02*
X134240000Y-94915000I-150000J0D01*
G01*
X132540000Y-94915000D01*
G75*
G02*
X132390000Y-94765000I0J150000D01*
G01*
X132390000Y-94465000D01*
G75*
G02*
X132540000Y-94315000I150000J0D01*
G01*
X134240000Y-94315000D01*
G75*
G02*
X134390000Y-94465000I0J-150000D01*
G01*
G37*
%TD.AperFunction*%
%TO.P,U1,13*%
%TO.N,Net-(P1-Pad7)*%
%TA.AperFunction,SMDPad,CuDef*%
G36*
G01*
X134390000Y-95735000D02*
X134390000Y-96035000D01*
G75*
G02*
X134240000Y-96185000I-150000J0D01*
G01*
X132540000Y-96185000D01*
G75*
G02*
X132390000Y-96035000I0J150000D01*
G01*
X132390000Y-95735000D01*
G75*
G02*
X132540000Y-95585000I150000J0D01*
G01*
X134240000Y-95585000D01*
G75*
G02*
X134390000Y-95735000I0J-150000D01*
G01*
G37*
%TD.AperFunction*%
%TO.P,U1,14*%
%TO.N,Net-(P1-Pad8)*%
%TA.AperFunction,SMDPad,CuDef*%
G36*
G01*
X134390000Y-97005000D02*
X134390000Y-97305000D01*
G75*
G02*
X134240000Y-97455000I-150000J0D01*
G01*
X132540000Y-97455000D01*
G75*
G02*
X132390000Y-97305000I0J150000D01*
G01*
X132390000Y-97005000D01*
G75*
G02*
X132540000Y-96855000I150000J0D01*
G01*
X134240000Y-96855000D01*
G75*
G02*
X134390000Y-97005000I0J-150000D01*
G01*
G37*
%TD.AperFunction*%
%TO.P,U1,15*%
%TO.N,GND*%
%TA.AperFunction,SMDPad,CuDef*%
G36*
G01*
X134390000Y-98275000D02*
X134390000Y-98575000D01*
G75*
G02*
X134240000Y-98725000I-150000J0D01*
G01*
X132540000Y-98725000D01*
G75*
G02*
X132390000Y-98575000I0J150000D01*
G01*
X132390000Y-98275000D01*
G75*
G02*
X132540000Y-98125000I150000J0D01*
G01*
X134240000Y-98125000D01*
G75*
G02*
X134390000Y-98275000I0J-150000D01*
G01*
G37*
%TD.AperFunction*%
%TO.P,U1,16*%
%TO.N,VCC*%
%TA.AperFunction,SMDPad,CuDef*%
G36*
G01*
X134390000Y-99545000D02*
X134390000Y-99845000D01*
G75*
G02*
X134240000Y-99995000I-150000J0D01*
G01*
X132540000Y-99995000D01*
G75*
G02*
X132390000Y-99845000I0J150000D01*
G01*
X132390000Y-99545000D01*
G75*
G02*
X132540000Y-99395000I150000J0D01*
G01*
X134240000Y-99395000D01*
G75*
G02*
X134390000Y-99545000I0J-150000D01*
G01*
G37*
%TD.AperFunction*%
%TD*%
D12*
%TO.N,GND*%
X139700000Y-100965000D03*
X138430000Y-100965000D03*
X138430000Y-89535000D03*
X137160000Y-100965000D03*
X134683500Y-98425000D03*
X137160000Y-89535000D03*
%TO.N,Net-(C2-Pad2)*%
X139954000Y-97726500D03*
%TO.N,Net-(C2-Pad1)*%
X139954000Y-99695000D03*
%TO.N,Net-(C3-Pad1)*%
X137096500Y-95377000D03*
%TO.N,Net-(C3-Pad2)*%
X137096500Y-94107000D03*
%TO.N,Net-(C4-Pad2)*%
X136842500Y-97599500D03*
%TO.N,Net-(C5-Pad2)*%
X137096500Y-92837000D03*
%TO.N,Net-(P1-Pad3)*%
X140024801Y-93329836D03*
X140026998Y-90805000D03*
%TO.N,Net-(P1-Pad7)*%
X134683500Y-95885000D03*
%TO.N,Net-(P1-Pad8)*%
X134683500Y-97155000D03*
%TO.N,CTS*%
X134683500Y-93345000D03*
%TO.N,RTS*%
X134683500Y-94615000D03*
%TO.N,RXD*%
X134683500Y-92075000D03*
%TO.N,TXD*%
X134683500Y-90805000D03*
%TO.N,VCC*%
X134683500Y-99695000D03*
%TD*%
D13*
%TO.N,GND*%
X131192000Y-98425000D02*
X131191000Y-98424000D01*
D14*
X134682500Y-98424000D02*
X134683500Y-98425000D01*
D13*
X133390000Y-98425000D02*
X134620000Y-98425000D01*
D14*
X131191000Y-98424000D02*
X134682500Y-98424000D01*
X142877800Y-101206300D02*
X140385800Y-101206300D01*
X142367000Y-100790000D02*
X142192000Y-100965000D01*
X139700000Y-100965000D02*
X140312002Y-100965000D01*
X140312002Y-100965000D02*
X140482001Y-100795001D01*
X140482001Y-100795001D02*
X140831501Y-100445501D01*
D13*
%TO.N,Net-(C2-Pad2)*%
X139446000Y-97155000D02*
X139954000Y-97663000D01*
X138390000Y-97155000D02*
X139446000Y-97155000D01*
%TO.N,Net-(C2-Pad1)*%
X138390000Y-99695000D02*
X139954000Y-99695000D01*
%TO.N,Net-(C3-Pad1)*%
X137604500Y-95885000D02*
X137096500Y-95377000D01*
X138390000Y-95885000D02*
X137604500Y-95885000D01*
%TO.N,Net-(C3-Pad2)*%
X137604500Y-94615000D02*
X137096500Y-94107000D01*
X138390000Y-94615000D02*
X137604500Y-94615000D01*
%TO.N,Net-(C4-Pad2)*%
X138365499Y-98449501D02*
X138390000Y-98425000D01*
X138390000Y-98425000D02*
X137655300Y-98425000D01*
X138390000Y-98425000D02*
X137350500Y-98425000D01*
X136842500Y-97917000D02*
X136842500Y-97599500D01*
X137350500Y-98425000D02*
X136842500Y-97917000D01*
%TO.N,Net-(C5-Pad2)*%
X137604500Y-93345000D02*
X137096500Y-92837000D01*
X138390000Y-93345000D02*
X137604500Y-93345000D01*
%TO.N,Net-(P1-Pad2)*%
X142240000Y-92480000D02*
X140041500Y-92480000D01*
X139636500Y-92075000D02*
X138390000Y-92075000D01*
X140041500Y-92480000D02*
X139636500Y-92075000D01*
%TO.N,Net-(P1-Pad3)*%
X140026998Y-90805000D02*
X138390000Y-90805000D01*
X142367000Y-95250000D02*
X140589000Y-95250000D01*
X140024801Y-94685801D02*
X140024801Y-93329836D01*
X140589000Y-95250000D02*
X140024801Y-94685801D01*
%TO.N,Net-(P1-Pad7)*%
X133390000Y-95885000D02*
X134620000Y-95885000D01*
%TO.N,Net-(P1-Pad8)*%
X133390000Y-97155000D02*
X134620000Y-97155000D01*
%TO.N,CTS*%
X133390000Y-93345000D02*
X134683500Y-93345000D01*
X132270000Y-93345000D02*
X131191000Y-94424000D01*
X133390000Y-93345000D02*
X132270000Y-93345000D01*
%TO.N,RTS*%
X133390000Y-94615000D02*
X134683500Y-94615000D01*
X131191000Y-96235456D02*
X131191000Y-96424000D01*
X132811456Y-94615000D02*
X131191000Y-96235456D01*
X133390000Y-94615000D02*
X132811456Y-94615000D01*
%TO.N,RXD*%
X133390000Y-92075000D02*
X134683500Y-92075000D01*
X131540000Y-92075000D02*
X131191000Y-92424000D01*
X133390000Y-92075000D02*
X131540000Y-92075000D01*
%TO.N,TXD*%
X133390000Y-90805000D02*
X134683500Y-90805000D01*
X131572000Y-90805000D02*
X131191000Y-90424000D01*
X133390000Y-90805000D02*
X131572000Y-90805000D01*
%TO.N,VCC*%
X133390000Y-99695000D02*
X134620000Y-99695000D01*
D14*
X134683500Y-99695000D02*
X131920000Y-99695000D01*
X131920000Y-99695000D02*
X131191000Y-100424000D01*
%TD*%
D15*
%TO.N,GND*%
X140325549Y-90170990D02*
X140231180Y-90131901D01*
X140095942Y-90105000D01*
X139958054Y-90105000D01*
X139822816Y-90131901D01*
X139695424Y-90184668D01*
X139590164Y-90255000D01*
X139444729Y-90255000D01*
X139412763Y-90237914D01*
X139328074Y-90212224D01*
X139240000Y-90203549D01*
X137540000Y-90203549D01*
X137451926Y-90212224D01*
X137367237Y-90237914D01*
X137289187Y-90279632D01*
X137220776Y-90335776D01*
X137164632Y-90404187D01*
X137122914Y-90482237D01*
X137097224Y-90566926D01*
X137088549Y-90655000D01*
X137088549Y-90955000D01*
X137097224Y-91043074D01*
X137122914Y-91127763D01*
X137164632Y-91205813D01*
X137220776Y-91274224D01*
X137289187Y-91330368D01*
X137367237Y-91372086D01*
X137451926Y-91397776D01*
X137540000Y-91406451D01*
X139240000Y-91406451D01*
X139328074Y-91397776D01*
X139412763Y-91372086D01*
X139444729Y-91355000D01*
X139590164Y-91355000D01*
X139695424Y-91425332D01*
X139822816Y-91478099D01*
X139958054Y-91505000D01*
X140095942Y-91505000D01*
X140231180Y-91478099D01*
X140356598Y-91426150D01*
X140348496Y-91441307D01*
X140331341Y-91497857D01*
X140325549Y-91556667D01*
X140325549Y-91930000D01*
X140269317Y-91930000D01*
X140044513Y-91705196D01*
X140027290Y-91684210D01*
X139943542Y-91615479D01*
X139847994Y-91564408D01*
X139744319Y-91532958D01*
X139663518Y-91525000D01*
X139663508Y-91525000D01*
X139636500Y-91522340D01*
X139609492Y-91525000D01*
X139444729Y-91525000D01*
X139412763Y-91507914D01*
X139328074Y-91482224D01*
X139240000Y-91473549D01*
X137540000Y-91473549D01*
X137451926Y-91482224D01*
X137367237Y-91507914D01*
X137289187Y-91549632D01*
X137220776Y-91605776D01*
X137164632Y-91674187D01*
X137122914Y-91752237D01*
X137097224Y-91836926D01*
X137088549Y-91925000D01*
X137088549Y-92137000D01*
X137027556Y-92137000D01*
X136892318Y-92163901D01*
X136764926Y-92216668D01*
X136650276Y-92293274D01*
X136552774Y-92390776D01*
X136476168Y-92505426D01*
X136423401Y-92632818D01*
X136396500Y-92768056D01*
X136396500Y-92905944D01*
X136423401Y-93041182D01*
X136476168Y-93168574D01*
X136552774Y-93283224D01*
X136650276Y-93380726D01*
X136764926Y-93457332D01*
X136800338Y-93472000D01*
X136764926Y-93486668D01*
X136650276Y-93563274D01*
X136552774Y-93660776D01*
X136476168Y-93775426D01*
X136423401Y-93902818D01*
X136396500Y-94038056D01*
X136396500Y-94175944D01*
X136423401Y-94311182D01*
X136476168Y-94438574D01*
X136552774Y-94553224D01*
X136650276Y-94650726D01*
X136764926Y-94727332D01*
X136800338Y-94742000D01*
X136764926Y-94756668D01*
X136650276Y-94833274D01*
X136552774Y-94930776D01*
X136476168Y-95045426D01*
X136423401Y-95172818D01*
X136396500Y-95308056D01*
X136396500Y-95445944D01*
X136423401Y-95581182D01*
X136476168Y-95708574D01*
X136552774Y-95823224D01*
X136650276Y-95920726D01*
X136764926Y-95997332D01*
X136892318Y-96050099D01*
X137016480Y-96074797D01*
X137111361Y-96169678D01*
X137122914Y-96207763D01*
X137164632Y-96285813D01*
X137220776Y-96354224D01*
X137289187Y-96410368D01*
X137367237Y-96452086D01*
X137451926Y-96477776D01*
X137540000Y-96486451D01*
X139240000Y-96486451D01*
X139328074Y-96477776D01*
X139412763Y-96452086D01*
X139490813Y-96410368D01*
X139559224Y-96354224D01*
X139615368Y-96285813D01*
X139657086Y-96207763D01*
X139682776Y-96123074D01*
X139691451Y-96035000D01*
X139691451Y-95735000D01*
X139682776Y-95646926D01*
X139657086Y-95562237D01*
X139615368Y-95484187D01*
X139559224Y-95415776D01*
X139490813Y-95359632D01*
X139412763Y-95317914D01*
X139328074Y-95292224D01*
X139240000Y-95283549D01*
X137791625Y-95283549D01*
X137778278Y-95216451D01*
X139240000Y-95216451D01*
X139328074Y-95207776D01*
X139412763Y-95182086D01*
X139490813Y-95140368D01*
X139559224Y-95084224D01*
X139599750Y-95034844D01*
X139634011Y-95076591D01*
X139654996Y-95093814D01*
X140180991Y-95619809D01*
X140198210Y-95640790D01*
X140219190Y-95658008D01*
X140219195Y-95658013D01*
X140280804Y-95708574D01*
X140281958Y-95709521D01*
X140325549Y-95732821D01*
X140325549Y-96173333D01*
X140331341Y-96232143D01*
X140348496Y-96288693D01*
X140362000Y-96313957D01*
X140362000Y-96956043D01*
X140348496Y-96981307D01*
X140331341Y-97037857D01*
X140325549Y-97096667D01*
X140325549Y-97132878D01*
X140285574Y-97106168D01*
X140158182Y-97053401D01*
X140113288Y-97044471D01*
X139854013Y-96785196D01*
X139836790Y-96764210D01*
X139753042Y-96695479D01*
X139657494Y-96644408D01*
X139553819Y-96612958D01*
X139473018Y-96605000D01*
X139473008Y-96605000D01*
X139446000Y-96602340D01*
X139440725Y-96602860D01*
X139412763Y-96587914D01*
X139328074Y-96562224D01*
X139240000Y-96553549D01*
X137540000Y-96553549D01*
X137451926Y-96562224D01*
X137367237Y-96587914D01*
X137289187Y-96629632D01*
X137220776Y-96685776D01*
X137164632Y-96754187D01*
X137122914Y-96832237D01*
X137097224Y-96916926D01*
X137094346Y-96946144D01*
X137046682Y-96926401D01*
X136911444Y-96899500D01*
X136773556Y-96899500D01*
X136638318Y-96926401D01*
X136510926Y-96979168D01*
X136396276Y-97055774D01*
X136298774Y-97153276D01*
X136222168Y-97267926D01*
X136169401Y-97395318D01*
X136142500Y-97530556D01*
X136142500Y-97668444D01*
X136169401Y-97803682D01*
X136222168Y-97931074D01*
X136298774Y-98045724D01*
X136310295Y-98057245D01*
X136331908Y-98128493D01*
X136382979Y-98224042D01*
X136451710Y-98307790D01*
X136472696Y-98325013D01*
X136942486Y-98794803D01*
X136959710Y-98815790D01*
X137043458Y-98884521D01*
X137139006Y-98935592D01*
X137242681Y-98967042D01*
X137323482Y-98975000D01*
X137323491Y-98975000D01*
X137337932Y-98976422D01*
X137367237Y-98992086D01*
X137451926Y-99017776D01*
X137540000Y-99026451D01*
X139240000Y-99026451D01*
X139328074Y-99017776D01*
X139412763Y-98992086D01*
X139490813Y-98950368D01*
X139559224Y-98894224D01*
X139615368Y-98825813D01*
X139657086Y-98747763D01*
X139682776Y-98663074D01*
X139691451Y-98575000D01*
X139691451Y-98375423D01*
X139749818Y-98399599D01*
X139885056Y-98426500D01*
X140022944Y-98426500D01*
X140158182Y-98399599D01*
X140285574Y-98346832D01*
X140325549Y-98320122D01*
X140325549Y-98943333D01*
X140331341Y-99002143D01*
X140348496Y-99058693D01*
X140362000Y-99083957D01*
X140362000Y-99125734D01*
X140285574Y-99074668D01*
X140158182Y-99021901D01*
X140022944Y-98995000D01*
X139885056Y-98995000D01*
X139749818Y-99021901D01*
X139622426Y-99074668D01*
X139517166Y-99145000D01*
X139444729Y-99145000D01*
X139412763Y-99127914D01*
X139328074Y-99102224D01*
X139240000Y-99093549D01*
X137540000Y-99093549D01*
X137451926Y-99102224D01*
X137367237Y-99127914D01*
X137289187Y-99169632D01*
X137220776Y-99225776D01*
X137164632Y-99294187D01*
X137122914Y-99372237D01*
X137097224Y-99456926D01*
X137088549Y-99545000D01*
X137088549Y-99845000D01*
X137097224Y-99933074D01*
X137122914Y-100017763D01*
X137164632Y-100095813D01*
X137220776Y-100164224D01*
X137289187Y-100220368D01*
X137367237Y-100262086D01*
X137451926Y-100287776D01*
X137540000Y-100296451D01*
X139240000Y-100296451D01*
X139328074Y-100287776D01*
X139412763Y-100262086D01*
X139444729Y-100245000D01*
X139517166Y-100245000D01*
X139622426Y-100315332D01*
X139749818Y-100368099D01*
X139885056Y-100395000D01*
X140022944Y-100395000D01*
X140158182Y-100368099D01*
X140285574Y-100315332D01*
X140326912Y-100287711D01*
X140327000Y-100315000D01*
X140362000Y-100350000D01*
X140362000Y-101230000D01*
X140327000Y-101265000D01*
X140325821Y-101629000D01*
X140213765Y-101629000D01*
X131789127Y-101196968D01*
X131812527Y-101181332D01*
X131948332Y-101045527D01*
X132055034Y-100885836D01*
X132128532Y-100708397D01*
X132151018Y-100595352D01*
X132251370Y-100495000D01*
X134722793Y-100495000D01*
X134840327Y-100483424D01*
X134991128Y-100437679D01*
X135130106Y-100363393D01*
X135251922Y-100263422D01*
X135351893Y-100141606D01*
X135426179Y-100002628D01*
X135471924Y-99851827D01*
X135487370Y-99695000D01*
X135471924Y-99538173D01*
X135426179Y-99387372D01*
X135351893Y-99248394D01*
X135251922Y-99126578D01*
X135130106Y-99026607D01*
X134991128Y-98952321D01*
X134840327Y-98906576D01*
X134722793Y-98895000D01*
X134638578Y-98895000D01*
X134640648Y-98892478D01*
X134668505Y-98840361D01*
X134685660Y-98783810D01*
X134691452Y-98725000D01*
X134690000Y-98700000D01*
X134615000Y-98625000D01*
X133790000Y-98625000D01*
X133790000Y-98725000D01*
X132990000Y-98725000D01*
X132990000Y-98625000D01*
X132165000Y-98625000D01*
X132090000Y-98700000D01*
X132088548Y-98725000D01*
X132094340Y-98783810D01*
X132111495Y-98840361D01*
X132139352Y-98892478D01*
X132141422Y-98895000D01*
X132002213Y-98895000D01*
X131997226Y-98824000D01*
X131591000Y-98824000D01*
X131591000Y-98844000D01*
X130791000Y-98844000D01*
X130791000Y-98824000D01*
X130771000Y-98824000D01*
X130771000Y-98125000D01*
X132088548Y-98125000D01*
X132090000Y-98150000D01*
X132165000Y-98225000D01*
X132990000Y-98225000D01*
X132990000Y-97900000D01*
X133790000Y-97900000D01*
X133790000Y-98225000D01*
X134615000Y-98225000D01*
X134690000Y-98150000D01*
X134691452Y-98125000D01*
X134685660Y-98066190D01*
X134668505Y-98009639D01*
X134640648Y-97957522D01*
X134603159Y-97911841D01*
X134557478Y-97874352D01*
X134505361Y-97846495D01*
X134448810Y-97829340D01*
X134390000Y-97823548D01*
X133865000Y-97825000D01*
X133790000Y-97900000D01*
X132990000Y-97900000D01*
X132915000Y-97825000D01*
X132390000Y-97823548D01*
X132331190Y-97829340D01*
X132274639Y-97846495D01*
X132222522Y-97874352D01*
X132176841Y-97911841D01*
X132139352Y-97957522D01*
X132111495Y-98009639D01*
X132094340Y-98066190D01*
X132088548Y-98125000D01*
X130771000Y-98125000D01*
X130771000Y-98024000D01*
X130791000Y-98024000D01*
X130791000Y-97609804D01*
X131591000Y-97609804D01*
X131591000Y-98024000D01*
X131997226Y-98024000D01*
X132006650Y-97889828D01*
X131996659Y-97874835D01*
X131874042Y-97728211D01*
X131725176Y-97608325D01*
X131591000Y-97609804D01*
X130791000Y-97609804D01*
X130656824Y-97608325D01*
X130527000Y-97712876D01*
X130527000Y-97138859D01*
X130569473Y-97181332D01*
X130729164Y-97288034D01*
X130906603Y-97361532D01*
X131094971Y-97399000D01*
X131287029Y-97399000D01*
X131475397Y-97361532D01*
X131652836Y-97288034D01*
X131812527Y-97181332D01*
X131948332Y-97045527D01*
X132055034Y-96885836D01*
X132128532Y-96708397D01*
X132166000Y-96520029D01*
X132166000Y-96327971D01*
X132153455Y-96264902D01*
X132164632Y-96285813D01*
X132220776Y-96354224D01*
X132289187Y-96410368D01*
X132367237Y-96452086D01*
X132451926Y-96477776D01*
X132540000Y-96486451D01*
X134240000Y-96486451D01*
X134312919Y-96479269D01*
X134351926Y-96505332D01*
X134387338Y-96520000D01*
X134351926Y-96534668D01*
X134312919Y-96560731D01*
X134240000Y-96553549D01*
X132540000Y-96553549D01*
X132451926Y-96562224D01*
X132367237Y-96587914D01*
X132289187Y-96629632D01*
X132220776Y-96685776D01*
X132164632Y-96754187D01*
X132122914Y-96832237D01*
X132097224Y-96916926D01*
X132088549Y-97005000D01*
X132088549Y-97305000D01*
X132097224Y-97393074D01*
X132122914Y-97477763D01*
X132164632Y-97555813D01*
X132220776Y-97624224D01*
X132289187Y-97680368D01*
X132367237Y-97722086D01*
X132451926Y-97747776D01*
X132540000Y-97756451D01*
X134240000Y-97756451D01*
X134312919Y-97749269D01*
X134351926Y-97775332D01*
X134479318Y-97828099D01*
X134614556Y-97855000D01*
X134752444Y-97855000D01*
X134887682Y-97828099D01*
X135015074Y-97775332D01*
X135129724Y-97698726D01*
X135227226Y-97601224D01*
X135303832Y-97486574D01*
X135356599Y-97359182D01*
X135383500Y-97223944D01*
X135383500Y-97086056D01*
X135356599Y-96950818D01*
X135303832Y-96823426D01*
X135227226Y-96708776D01*
X135129724Y-96611274D01*
X135015074Y-96534668D01*
X134979662Y-96520000D01*
X135015074Y-96505332D01*
X135129724Y-96428726D01*
X135227226Y-96331224D01*
X135303832Y-96216574D01*
X135356599Y-96089182D01*
X135383500Y-95953944D01*
X135383500Y-95816056D01*
X135356599Y-95680818D01*
X135303832Y-95553426D01*
X135227226Y-95438776D01*
X135129724Y-95341274D01*
X135015074Y-95264668D01*
X134979662Y-95250000D01*
X135015074Y-95235332D01*
X135129724Y-95158726D01*
X135227226Y-95061224D01*
X135303832Y-94946574D01*
X135356599Y-94819182D01*
X135383500Y-94683944D01*
X135383500Y-94546056D01*
X135356599Y-94410818D01*
X135303832Y-94283426D01*
X135227226Y-94168776D01*
X135129724Y-94071274D01*
X135015074Y-93994668D01*
X134979662Y-93980000D01*
X135015074Y-93965332D01*
X135129724Y-93888726D01*
X135227226Y-93791224D01*
X135303832Y-93676574D01*
X135356599Y-93549182D01*
X135383500Y-93413944D01*
X135383500Y-93276056D01*
X135356599Y-93140818D01*
X135303832Y-93013426D01*
X135227226Y-92898776D01*
X135129724Y-92801274D01*
X135015074Y-92724668D01*
X134979662Y-92710000D01*
X135015074Y-92695332D01*
X135129724Y-92618726D01*
X135227226Y-92521224D01*
X135303832Y-92406574D01*
X135356599Y-92279182D01*
X135383500Y-92143944D01*
X135383500Y-92006056D01*
X135356599Y-91870818D01*
X135303832Y-91743426D01*
X135227226Y-91628776D01*
X135129724Y-91531274D01*
X135015074Y-91454668D01*
X134979662Y-91440000D01*
X135015074Y-91425332D01*
X135129724Y-91348726D01*
X135227226Y-91251224D01*
X135303832Y-91136574D01*
X135356599Y-91009182D01*
X135383500Y-90873944D01*
X135383500Y-90736056D01*
X135356599Y-90600818D01*
X135303832Y-90473426D01*
X135227226Y-90358776D01*
X135129724Y-90261274D01*
X135015074Y-90184668D01*
X134887682Y-90131901D01*
X134752444Y-90105000D01*
X134614556Y-90105000D01*
X134479318Y-90131901D01*
X134351926Y-90184668D01*
X134312919Y-90210731D01*
X134240000Y-90203549D01*
X132540000Y-90203549D01*
X132451926Y-90212224D01*
X132367237Y-90237914D01*
X132335271Y-90255000D01*
X132151485Y-90255000D01*
X132128532Y-90139603D01*
X132055034Y-89962164D01*
X131948332Y-89802473D01*
X131812527Y-89666668D01*
X131758003Y-89630237D01*
X140218076Y-88871000D01*
X140325549Y-88871000D01*
X140325549Y-90170990D01*
%TA.AperFunction,Conductor*%
D16*
G36*
X140325549Y-90170990D02*
G01*
X140231180Y-90131901D01*
X140095942Y-90105000D01*
X139958054Y-90105000D01*
X139822816Y-90131901D01*
X139695424Y-90184668D01*
X139590164Y-90255000D01*
X139444729Y-90255000D01*
X139412763Y-90237914D01*
X139328074Y-90212224D01*
X139240000Y-90203549D01*
X137540000Y-90203549D01*
X137451926Y-90212224D01*
X137367237Y-90237914D01*
X137289187Y-90279632D01*
X137220776Y-90335776D01*
X137164632Y-90404187D01*
X137122914Y-90482237D01*
X137097224Y-90566926D01*
X137088549Y-90655000D01*
X137088549Y-90955000D01*
X137097224Y-91043074D01*
X137122914Y-91127763D01*
X137164632Y-91205813D01*
X137220776Y-91274224D01*
X137289187Y-91330368D01*
X137367237Y-91372086D01*
X137451926Y-91397776D01*
X137540000Y-91406451D01*
X139240000Y-91406451D01*
X139328074Y-91397776D01*
X139412763Y-91372086D01*
X139444729Y-91355000D01*
X139590164Y-91355000D01*
X139695424Y-91425332D01*
X139822816Y-91478099D01*
X139958054Y-91505000D01*
X140095942Y-91505000D01*
X140231180Y-91478099D01*
X140356598Y-91426150D01*
X140348496Y-91441307D01*
X140331341Y-91497857D01*
X140325549Y-91556667D01*
X140325549Y-91930000D01*
X140269317Y-91930000D01*
X140044513Y-91705196D01*
X140027290Y-91684210D01*
X139943542Y-91615479D01*
X139847994Y-91564408D01*
X139744319Y-91532958D01*
X139663518Y-91525000D01*
X139663508Y-91525000D01*
X139636500Y-91522340D01*
X139609492Y-91525000D01*
X139444729Y-91525000D01*
X139412763Y-91507914D01*
X139328074Y-91482224D01*
X139240000Y-91473549D01*
X137540000Y-91473549D01*
X137451926Y-91482224D01*
X137367237Y-91507914D01*
X137289187Y-91549632D01*
X137220776Y-91605776D01*
X137164632Y-91674187D01*
X137122914Y-91752237D01*
X137097224Y-91836926D01*
X137088549Y-91925000D01*
X137088549Y-92137000D01*
X137027556Y-92137000D01*
X136892318Y-92163901D01*
X136764926Y-92216668D01*
X136650276Y-92293274D01*
X136552774Y-92390776D01*
X136476168Y-92505426D01*
X136423401Y-92632818D01*
X136396500Y-92768056D01*
X136396500Y-92905944D01*
X136423401Y-93041182D01*
X136476168Y-93168574D01*
X136552774Y-93283224D01*
X136650276Y-93380726D01*
X136764926Y-93457332D01*
X136800338Y-93472000D01*
X136764926Y-93486668D01*
X136650276Y-93563274D01*
X136552774Y-93660776D01*
X136476168Y-93775426D01*
X136423401Y-93902818D01*
X136396500Y-94038056D01*
X136396500Y-94175944D01*
X136423401Y-94311182D01*
X136476168Y-94438574D01*
X136552774Y-94553224D01*
X136650276Y-94650726D01*
X136764926Y-94727332D01*
X136800338Y-94742000D01*
X136764926Y-94756668D01*
X136650276Y-94833274D01*
X136552774Y-94930776D01*
X136476168Y-95045426D01*
X136423401Y-95172818D01*
X136396500Y-95308056D01*
X136396500Y-95445944D01*
X136423401Y-95581182D01*
X136476168Y-95708574D01*
X136552774Y-95823224D01*
X136650276Y-95920726D01*
X136764926Y-95997332D01*
X136892318Y-96050099D01*
X137016480Y-96074797D01*
X137111361Y-96169678D01*
X137122914Y-96207763D01*
X137164632Y-96285813D01*
X137220776Y-96354224D01*
X137289187Y-96410368D01*
X137367237Y-96452086D01*
X137451926Y-96477776D01*
X137540000Y-96486451D01*
X139240000Y-96486451D01*
X139328074Y-96477776D01*
X139412763Y-96452086D01*
X139490813Y-96410368D01*
X139559224Y-96354224D01*
X139615368Y-96285813D01*
X139657086Y-96207763D01*
X139682776Y-96123074D01*
X139691451Y-96035000D01*
X139691451Y-95735000D01*
X139682776Y-95646926D01*
X139657086Y-95562237D01*
X139615368Y-95484187D01*
X139559224Y-95415776D01*
X139490813Y-95359632D01*
X139412763Y-95317914D01*
X139328074Y-95292224D01*
X139240000Y-95283549D01*
X137791625Y-95283549D01*
X137778278Y-95216451D01*
X139240000Y-95216451D01*
X139328074Y-95207776D01*
X139412763Y-95182086D01*
X139490813Y-95140368D01*
X139559224Y-95084224D01*
X139599750Y-95034844D01*
X139634011Y-95076591D01*
X139654996Y-95093814D01*
X140180991Y-95619809D01*
X140198210Y-95640790D01*
X140219190Y-95658008D01*
X140219195Y-95658013D01*
X140280804Y-95708574D01*
X140281958Y-95709521D01*
X140325549Y-95732821D01*
X140325549Y-96173333D01*
X140331341Y-96232143D01*
X140348496Y-96288693D01*
X140362000Y-96313957D01*
X140362000Y-96956043D01*
X140348496Y-96981307D01*
X140331341Y-97037857D01*
X140325549Y-97096667D01*
X140325549Y-97132878D01*
X140285574Y-97106168D01*
X140158182Y-97053401D01*
X140113288Y-97044471D01*
X139854013Y-96785196D01*
X139836790Y-96764210D01*
X139753042Y-96695479D01*
X139657494Y-96644408D01*
X139553819Y-96612958D01*
X139473018Y-96605000D01*
X139473008Y-96605000D01*
X139446000Y-96602340D01*
X139440725Y-96602860D01*
X139412763Y-96587914D01*
X139328074Y-96562224D01*
X139240000Y-96553549D01*
X137540000Y-96553549D01*
X137451926Y-96562224D01*
X137367237Y-96587914D01*
X137289187Y-96629632D01*
X137220776Y-96685776D01*
X137164632Y-96754187D01*
X137122914Y-96832237D01*
X137097224Y-96916926D01*
X137094346Y-96946144D01*
X137046682Y-96926401D01*
X136911444Y-96899500D01*
X136773556Y-96899500D01*
X136638318Y-96926401D01*
X136510926Y-96979168D01*
X136396276Y-97055774D01*
X136298774Y-97153276D01*
X136222168Y-97267926D01*
X136169401Y-97395318D01*
X136142500Y-97530556D01*
X136142500Y-97668444D01*
X136169401Y-97803682D01*
X136222168Y-97931074D01*
X136298774Y-98045724D01*
X136310295Y-98057245D01*
X136331908Y-98128493D01*
X136382979Y-98224042D01*
X136451710Y-98307790D01*
X136472696Y-98325013D01*
X136942486Y-98794803D01*
X136959710Y-98815790D01*
X137043458Y-98884521D01*
X137139006Y-98935592D01*
X137242681Y-98967042D01*
X137323482Y-98975000D01*
X137323491Y-98975000D01*
X137337932Y-98976422D01*
X137367237Y-98992086D01*
X137451926Y-99017776D01*
X137540000Y-99026451D01*
X139240000Y-99026451D01*
X139328074Y-99017776D01*
X139412763Y-98992086D01*
X139490813Y-98950368D01*
X139559224Y-98894224D01*
X139615368Y-98825813D01*
X139657086Y-98747763D01*
X139682776Y-98663074D01*
X139691451Y-98575000D01*
X139691451Y-98375423D01*
X139749818Y-98399599D01*
X139885056Y-98426500D01*
X140022944Y-98426500D01*
X140158182Y-98399599D01*
X140285574Y-98346832D01*
X140325549Y-98320122D01*
X140325549Y-98943333D01*
X140331341Y-99002143D01*
X140348496Y-99058693D01*
X140362000Y-99083957D01*
X140362000Y-99125734D01*
X140285574Y-99074668D01*
X140158182Y-99021901D01*
X140022944Y-98995000D01*
X139885056Y-98995000D01*
X139749818Y-99021901D01*
X139622426Y-99074668D01*
X139517166Y-99145000D01*
X139444729Y-99145000D01*
X139412763Y-99127914D01*
X139328074Y-99102224D01*
X139240000Y-99093549D01*
X137540000Y-99093549D01*
X137451926Y-99102224D01*
X137367237Y-99127914D01*
X137289187Y-99169632D01*
X137220776Y-99225776D01*
X137164632Y-99294187D01*
X137122914Y-99372237D01*
X137097224Y-99456926D01*
X137088549Y-99545000D01*
X137088549Y-99845000D01*
X137097224Y-99933074D01*
X137122914Y-100017763D01*
X137164632Y-100095813D01*
X137220776Y-100164224D01*
X137289187Y-100220368D01*
X137367237Y-100262086D01*
X137451926Y-100287776D01*
X137540000Y-100296451D01*
X139240000Y-100296451D01*
X139328074Y-100287776D01*
X139412763Y-100262086D01*
X139444729Y-100245000D01*
X139517166Y-100245000D01*
X139622426Y-100315332D01*
X139749818Y-100368099D01*
X139885056Y-100395000D01*
X140022944Y-100395000D01*
X140158182Y-100368099D01*
X140285574Y-100315332D01*
X140326912Y-100287711D01*
X140327000Y-100315000D01*
X140362000Y-100350000D01*
X140362000Y-101230000D01*
X140327000Y-101265000D01*
X140325821Y-101629000D01*
X140213765Y-101629000D01*
X131789127Y-101196968D01*
X131812527Y-101181332D01*
X131948332Y-101045527D01*
X132055034Y-100885836D01*
X132128532Y-100708397D01*
X132151018Y-100595352D01*
X132251370Y-100495000D01*
X134722793Y-100495000D01*
X134840327Y-100483424D01*
X134991128Y-100437679D01*
X135130106Y-100363393D01*
X135251922Y-100263422D01*
X135351893Y-100141606D01*
X135426179Y-100002628D01*
X135471924Y-99851827D01*
X135487370Y-99695000D01*
X135471924Y-99538173D01*
X135426179Y-99387372D01*
X135351893Y-99248394D01*
X135251922Y-99126578D01*
X135130106Y-99026607D01*
X134991128Y-98952321D01*
X134840327Y-98906576D01*
X134722793Y-98895000D01*
X134638578Y-98895000D01*
X134640648Y-98892478D01*
X134668505Y-98840361D01*
X134685660Y-98783810D01*
X134691452Y-98725000D01*
X134690000Y-98700000D01*
X134615000Y-98625000D01*
X133790000Y-98625000D01*
X133790000Y-98725000D01*
X132990000Y-98725000D01*
X132990000Y-98625000D01*
X132165000Y-98625000D01*
X132090000Y-98700000D01*
X132088548Y-98725000D01*
X132094340Y-98783810D01*
X132111495Y-98840361D01*
X132139352Y-98892478D01*
X132141422Y-98895000D01*
X132002213Y-98895000D01*
X131997226Y-98824000D01*
X131591000Y-98824000D01*
X131591000Y-98844000D01*
X130791000Y-98844000D01*
X130791000Y-98824000D01*
X130771000Y-98824000D01*
X130771000Y-98125000D01*
X132088548Y-98125000D01*
X132090000Y-98150000D01*
X132165000Y-98225000D01*
X132990000Y-98225000D01*
X132990000Y-97900000D01*
X133790000Y-97900000D01*
X133790000Y-98225000D01*
X134615000Y-98225000D01*
X134690000Y-98150000D01*
X134691452Y-98125000D01*
X134685660Y-98066190D01*
X134668505Y-98009639D01*
X134640648Y-97957522D01*
X134603159Y-97911841D01*
X134557478Y-97874352D01*
X134505361Y-97846495D01*
X134448810Y-97829340D01*
X134390000Y-97823548D01*
X133865000Y-97825000D01*
X133790000Y-97900000D01*
X132990000Y-97900000D01*
X132915000Y-97825000D01*
X132390000Y-97823548D01*
X132331190Y-97829340D01*
X132274639Y-97846495D01*
X132222522Y-97874352D01*
X132176841Y-97911841D01*
X132139352Y-97957522D01*
X132111495Y-98009639D01*
X132094340Y-98066190D01*
X132088548Y-98125000D01*
X130771000Y-98125000D01*
X130771000Y-98024000D01*
X130791000Y-98024000D01*
X130791000Y-97609804D01*
X131591000Y-97609804D01*
X131591000Y-98024000D01*
X131997226Y-98024000D01*
X132006650Y-97889828D01*
X131996659Y-97874835D01*
X131874042Y-97728211D01*
X131725176Y-97608325D01*
X131591000Y-97609804D01*
X130791000Y-97609804D01*
X130656824Y-97608325D01*
X130527000Y-97712876D01*
X130527000Y-97138859D01*
X130569473Y-97181332D01*
X130729164Y-97288034D01*
X130906603Y-97361532D01*
X131094971Y-97399000D01*
X131287029Y-97399000D01*
X131475397Y-97361532D01*
X131652836Y-97288034D01*
X131812527Y-97181332D01*
X131948332Y-97045527D01*
X132055034Y-96885836D01*
X132128532Y-96708397D01*
X132166000Y-96520029D01*
X132166000Y-96327971D01*
X132153455Y-96264902D01*
X132164632Y-96285813D01*
X132220776Y-96354224D01*
X132289187Y-96410368D01*
X132367237Y-96452086D01*
X132451926Y-96477776D01*
X132540000Y-96486451D01*
X134240000Y-96486451D01*
X134312919Y-96479269D01*
X134351926Y-96505332D01*
X134387338Y-96520000D01*
X134351926Y-96534668D01*
X134312919Y-96560731D01*
X134240000Y-96553549D01*
X132540000Y-96553549D01*
X132451926Y-96562224D01*
X132367237Y-96587914D01*
X132289187Y-96629632D01*
X132220776Y-96685776D01*
X132164632Y-96754187D01*
X132122914Y-96832237D01*
X132097224Y-96916926D01*
X132088549Y-97005000D01*
X132088549Y-97305000D01*
X132097224Y-97393074D01*
X132122914Y-97477763D01*
X132164632Y-97555813D01*
X132220776Y-97624224D01*
X132289187Y-97680368D01*
X132367237Y-97722086D01*
X132451926Y-97747776D01*
X132540000Y-97756451D01*
X134240000Y-97756451D01*
X134312919Y-97749269D01*
X134351926Y-97775332D01*
X134479318Y-97828099D01*
X134614556Y-97855000D01*
X134752444Y-97855000D01*
X134887682Y-97828099D01*
X135015074Y-97775332D01*
X135129724Y-97698726D01*
X135227226Y-97601224D01*
X135303832Y-97486574D01*
X135356599Y-97359182D01*
X135383500Y-97223944D01*
X135383500Y-97086056D01*
X135356599Y-96950818D01*
X135303832Y-96823426D01*
X135227226Y-96708776D01*
X135129724Y-96611274D01*
X135015074Y-96534668D01*
X134979662Y-96520000D01*
X135015074Y-96505332D01*
X135129724Y-96428726D01*
X135227226Y-96331224D01*
X135303832Y-96216574D01*
X135356599Y-96089182D01*
X135383500Y-95953944D01*
X135383500Y-95816056D01*
X135356599Y-95680818D01*
X135303832Y-95553426D01*
X135227226Y-95438776D01*
X135129724Y-95341274D01*
X135015074Y-95264668D01*
X134979662Y-95250000D01*
X135015074Y-95235332D01*
X135129724Y-95158726D01*
X135227226Y-95061224D01*
X135303832Y-94946574D01*
X135356599Y-94819182D01*
X135383500Y-94683944D01*
X135383500Y-94546056D01*
X135356599Y-94410818D01*
X135303832Y-94283426D01*
X135227226Y-94168776D01*
X135129724Y-94071274D01*
X135015074Y-93994668D01*
X134979662Y-93980000D01*
X135015074Y-93965332D01*
X135129724Y-93888726D01*
X135227226Y-93791224D01*
X135303832Y-93676574D01*
X135356599Y-93549182D01*
X135383500Y-93413944D01*
X135383500Y-93276056D01*
X135356599Y-93140818D01*
X135303832Y-93013426D01*
X135227226Y-92898776D01*
X135129724Y-92801274D01*
X135015074Y-92724668D01*
X134979662Y-92710000D01*
X135015074Y-92695332D01*
X135129724Y-92618726D01*
X135227226Y-92521224D01*
X135303832Y-92406574D01*
X135356599Y-92279182D01*
X135383500Y-92143944D01*
X135383500Y-92006056D01*
X135356599Y-91870818D01*
X135303832Y-91743426D01*
X135227226Y-91628776D01*
X135129724Y-91531274D01*
X135015074Y-91454668D01*
X134979662Y-91440000D01*
X135015074Y-91425332D01*
X135129724Y-91348726D01*
X135227226Y-91251224D01*
X135303832Y-91136574D01*
X135356599Y-91009182D01*
X135383500Y-90873944D01*
X135383500Y-90736056D01*
X135356599Y-90600818D01*
X135303832Y-90473426D01*
X135227226Y-90358776D01*
X135129724Y-90261274D01*
X135015074Y-90184668D01*
X134887682Y-90131901D01*
X134752444Y-90105000D01*
X134614556Y-90105000D01*
X134479318Y-90131901D01*
X134351926Y-90184668D01*
X134312919Y-90210731D01*
X134240000Y-90203549D01*
X132540000Y-90203549D01*
X132451926Y-90212224D01*
X132367237Y-90237914D01*
X132335271Y-90255000D01*
X132151485Y-90255000D01*
X132128532Y-90139603D01*
X132055034Y-89962164D01*
X131948332Y-89802473D01*
X131812527Y-89666668D01*
X131758003Y-89630237D01*
X140218076Y-88871000D01*
X140325549Y-88871000D01*
X140325549Y-90170990D01*
G37*
%TD.AperFunction*%
%TD*%
M02*
