M48
; DRILL file {KiCad (5.1.9)-1} date 11/25/22 13:08:50
; FORMAT={-:-/ absolute / inch / decimal}
; #@! TF.CreationDate,2022-11-25T13:08:50-06:00
; #@! TF.GenerationSoftware,Kicad,Pcbnew,(5.1.9)-1
; #@! TF.FileFunction,Plated,1,2,PTH
FMAT,2
INCH
T1C0.0138
T2C0.0157
T3C0.0472
T4C0.0512
%
G90
G05
T1
X5.43Y-4.2845
X5.5148Y-4.2725
X5.57Y-4.3005
T2
X4.945Y-3.685
X4.945Y-4.315
X5.015Y-3.685
X5.015Y-4.315
X5.105Y-3.6925
X5.105Y-4.3075
X5.125Y-4.1975
X5.1625Y-3.7625
X5.165Y-3.6925
X5.1775Y-4.1975
X5.225Y-4.1975
X5.235Y-3.8025
X5.2675Y-3.69
X5.275Y-3.95
X5.275Y-4.04
X5.2925Y-3.8
X5.3225Y-4.18
X5.325Y-3.69
X5.3275Y-4.1375
X5.3375Y-3.8
X5.355Y-3.75
X5.365Y-4.2175
X5.3675Y-4.1375
X5.3735Y-4.2766
X5.375Y-4.3225
X5.39Y-4.02
X5.3925Y-3.8925
X5.4075Y-4.0575
X5.41Y-3.98
X5.4575Y-4.0197
X5.4725Y-4.11
X5.475Y-3.9
X5.5295Y-3.885
X5.5425Y-3.69
X5.55Y-3.94
X5.5526Y-4.0591
X5.585Y-4.22
X5.61Y-3.9409
X5.6396Y-4.155
X5.6625Y-3.69
X5.68Y-4.1675
X5.7125Y-3.69
X5.735Y-3.83
T3
X5.655Y-4.25
X5.705Y-3.765
T4
G00X4.998Y-3.7413
M15
G01X4.9586Y-3.7413
M16
G05
G00X4.998Y-4.2587
M15
G01X4.9586Y-4.2587
M16
G05
T0
M30
