%TF.GenerationSoftware,KiCad,Pcbnew,(5.1.9)-1*%
%TF.CreationDate,2022-11-25T13:08:51-06:00*%
%TF.ProjectId,pcb,7063622e-6b69-4636-9164-5f7063625858,rev?*%
%TF.SameCoordinates,Original*%
%TF.FileFunction,Legend,Bot*%
%TF.FilePolarity,Positive*%
%FSLAX46Y46*%
G04 Gerber Fmt 4.6, Leading zero omitted, Abs format (unit mm)*
G04 Created by KiCad (PCBNEW (5.1.9)-1) date 2022-11-25 13:08:51*
%MOMM*%
%LPD*%
G01*
G04 APERTURE LIST*
%ADD10C,0.130000*%
%ADD11C,0.150000*%
%ADD12C,0.120000*%
%ADD13C,0.200000*%
%ADD14C,0.100000*%
%ADD15C,0.110000*%
G04 APERTURE END LIST*
D10*
X141090476Y-100361666D02*
X141128571Y-100323571D01*
X141204761Y-100209285D01*
X141242857Y-100133095D01*
X141280952Y-100018809D01*
X141319047Y-99828333D01*
X141319047Y-99675952D01*
X141280952Y-99485476D01*
X141242857Y-99371190D01*
X141204761Y-99295000D01*
X141128571Y-99180714D01*
X141090476Y-99142619D01*
X140785714Y-100056904D02*
X140785714Y-99523571D01*
X140785714Y-99599761D02*
X140747619Y-99561666D01*
X140671428Y-99523571D01*
X140557142Y-99523571D01*
X140480952Y-99561666D01*
X140442857Y-99637857D01*
X140442857Y-100056904D01*
X140442857Y-99637857D02*
X140404761Y-99561666D01*
X140328571Y-99523571D01*
X140214285Y-99523571D01*
X140138095Y-99561666D01*
X140100000Y-99637857D01*
X140100000Y-100056904D01*
X139719047Y-100056904D02*
X139719047Y-99523571D01*
X139719047Y-99256904D02*
X139757142Y-99295000D01*
X139719047Y-99333095D01*
X139680952Y-99295000D01*
X139719047Y-99256904D01*
X139719047Y-99333095D01*
X139338095Y-99523571D02*
X139338095Y-100056904D01*
X139338095Y-99599761D02*
X139300000Y-99561666D01*
X139223809Y-99523571D01*
X139109523Y-99523571D01*
X139033333Y-99561666D01*
X138995238Y-99637857D01*
X138995238Y-100056904D01*
X138614285Y-100056904D02*
X138614285Y-99523571D01*
X138614285Y-99256904D02*
X138652380Y-99295000D01*
X138614285Y-99333095D01*
X138576190Y-99295000D01*
X138614285Y-99256904D01*
X138614285Y-99333095D01*
X138309523Y-100361666D02*
X138271428Y-100323571D01*
X138195238Y-100209285D01*
X138157142Y-100133095D01*
X138119047Y-100018809D01*
X138080952Y-99828333D01*
X138080952Y-99675952D01*
X138119047Y-99485476D01*
X138157142Y-99371190D01*
X138195238Y-99295000D01*
X138271428Y-99180714D01*
X138309523Y-99142619D01*
D11*
X144018000Y-100838000D02*
X135636000Y-100838000D01*
D12*
X142856000Y-95021476D02*
X142817904Y-94945285D01*
X142817904Y-94831000D01*
X142856000Y-94716714D01*
X142932190Y-94640523D01*
X143008380Y-94602428D01*
X143160761Y-94564333D01*
X143275047Y-94564333D01*
X143427428Y-94602428D01*
X143503619Y-94640523D01*
X143579809Y-94716714D01*
X143617904Y-94831000D01*
X143617904Y-94907190D01*
X143579809Y-95021476D01*
X143541714Y-95059571D01*
X143275047Y-95059571D01*
X143275047Y-94907190D01*
X143617904Y-95402428D02*
X142817904Y-95402428D01*
X143617904Y-95859571D01*
X142817904Y-95859571D01*
X143617904Y-96240523D02*
X142817904Y-96240523D01*
X142817904Y-96431000D01*
X142856000Y-96545285D01*
X142932190Y-96621476D01*
X143008380Y-96659571D01*
X143160761Y-96697666D01*
X143275047Y-96697666D01*
X143427428Y-96659571D01*
X143503619Y-96621476D01*
X143579809Y-96545285D01*
X143617904Y-96431000D01*
X143617904Y-96240523D01*
X144015428Y-101341285D02*
X144015428Y-101948428D01*
X143979714Y-102019857D01*
X143944000Y-102055571D01*
X143872571Y-102091285D01*
X143729714Y-102091285D01*
X143658285Y-102055571D01*
X143622571Y-102019857D01*
X143586857Y-101948428D01*
X143586857Y-101341285D01*
X143265428Y-102055571D02*
X143158285Y-102091285D01*
X142979714Y-102091285D01*
X142908285Y-102055571D01*
X142872571Y-102019857D01*
X142836857Y-101948428D01*
X142836857Y-101877000D01*
X142872571Y-101805571D01*
X142908285Y-101769857D01*
X142979714Y-101734142D01*
X143122571Y-101698428D01*
X143194000Y-101662714D01*
X143229714Y-101627000D01*
X143265428Y-101555571D01*
X143265428Y-101484142D01*
X143229714Y-101412714D01*
X143194000Y-101377000D01*
X143122571Y-101341285D01*
X142944000Y-101341285D01*
X142836857Y-101377000D01*
X142265428Y-101698428D02*
X142158285Y-101734142D01*
X142122571Y-101769857D01*
X142086857Y-101841285D01*
X142086857Y-101948428D01*
X142122571Y-102019857D01*
X142158285Y-102055571D01*
X142229714Y-102091285D01*
X142515428Y-102091285D01*
X142515428Y-101341285D01*
X142265428Y-101341285D01*
X142194000Y-101377000D01*
X142158285Y-101412714D01*
X142122571Y-101484142D01*
X142122571Y-101555571D01*
X142158285Y-101627000D01*
X142194000Y-101662714D01*
X142265428Y-101698428D01*
X142515428Y-101698428D01*
X140979714Y-102377000D02*
X141015428Y-102341285D01*
X141086857Y-102234142D01*
X141122571Y-102162714D01*
X141158285Y-102055571D01*
X141194000Y-101877000D01*
X141194000Y-101734142D01*
X141158285Y-101555571D01*
X141122571Y-101448428D01*
X141086857Y-101377000D01*
X141015428Y-101269857D01*
X140979714Y-101234142D01*
X140694000Y-102091285D02*
X140694000Y-101341285D01*
X140694000Y-101698428D02*
X140265428Y-101698428D01*
X140265428Y-102091285D02*
X140265428Y-101341285D01*
X139908285Y-102091285D02*
X139908285Y-101341285D01*
X139551142Y-102091285D02*
X139551142Y-101341285D01*
X139372571Y-101341285D01*
X139265428Y-101377000D01*
X139194000Y-101448428D01*
X139158285Y-101519857D01*
X139122571Y-101662714D01*
X139122571Y-101769857D01*
X139158285Y-101912714D01*
X139194000Y-101984142D01*
X139265428Y-102055571D01*
X139372571Y-102091285D01*
X139551142Y-102091285D01*
X138872571Y-102377000D02*
X138836857Y-102341285D01*
X138765428Y-102234142D01*
X138729714Y-102162714D01*
X138694000Y-102055571D01*
X138658285Y-101877000D01*
X138658285Y-101734142D01*
X138694000Y-101555571D01*
X138729714Y-101448428D01*
X138765428Y-101377000D01*
X138836857Y-101269857D01*
X138872571Y-101234142D01*
X137836857Y-101591285D02*
X137551142Y-101591285D01*
X137729714Y-101341285D02*
X137729714Y-101984142D01*
X137694000Y-102055571D01*
X137622571Y-102091285D01*
X137551142Y-102091285D01*
X137194000Y-102091285D02*
X137265428Y-102055571D01*
X137301142Y-102019857D01*
X137336857Y-101948428D01*
X137336857Y-101734142D01*
X137301142Y-101662714D01*
X137265428Y-101627000D01*
X137194000Y-101591285D01*
X137086857Y-101591285D01*
X137015428Y-101627000D01*
X136979714Y-101662714D01*
X136944000Y-101734142D01*
X136944000Y-101948428D01*
X136979714Y-102019857D01*
X137015428Y-102055571D01*
X137086857Y-102091285D01*
X137194000Y-102091285D01*
X144015428Y-103336285D02*
X144015428Y-102586285D01*
X143729714Y-102586285D01*
X143658285Y-102622000D01*
X143622571Y-102657714D01*
X143586857Y-102729142D01*
X143586857Y-102836285D01*
X143622571Y-102907714D01*
X143658285Y-102943428D01*
X143729714Y-102979142D01*
X144015428Y-102979142D01*
X143301142Y-103300571D02*
X143194000Y-103336285D01*
X143015428Y-103336285D01*
X142944000Y-103300571D01*
X142908285Y-103264857D01*
X142872571Y-103193428D01*
X142872571Y-103122000D01*
X142908285Y-103050571D01*
X142944000Y-103014857D01*
X143015428Y-102979142D01*
X143158285Y-102943428D01*
X143229714Y-102907714D01*
X143265428Y-102872000D01*
X143301142Y-102800571D01*
X143301142Y-102729142D01*
X143265428Y-102657714D01*
X143229714Y-102622000D01*
X143158285Y-102586285D01*
X142979714Y-102586285D01*
X142872571Y-102622000D01*
X142015428Y-102550571D02*
X142658285Y-103514857D01*
X141801142Y-102657714D02*
X141765428Y-102622000D01*
X141694000Y-102586285D01*
X141515428Y-102586285D01*
X141444000Y-102622000D01*
X141408285Y-102657714D01*
X141372571Y-102729142D01*
X141372571Y-102800571D01*
X141408285Y-102907714D01*
X141836857Y-103336285D01*
X141372571Y-103336285D01*
X140372571Y-103336285D02*
X140444000Y-103300571D01*
X140479714Y-103264857D01*
X140515428Y-103193428D01*
X140515428Y-102979142D01*
X140479714Y-102907714D01*
X140444000Y-102872000D01*
X140372571Y-102836285D01*
X140265428Y-102836285D01*
X140194000Y-102872000D01*
X140158285Y-102907714D01*
X140122571Y-102979142D01*
X140122571Y-103193428D01*
X140158285Y-103264857D01*
X140194000Y-103300571D01*
X140265428Y-103336285D01*
X140372571Y-103336285D01*
X139801142Y-103336285D02*
X139801142Y-102836285D01*
X139801142Y-102979142D02*
X139765428Y-102907714D01*
X139729714Y-102872000D01*
X139658285Y-102836285D01*
X139586857Y-102836285D01*
X138801142Y-103122000D02*
X138444000Y-103122000D01*
X138872571Y-103336285D02*
X138622571Y-102586285D01*
X138372571Y-103336285D01*
X138229714Y-102586285D02*
X137801142Y-102586285D01*
X138015428Y-103336285D02*
X138015428Y-102586285D01*
X136979714Y-103336285D02*
X136979714Y-102586285D01*
X136551142Y-103336285D02*
X136872571Y-102907714D01*
X136551142Y-102586285D02*
X136979714Y-103014857D01*
X135979714Y-102943428D02*
X135872571Y-102979142D01*
X135836857Y-103014857D01*
X135801142Y-103086285D01*
X135801142Y-103193428D01*
X135836857Y-103264857D01*
X135872571Y-103300571D01*
X135944000Y-103336285D01*
X136229714Y-103336285D01*
X136229714Y-102586285D01*
X135979714Y-102586285D01*
X135908285Y-102622000D01*
X135872571Y-102657714D01*
X135836857Y-102729142D01*
X135836857Y-102800571D01*
X135872571Y-102872000D01*
X135908285Y-102907714D01*
X135979714Y-102943428D01*
X136229714Y-102943428D01*
X134301142Y-103336285D02*
X134336857Y-103336285D01*
X134408285Y-103300571D01*
X134515428Y-103193428D01*
X134694000Y-102979142D01*
X134765428Y-102872000D01*
X134801142Y-102764857D01*
X134801142Y-102693428D01*
X134765428Y-102622000D01*
X134694000Y-102586285D01*
X134658285Y-102586285D01*
X134586857Y-102622000D01*
X134551142Y-102693428D01*
X134551142Y-102729142D01*
X134586857Y-102800571D01*
X134622571Y-102836285D01*
X134836857Y-102979142D01*
X134872571Y-103014857D01*
X134908285Y-103086285D01*
X134908285Y-103193428D01*
X134872571Y-103264857D01*
X134836857Y-103300571D01*
X134765428Y-103336285D01*
X134658285Y-103336285D01*
X134586857Y-103300571D01*
X134551142Y-103264857D01*
X134444000Y-103122000D01*
X134408285Y-103014857D01*
X134408285Y-102943428D01*
X144015428Y-104581285D02*
X144015428Y-103831285D01*
X143729714Y-103831285D01*
X143658285Y-103867000D01*
X143622571Y-103902714D01*
X143586857Y-103974142D01*
X143586857Y-104081285D01*
X143622571Y-104152714D01*
X143658285Y-104188428D01*
X143729714Y-104224142D01*
X144015428Y-104224142D01*
X143301142Y-104545571D02*
X143194000Y-104581285D01*
X143015428Y-104581285D01*
X142944000Y-104545571D01*
X142908285Y-104509857D01*
X142872571Y-104438428D01*
X142872571Y-104367000D01*
X142908285Y-104295571D01*
X142944000Y-104259857D01*
X143015428Y-104224142D01*
X143158285Y-104188428D01*
X143229714Y-104152714D01*
X143265428Y-104117000D01*
X143301142Y-104045571D01*
X143301142Y-103974142D01*
X143265428Y-103902714D01*
X143229714Y-103867000D01*
X143158285Y-103831285D01*
X142979714Y-103831285D01*
X142872571Y-103867000D01*
X142015428Y-103795571D02*
X142658285Y-104759857D01*
X141801142Y-103902714D02*
X141765428Y-103867000D01*
X141694000Y-103831285D01*
X141515428Y-103831285D01*
X141444000Y-103867000D01*
X141408285Y-103902714D01*
X141372571Y-103974142D01*
X141372571Y-104045571D01*
X141408285Y-104152714D01*
X141836857Y-104581285D01*
X141372571Y-104581285D01*
X140372571Y-104581285D02*
X140444000Y-104545571D01*
X140479714Y-104509857D01*
X140515428Y-104438428D01*
X140515428Y-104224142D01*
X140479714Y-104152714D01*
X140444000Y-104117000D01*
X140372571Y-104081285D01*
X140265428Y-104081285D01*
X140194000Y-104117000D01*
X140158285Y-104152714D01*
X140122571Y-104224142D01*
X140122571Y-104438428D01*
X140158285Y-104509857D01*
X140194000Y-104545571D01*
X140265428Y-104581285D01*
X140372571Y-104581285D01*
X139801142Y-104581285D02*
X139801142Y-104081285D01*
X139801142Y-104224142D02*
X139765428Y-104152714D01*
X139729714Y-104117000D01*
X139658285Y-104081285D01*
X139586857Y-104081285D01*
X138801142Y-104545571D02*
X138694000Y-104581285D01*
X138515428Y-104581285D01*
X138444000Y-104545571D01*
X138408285Y-104509857D01*
X138372571Y-104438428D01*
X138372571Y-104367000D01*
X138408285Y-104295571D01*
X138444000Y-104259857D01*
X138515428Y-104224142D01*
X138658285Y-104188428D01*
X138729714Y-104152714D01*
X138765428Y-104117000D01*
X138801142Y-104045571D01*
X138801142Y-103974142D01*
X138765428Y-103902714D01*
X138729714Y-103867000D01*
X138658285Y-103831285D01*
X138479714Y-103831285D01*
X138372571Y-103867000D01*
X137765428Y-104545571D02*
X137836857Y-104581285D01*
X137979714Y-104581285D01*
X138051142Y-104545571D01*
X138086857Y-104474142D01*
X138086857Y-104188428D01*
X138051142Y-104117000D01*
X137979714Y-104081285D01*
X137836857Y-104081285D01*
X137765428Y-104117000D01*
X137729714Y-104188428D01*
X137729714Y-104259857D01*
X138086857Y-104331285D01*
X137408285Y-104581285D02*
X137408285Y-104081285D01*
X137408285Y-104224142D02*
X137372571Y-104152714D01*
X137336857Y-104117000D01*
X137265428Y-104081285D01*
X137194000Y-104081285D01*
X136944000Y-104581285D02*
X136944000Y-104081285D01*
X136944000Y-103831285D02*
X136979714Y-103867000D01*
X136944000Y-103902714D01*
X136908285Y-103867000D01*
X136944000Y-103831285D01*
X136944000Y-103902714D01*
X136265428Y-104581285D02*
X136265428Y-104188428D01*
X136301142Y-104117000D01*
X136372571Y-104081285D01*
X136515428Y-104081285D01*
X136586857Y-104117000D01*
X136265428Y-104545571D02*
X136336857Y-104581285D01*
X136515428Y-104581285D01*
X136586857Y-104545571D01*
X136622571Y-104474142D01*
X136622571Y-104402714D01*
X136586857Y-104331285D01*
X136515428Y-104295571D01*
X136336857Y-104295571D01*
X136265428Y-104259857D01*
X135801142Y-104581285D02*
X135872571Y-104545571D01*
X135908285Y-104474142D01*
X135908285Y-103831285D01*
X134944000Y-104581285D02*
X134944000Y-103831285D01*
X134694000Y-104367000D01*
X134444000Y-103831285D01*
X134444000Y-104581285D01*
X134122571Y-104545571D02*
X134015428Y-104581285D01*
X133836857Y-104581285D01*
X133765428Y-104545571D01*
X133729714Y-104509857D01*
X133694000Y-104438428D01*
X133694000Y-104367000D01*
X133729714Y-104295571D01*
X133765428Y-104259857D01*
X133836857Y-104224142D01*
X133979714Y-104188428D01*
X134051142Y-104152714D01*
X134086857Y-104117000D01*
X134122571Y-104045571D01*
X134122571Y-103974142D01*
X134086857Y-103902714D01*
X134051142Y-103867000D01*
X133979714Y-103831285D01*
X133801142Y-103831285D01*
X133694000Y-103867000D01*
D13*
X142944047Y-98482476D02*
X142944047Y-97232476D01*
X142944047Y-97827714D02*
X142229761Y-97827714D01*
X142229761Y-98482476D02*
X142229761Y-97232476D01*
X141634523Y-98482476D02*
X141634523Y-97232476D01*
X141039285Y-98482476D02*
X141039285Y-97232476D01*
X140741666Y-97232476D01*
X140563095Y-97292000D01*
X140444047Y-97411047D01*
X140384523Y-97530095D01*
X140325000Y-97768190D01*
X140325000Y-97946761D01*
X140384523Y-98184857D01*
X140444047Y-98303904D01*
X140563095Y-98422952D01*
X140741666Y-98482476D01*
X141039285Y-98482476D01*
X139789285Y-98482476D02*
X139789285Y-97649142D01*
X139789285Y-97768190D02*
X139729761Y-97708666D01*
X139610714Y-97649142D01*
X139432142Y-97649142D01*
X139313095Y-97708666D01*
X139253571Y-97827714D01*
X139253571Y-98482476D01*
X139253571Y-97827714D02*
X139194047Y-97708666D01*
X139075000Y-97649142D01*
X138896428Y-97649142D01*
X138777380Y-97708666D01*
X138717857Y-97827714D01*
X138717857Y-98482476D01*
X137586904Y-98482476D02*
X137586904Y-97827714D01*
X137646428Y-97708666D01*
X137765476Y-97649142D01*
X138003571Y-97649142D01*
X138122619Y-97708666D01*
X137586904Y-98422952D02*
X137705952Y-98482476D01*
X138003571Y-98482476D01*
X138122619Y-98422952D01*
X138182142Y-98303904D01*
X138182142Y-98184857D01*
X138122619Y-98065809D01*
X138003571Y-98006285D01*
X137705952Y-98006285D01*
X137586904Y-97946761D01*
X136991666Y-97649142D02*
X136991666Y-98482476D01*
X136991666Y-97768190D02*
X136932142Y-97708666D01*
X136813095Y-97649142D01*
X136634523Y-97649142D01*
X136515476Y-97708666D01*
X136455952Y-97827714D01*
X136455952Y-98482476D01*
D12*
X150495000Y-100330000D02*
X144907000Y-100330000D01*
X150495000Y-110426500D02*
X144907000Y-110426500D01*
X144907000Y-105410000D02*
X144907000Y-110426500D01*
X144907000Y-100330000D02*
X144907000Y-105410000D01*
X150495000Y-105410000D02*
X144907000Y-105410000D01*
X144183023Y-109328000D02*
X144259214Y-109289904D01*
X144373500Y-109289904D01*
X144487785Y-109328000D01*
X144563976Y-109404190D01*
X144602071Y-109480380D01*
X144640166Y-109632761D01*
X144640166Y-109747047D01*
X144602071Y-109899428D01*
X144563976Y-109975619D01*
X144487785Y-110051809D01*
X144373500Y-110089904D01*
X144297309Y-110089904D01*
X144183023Y-110051809D01*
X144144928Y-110013714D01*
X144144928Y-109747047D01*
X144297309Y-109747047D01*
X143802071Y-110089904D02*
X143802071Y-109289904D01*
X143344928Y-110089904D01*
X143344928Y-109289904D01*
X142963976Y-110089904D02*
X142963976Y-109289904D01*
X142773500Y-109289904D01*
X142659214Y-109328000D01*
X142583023Y-109404190D01*
X142544928Y-109480380D01*
X142506833Y-109632761D01*
X142506833Y-109747047D01*
X142544928Y-109899428D01*
X142583023Y-109975619D01*
X142659214Y-110051809D01*
X142773500Y-110089904D01*
X142963976Y-110089904D01*
X145428500Y-106000000D02*
X145428500Y-106233333D01*
X145795166Y-106333333D02*
X145795166Y-106000000D01*
X145095166Y-106000000D01*
X145095166Y-106333333D01*
X145795166Y-106566666D02*
X145328500Y-106933333D01*
X145328500Y-106566666D02*
X145795166Y-106933333D01*
X145328500Y-107100000D02*
X145328500Y-107366666D01*
X145095166Y-107200000D02*
X145695166Y-107200000D01*
X145761833Y-107233333D01*
X145795166Y-107300000D01*
X145795166Y-107366666D01*
X145795166Y-107600000D02*
X145328500Y-107600000D01*
X145461833Y-107600000D02*
X145395166Y-107633333D01*
X145361833Y-107666666D01*
X145328500Y-107733333D01*
X145328500Y-107800000D01*
X145795166Y-108333333D02*
X145428500Y-108333333D01*
X145361833Y-108300000D01*
X145328500Y-108233333D01*
X145328500Y-108100000D01*
X145361833Y-108033333D01*
X145761833Y-108333333D02*
X145795166Y-108266666D01*
X145795166Y-108100000D01*
X145761833Y-108033333D01*
X145695166Y-108000000D01*
X145628500Y-108000000D01*
X145561833Y-108033333D01*
X145528500Y-108100000D01*
X145528500Y-108266666D01*
X145495166Y-108333333D01*
X145528500Y-108666666D02*
X145528500Y-109200000D01*
X145428500Y-109766666D02*
X145461833Y-109866666D01*
X145495166Y-109900000D01*
X145561833Y-109933333D01*
X145661833Y-109933333D01*
X145728500Y-109900000D01*
X145761833Y-109866666D01*
X145795166Y-109800000D01*
X145795166Y-109533333D01*
X145095166Y-109533333D01*
X145095166Y-109766666D01*
X145128500Y-109833333D01*
X145161833Y-109866666D01*
X145228500Y-109900000D01*
X145295166Y-109900000D01*
X145361833Y-109866666D01*
X145395166Y-109833333D01*
X145428500Y-109766666D01*
X145428500Y-109533333D01*
X145795166Y-101420000D02*
X145095166Y-101420000D01*
X145595166Y-101653333D01*
X145095166Y-101886666D01*
X145795166Y-101886666D01*
X145795166Y-102320000D02*
X145761833Y-102253333D01*
X145728500Y-102220000D01*
X145661833Y-102186666D01*
X145461833Y-102186666D01*
X145395166Y-102220000D01*
X145361833Y-102253333D01*
X145328500Y-102320000D01*
X145328500Y-102420000D01*
X145361833Y-102486666D01*
X145395166Y-102520000D01*
X145461833Y-102553333D01*
X145661833Y-102553333D01*
X145728500Y-102520000D01*
X145761833Y-102486666D01*
X145795166Y-102420000D01*
X145795166Y-102320000D01*
X145328500Y-103153333D02*
X145795166Y-103153333D01*
X145328500Y-102853333D02*
X145695166Y-102853333D01*
X145761833Y-102886666D01*
X145795166Y-102953333D01*
X145795166Y-103053333D01*
X145761833Y-103120000D01*
X145728500Y-103153333D01*
X145761833Y-103453333D02*
X145795166Y-103520000D01*
X145795166Y-103653333D01*
X145761833Y-103720000D01*
X145695166Y-103753333D01*
X145661833Y-103753333D01*
X145595166Y-103720000D01*
X145561833Y-103653333D01*
X145561833Y-103553333D01*
X145528500Y-103486666D01*
X145461833Y-103453333D01*
X145428500Y-103453333D01*
X145361833Y-103486666D01*
X145328500Y-103553333D01*
X145328500Y-103653333D01*
X145361833Y-103720000D01*
X145761833Y-104320000D02*
X145795166Y-104253333D01*
X145795166Y-104120000D01*
X145761833Y-104053333D01*
X145695166Y-104020000D01*
X145428500Y-104020000D01*
X145361833Y-104053333D01*
X145328500Y-104120000D01*
X145328500Y-104253333D01*
X145361833Y-104320000D01*
X145428500Y-104353333D01*
X145495166Y-104353333D01*
X145561833Y-104020000D01*
X146983404Y-108362857D02*
X146183404Y-108362857D01*
X146183404Y-108553333D01*
X146221500Y-108667619D01*
X146297690Y-108743809D01*
X146373880Y-108781904D01*
X146526261Y-108820000D01*
X146640547Y-108820000D01*
X146792928Y-108781904D01*
X146869119Y-108743809D01*
X146945309Y-108667619D01*
X146983404Y-108553333D01*
X146983404Y-108362857D01*
X146754833Y-109124761D02*
X146754833Y-109505714D01*
X146983404Y-109048571D02*
X146183404Y-109315238D01*
X146983404Y-109581904D01*
X146183404Y-109734285D02*
X146183404Y-110191428D01*
X146983404Y-109962857D02*
X146183404Y-109962857D01*
X146907214Y-106203809D02*
X146945309Y-106165714D01*
X146983404Y-106051428D01*
X146983404Y-105975238D01*
X146945309Y-105860952D01*
X146869119Y-105784761D01*
X146792928Y-105746666D01*
X146640547Y-105708571D01*
X146526261Y-105708571D01*
X146373880Y-105746666D01*
X146297690Y-105784761D01*
X146221500Y-105860952D01*
X146183404Y-105975238D01*
X146183404Y-106051428D01*
X146221500Y-106165714D01*
X146259595Y-106203809D01*
X146983404Y-106927619D02*
X146983404Y-106546666D01*
X146183404Y-106546666D01*
X146983404Y-107194285D02*
X146183404Y-107194285D01*
X146983404Y-107651428D02*
X146526261Y-107308571D01*
X146183404Y-107651428D02*
X146640547Y-107194285D01*
X146983404Y-95923166D02*
X146602452Y-95656500D01*
X146983404Y-95466023D02*
X146183404Y-95466023D01*
X146183404Y-95770785D01*
X146221500Y-95846976D01*
X146259595Y-95885071D01*
X146335785Y-95923166D01*
X146450071Y-95923166D01*
X146526261Y-95885071D01*
X146564357Y-95846976D01*
X146602452Y-95770785D01*
X146602452Y-95466023D01*
X146183404Y-96189833D02*
X146983404Y-96723166D01*
X146183404Y-96723166D02*
X146983404Y-96189833D01*
X146983404Y-97027928D02*
X146183404Y-97027928D01*
X146183404Y-97218404D01*
X146221500Y-97332690D01*
X146297690Y-97408880D01*
X146373880Y-97446976D01*
X146526261Y-97485071D01*
X146640547Y-97485071D01*
X146792928Y-97446976D01*
X146869119Y-97408880D01*
X146945309Y-97332690D01*
X146983404Y-97218404D01*
X146983404Y-97027928D01*
X146907214Y-98558404D02*
X146945309Y-98520309D01*
X146983404Y-98406023D01*
X146983404Y-98329833D01*
X146945309Y-98215547D01*
X146869119Y-98139357D01*
X146792928Y-98101261D01*
X146640547Y-98063166D01*
X146526261Y-98063166D01*
X146373880Y-98101261D01*
X146297690Y-98139357D01*
X146221500Y-98215547D01*
X146183404Y-98329833D01*
X146183404Y-98406023D01*
X146221500Y-98520309D01*
X146259595Y-98558404D01*
X146183404Y-98786976D02*
X146183404Y-99244119D01*
X146983404Y-99015547D02*
X146183404Y-99015547D01*
X146945309Y-99472690D02*
X146983404Y-99586976D01*
X146983404Y-99777452D01*
X146945309Y-99853642D01*
X146907214Y-99891738D01*
X146831023Y-99929833D01*
X146754833Y-99929833D01*
X146678642Y-99891738D01*
X146640547Y-99853642D01*
X146602452Y-99777452D01*
X146564357Y-99625071D01*
X146526261Y-99548880D01*
X146488166Y-99510785D01*
X146411976Y-99472690D01*
X146335785Y-99472690D01*
X146259595Y-99510785D01*
X146221500Y-99548880D01*
X146183404Y-99625071D01*
X146183404Y-99815547D01*
X146221500Y-99929833D01*
X146488142Y-92887928D02*
X146488142Y-93497452D01*
X146792904Y-93192690D02*
X146183380Y-93192690D01*
X145992904Y-94259357D02*
X145992904Y-93878404D01*
X146373857Y-93840309D01*
X146335761Y-93878404D01*
X146297666Y-93954595D01*
X146297666Y-94145071D01*
X146335761Y-94221261D01*
X146373857Y-94259357D01*
X146450047Y-94297452D01*
X146640523Y-94297452D01*
X146716714Y-94259357D01*
X146754809Y-94221261D01*
X146792904Y-94145071D01*
X146792904Y-93954595D01*
X146754809Y-93878404D01*
X146716714Y-93840309D01*
X145992904Y-94526023D02*
X146792904Y-94792690D01*
X145992904Y-95059357D01*
X146907214Y-103663809D02*
X146945309Y-103625714D01*
X146983404Y-103511428D01*
X146983404Y-103435238D01*
X146945309Y-103320952D01*
X146869119Y-103244761D01*
X146792928Y-103206666D01*
X146640547Y-103168571D01*
X146526261Y-103168571D01*
X146373880Y-103206666D01*
X146297690Y-103244761D01*
X146221500Y-103320952D01*
X146183404Y-103435238D01*
X146183404Y-103511428D01*
X146221500Y-103625714D01*
X146259595Y-103663809D01*
X146983404Y-104387619D02*
X146983404Y-104006666D01*
X146183404Y-104006666D01*
X146983404Y-104654285D02*
X146183404Y-104654285D01*
X146983404Y-105111428D02*
X146526261Y-104768571D01*
X146183404Y-105111428D02*
X146640547Y-104654285D01*
X146983404Y-100742857D02*
X146183404Y-100742857D01*
X146183404Y-100933333D01*
X146221500Y-101047619D01*
X146297690Y-101123809D01*
X146373880Y-101161904D01*
X146526261Y-101200000D01*
X146640547Y-101200000D01*
X146792928Y-101161904D01*
X146869119Y-101123809D01*
X146945309Y-101047619D01*
X146983404Y-100933333D01*
X146983404Y-100742857D01*
X146754833Y-101504761D02*
X146754833Y-101885714D01*
X146983404Y-101428571D02*
X146183404Y-101695238D01*
X146983404Y-101961904D01*
X146183404Y-102114285D02*
X146183404Y-102571428D01*
X146983404Y-102342857D02*
X146183404Y-102342857D01*
%TO.C,P1*%
X128299000Y-108960000D02*
X130279000Y-108960000D01*
X130279000Y-94240000D02*
X128299000Y-94240000D01*
X130279000Y-94240000D02*
X130279000Y-108960000D01*
%TO.C,RN2*%
X147129500Y-92773500D02*
X147129500Y-95186500D01*
X147129500Y-95186500D02*
X150558500Y-95186500D01*
X150558500Y-92773500D02*
X150558500Y-95186500D01*
X147129500Y-92773500D02*
X150558500Y-92773500D01*
%TO.C,RN3*%
X141380000Y-107513500D02*
X141380000Y-108513500D01*
X138020000Y-107513500D02*
X138020000Y-108513500D01*
D14*
%TO.C,C1*%
X132985000Y-95875000D02*
X134985000Y-95875000D01*
X132985000Y-94625000D02*
X134985000Y-94625000D01*
%TO.C,R7*%
X151828500Y-96266000D02*
X150939500Y-96266000D01*
X151828500Y-95250000D02*
X150939500Y-95250000D01*
%TO.C,R8*%
X151828500Y-97790000D02*
X150939500Y-97790000D01*
X151828500Y-98806000D02*
X150939500Y-98806000D01*
%TO.C,R9*%
X151828500Y-101346000D02*
X150939500Y-101346000D01*
X151828500Y-100330000D02*
X150939500Y-100330000D01*
%TO.C,R10*%
X151828500Y-102870000D02*
X150939500Y-102870000D01*
X151828500Y-103886000D02*
X150939500Y-103886000D01*
%TO.C,R11*%
X151828500Y-106426000D02*
X150939500Y-106426000D01*
X151828500Y-105410000D02*
X150939500Y-105410000D01*
%TO.C,R12*%
X151828500Y-107950000D02*
X150939500Y-107950000D01*
X151828500Y-108966000D02*
X150939500Y-108966000D01*
%TO.C,RN3*%
D15*
X140183333Y-108330166D02*
X140416666Y-107996833D01*
X140583333Y-108330166D02*
X140583333Y-107630166D01*
X140316666Y-107630166D01*
X140250000Y-107663500D01*
X140216666Y-107696833D01*
X140183333Y-107763500D01*
X140183333Y-107863500D01*
X140216666Y-107930166D01*
X140250000Y-107963500D01*
X140316666Y-107996833D01*
X140583333Y-107996833D01*
X139883333Y-108330166D02*
X139883333Y-107630166D01*
X139483333Y-108330166D01*
X139483333Y-107630166D01*
X139216666Y-107630166D02*
X138783333Y-107630166D01*
X139016666Y-107896833D01*
X138916666Y-107896833D01*
X138850000Y-107930166D01*
X138816666Y-107963500D01*
X138783333Y-108030166D01*
X138783333Y-108196833D01*
X138816666Y-108263500D01*
X138850000Y-108296833D01*
X138916666Y-108330166D01*
X139116666Y-108330166D01*
X139183333Y-108296833D01*
X139216666Y-108263500D01*
%TO.C,C1*%
D14*
X134163571Y-95166666D02*
X134187380Y-95142857D01*
X134211190Y-95071428D01*
X134211190Y-95023809D01*
X134187380Y-94952380D01*
X134139761Y-94904761D01*
X134092142Y-94880952D01*
X133996904Y-94857142D01*
X133925476Y-94857142D01*
X133830238Y-94880952D01*
X133782619Y-94904761D01*
X133735000Y-94952380D01*
X133711190Y-95023809D01*
X133711190Y-95071428D01*
X133735000Y-95142857D01*
X133758809Y-95166666D01*
X134211190Y-95642857D02*
X134211190Y-95357142D01*
X134211190Y-95500000D02*
X133711190Y-95500000D01*
X133782619Y-95452380D01*
X133830238Y-95404761D01*
X133854047Y-95357142D01*
%TO.C,R7*%
X151610190Y-95674666D02*
X151372095Y-95508000D01*
X151610190Y-95388952D02*
X151110190Y-95388952D01*
X151110190Y-95579428D01*
X151134000Y-95627047D01*
X151157809Y-95650857D01*
X151205428Y-95674666D01*
X151276857Y-95674666D01*
X151324476Y-95650857D01*
X151348285Y-95627047D01*
X151372095Y-95579428D01*
X151372095Y-95388952D01*
X151110190Y-95841333D02*
X151110190Y-96174666D01*
X151610190Y-95960380D01*
%TO.C,R8*%
X151610190Y-98214666D02*
X151372095Y-98048000D01*
X151610190Y-97928952D02*
X151110190Y-97928952D01*
X151110190Y-98119428D01*
X151134000Y-98167047D01*
X151157809Y-98190857D01*
X151205428Y-98214666D01*
X151276857Y-98214666D01*
X151324476Y-98190857D01*
X151348285Y-98167047D01*
X151372095Y-98119428D01*
X151372095Y-97928952D01*
X151324476Y-98500380D02*
X151300666Y-98452761D01*
X151276857Y-98428952D01*
X151229238Y-98405142D01*
X151205428Y-98405142D01*
X151157809Y-98428952D01*
X151134000Y-98452761D01*
X151110190Y-98500380D01*
X151110190Y-98595619D01*
X151134000Y-98643238D01*
X151157809Y-98667047D01*
X151205428Y-98690857D01*
X151229238Y-98690857D01*
X151276857Y-98667047D01*
X151300666Y-98643238D01*
X151324476Y-98595619D01*
X151324476Y-98500380D01*
X151348285Y-98452761D01*
X151372095Y-98428952D01*
X151419714Y-98405142D01*
X151514952Y-98405142D01*
X151562571Y-98428952D01*
X151586380Y-98452761D01*
X151610190Y-98500380D01*
X151610190Y-98595619D01*
X151586380Y-98643238D01*
X151562571Y-98667047D01*
X151514952Y-98690857D01*
X151419714Y-98690857D01*
X151372095Y-98667047D01*
X151348285Y-98643238D01*
X151324476Y-98595619D01*
%TO.C,R9*%
X151610190Y-100754666D02*
X151372095Y-100588000D01*
X151610190Y-100468952D02*
X151110190Y-100468952D01*
X151110190Y-100659428D01*
X151134000Y-100707047D01*
X151157809Y-100730857D01*
X151205428Y-100754666D01*
X151276857Y-100754666D01*
X151324476Y-100730857D01*
X151348285Y-100707047D01*
X151372095Y-100659428D01*
X151372095Y-100468952D01*
X151610190Y-100992761D02*
X151610190Y-101088000D01*
X151586380Y-101135619D01*
X151562571Y-101159428D01*
X151491142Y-101207047D01*
X151395904Y-101230857D01*
X151205428Y-101230857D01*
X151157809Y-101207047D01*
X151134000Y-101183238D01*
X151110190Y-101135619D01*
X151110190Y-101040380D01*
X151134000Y-100992761D01*
X151157809Y-100968952D01*
X151205428Y-100945142D01*
X151324476Y-100945142D01*
X151372095Y-100968952D01*
X151395904Y-100992761D01*
X151419714Y-101040380D01*
X151419714Y-101135619D01*
X151395904Y-101183238D01*
X151372095Y-101207047D01*
X151324476Y-101230857D01*
%TO.C,R10*%
X151610190Y-103056571D02*
X151372095Y-102889904D01*
X151610190Y-102770857D02*
X151110190Y-102770857D01*
X151110190Y-102961333D01*
X151134000Y-103008952D01*
X151157809Y-103032761D01*
X151205428Y-103056571D01*
X151276857Y-103056571D01*
X151324476Y-103032761D01*
X151348285Y-103008952D01*
X151372095Y-102961333D01*
X151372095Y-102770857D01*
X151610190Y-103532761D02*
X151610190Y-103247047D01*
X151610190Y-103389904D02*
X151110190Y-103389904D01*
X151181619Y-103342285D01*
X151229238Y-103294666D01*
X151253047Y-103247047D01*
X151110190Y-103842285D02*
X151110190Y-103889904D01*
X151134000Y-103937523D01*
X151157809Y-103961333D01*
X151205428Y-103985142D01*
X151300666Y-104008952D01*
X151419714Y-104008952D01*
X151514952Y-103985142D01*
X151562571Y-103961333D01*
X151586380Y-103937523D01*
X151610190Y-103889904D01*
X151610190Y-103842285D01*
X151586380Y-103794666D01*
X151562571Y-103770857D01*
X151514952Y-103747047D01*
X151419714Y-103723238D01*
X151300666Y-103723238D01*
X151205428Y-103747047D01*
X151157809Y-103770857D01*
X151134000Y-103794666D01*
X151110190Y-103842285D01*
%TO.C,R11*%
X151610190Y-105596571D02*
X151372095Y-105429904D01*
X151610190Y-105310857D02*
X151110190Y-105310857D01*
X151110190Y-105501333D01*
X151134000Y-105548952D01*
X151157809Y-105572761D01*
X151205428Y-105596571D01*
X151276857Y-105596571D01*
X151324476Y-105572761D01*
X151348285Y-105548952D01*
X151372095Y-105501333D01*
X151372095Y-105310857D01*
X151610190Y-106072761D02*
X151610190Y-105787047D01*
X151610190Y-105929904D02*
X151110190Y-105929904D01*
X151181619Y-105882285D01*
X151229238Y-105834666D01*
X151253047Y-105787047D01*
X151610190Y-106548952D02*
X151610190Y-106263238D01*
X151610190Y-106406095D02*
X151110190Y-106406095D01*
X151181619Y-106358476D01*
X151229238Y-106310857D01*
X151253047Y-106263238D01*
%TO.C,R12*%
X151610190Y-108136571D02*
X151372095Y-107969904D01*
X151610190Y-107850857D02*
X151110190Y-107850857D01*
X151110190Y-108041333D01*
X151134000Y-108088952D01*
X151157809Y-108112761D01*
X151205428Y-108136571D01*
X151276857Y-108136571D01*
X151324476Y-108112761D01*
X151348285Y-108088952D01*
X151372095Y-108041333D01*
X151372095Y-107850857D01*
X151610190Y-108612761D02*
X151610190Y-108327047D01*
X151610190Y-108469904D02*
X151110190Y-108469904D01*
X151181619Y-108422285D01*
X151229238Y-108374666D01*
X151253047Y-108327047D01*
X151157809Y-108803238D02*
X151134000Y-108827047D01*
X151110190Y-108874666D01*
X151110190Y-108993714D01*
X151134000Y-109041333D01*
X151157809Y-109065142D01*
X151205428Y-109088952D01*
X151253047Y-109088952D01*
X151324476Y-109065142D01*
X151610190Y-108779428D01*
X151610190Y-109088952D01*
%TD*%
M02*
