%TF.GenerationSoftware,KiCad,Pcbnew,(5.1.9)-1*%
%TF.CreationDate,2022-11-25T13:08:51-06:00*%
%TF.ProjectId,pcb,7063622e-6b69-4636-9164-5f7063625858,rev?*%
%TF.SameCoordinates,Original*%
%TF.FileFunction,Soldermask,Bot*%
%TF.FilePolarity,Negative*%
%FSLAX46Y46*%
G04 Gerber Fmt 4.6, Leading zero omitted, Abs format (unit mm)*
G04 Created by KiCad (PCBNEW (5.1.9)-1) date 2022-11-25 13:08:51*
%MOMM*%
%LPD*%
G01*
G04 APERTURE LIST*
%ADD10C,0.100000*%
%ADD11C,0.600000*%
%ADD12R,3.500000X2.500000*%
%ADD13R,0.500000X0.800000*%
%ADD14R,0.400000X0.800000*%
%ADD15R,1.000000X1.250000*%
G04 APERTURE END LIST*
D10*
G36*
X129159000Y-94869000D02*
G01*
X124523500Y-94869000D01*
X124523500Y-92710000D01*
X129159000Y-92710000D01*
X129159000Y-94869000D01*
G37*
X129159000Y-94869000D02*
X124523500Y-94869000D01*
X124523500Y-92710000D01*
X129159000Y-92710000D01*
X129159000Y-94869000D01*
G36*
X129159000Y-110490000D02*
G01*
X124523500Y-110490000D01*
X124523500Y-108331000D01*
X129159000Y-108331000D01*
X129159000Y-110490000D01*
G37*
X129159000Y-110490000D02*
X124523500Y-110490000D01*
X124523500Y-108331000D01*
X129159000Y-108331000D01*
X129159000Y-110490000D01*
D11*
%TO.C,SW1*%
X134073000Y-109537500D03*
X132373000Y-109537500D03*
%TD*%
%TO.C,P1*%
G36*
G01*
X129623600Y-97200000D02*
X133094400Y-97200000D01*
G75*
G02*
X133359000Y-97464600I0J-264600D01*
G01*
X133359000Y-98735400D01*
G75*
G02*
X133094400Y-99000000I-264600J0D01*
G01*
X129623600Y-99000000D01*
G75*
G02*
X129359000Y-98735400I0J264600D01*
G01*
X129359000Y-97464600D01*
G75*
G02*
X129623600Y-97200000I264600J0D01*
G01*
G37*
G36*
G01*
X129594200Y-99800000D02*
X133123800Y-99800000D01*
G75*
G02*
X133359000Y-100035200I0J-235200D01*
G01*
X133359000Y-101164800D01*
G75*
G02*
X133123800Y-101400000I-235200J0D01*
G01*
X129594200Y-101400000D01*
G75*
G02*
X129359000Y-101164800I0J235200D01*
G01*
X129359000Y-100035200D01*
G75*
G02*
X129594200Y-99800000I235200J0D01*
G01*
G37*
G36*
G01*
X129594200Y-101800000D02*
X133123800Y-101800000D01*
G75*
G02*
X133359000Y-102035200I0J-235200D01*
G01*
X133359000Y-103164800D01*
G75*
G02*
X133123800Y-103400000I-235200J0D01*
G01*
X129594200Y-103400000D01*
G75*
G02*
X129359000Y-103164800I0J235200D01*
G01*
X129359000Y-102035200D01*
G75*
G02*
X129594200Y-101800000I235200J0D01*
G01*
G37*
G36*
G01*
X129623600Y-104200000D02*
X133094400Y-104200000D01*
G75*
G02*
X133359000Y-104464600I0J-264600D01*
G01*
X133359000Y-105735400D01*
G75*
G02*
X133094400Y-106000000I-264600J0D01*
G01*
X129623600Y-106000000D01*
G75*
G02*
X129359000Y-105735400I0J264600D01*
G01*
X129359000Y-104464600D01*
G75*
G02*
X129623600Y-104200000I264600J0D01*
G01*
G37*
%TD*%
D12*
%TO.C,P2*%
X126449000Y-108170000D03*
X126449000Y-95030000D03*
%TD*%
%TO.C,J2*%
G36*
G01*
X145613000Y-96631000D02*
X144201000Y-96631000D01*
G75*
G02*
X143907000Y-96337000I0J294000D01*
G01*
X143907000Y-94925000D01*
G75*
G02*
X144201000Y-94631000I294000J0D01*
G01*
X145613000Y-94631000D01*
G75*
G02*
X145907000Y-94925000I0J-294000D01*
G01*
X145907000Y-96337000D01*
G75*
G02*
X145613000Y-96631000I-294000J0D01*
G01*
G37*
%TD*%
%TO.C,J1*%
G36*
G01*
X142637000Y-108656000D02*
X142637000Y-107244000D01*
G75*
G02*
X142931000Y-106950000I294000J0D01*
G01*
X144343000Y-106950000D01*
G75*
G02*
X144637000Y-107244000I0J-294000D01*
G01*
X144637000Y-108656000D01*
G75*
G02*
X144343000Y-108950000I-294000J0D01*
G01*
X142931000Y-108950000D01*
G75*
G02*
X142637000Y-108656000I0J294000D01*
G01*
G37*
%TD*%
%TO.C,RN2*%
G36*
G01*
X147623300Y-93030000D02*
X150064700Y-93030000D01*
G75*
G02*
X150344000Y-93309300I0J-279300D01*
G01*
X150344000Y-94650700D01*
G75*
G02*
X150064700Y-94930000I-279300J0D01*
G01*
X147623300Y-94930000D01*
G75*
G02*
X147344000Y-94650700I0J279300D01*
G01*
X147344000Y-93309300D01*
G75*
G02*
X147623300Y-93030000I279300J0D01*
G01*
G37*
G36*
G01*
X147623300Y-95570000D02*
X150064700Y-95570000D01*
G75*
G02*
X150344000Y-95849300I0J-279300D01*
G01*
X150344000Y-97190700D01*
G75*
G02*
X150064700Y-97470000I-279300J0D01*
G01*
X147623300Y-97470000D01*
G75*
G02*
X147344000Y-97190700I0J279300D01*
G01*
X147344000Y-95849300D01*
G75*
G02*
X147623300Y-95570000I279300J0D01*
G01*
G37*
G36*
G01*
X147623300Y-98110000D02*
X150064700Y-98110000D01*
G75*
G02*
X150344000Y-98389300I0J-279300D01*
G01*
X150344000Y-99730700D01*
G75*
G02*
X150064700Y-100010000I-279300J0D01*
G01*
X147623300Y-100010000D01*
G75*
G02*
X147344000Y-99730700I0J279300D01*
G01*
X147344000Y-98389300D01*
G75*
G02*
X147623300Y-98110000I279300J0D01*
G01*
G37*
G36*
G01*
X147623300Y-100650000D02*
X150064700Y-100650000D01*
G75*
G02*
X150344000Y-100929300I0J-279300D01*
G01*
X150344000Y-102270700D01*
G75*
G02*
X150064700Y-102550000I-279300J0D01*
G01*
X147623300Y-102550000D01*
G75*
G02*
X147344000Y-102270700I0J279300D01*
G01*
X147344000Y-100929300D01*
G75*
G02*
X147623300Y-100650000I279300J0D01*
G01*
G37*
G36*
G01*
X147623300Y-103190000D02*
X150064700Y-103190000D01*
G75*
G02*
X150344000Y-103469300I0J-279300D01*
G01*
X150344000Y-104810700D01*
G75*
G02*
X150064700Y-105090000I-279300J0D01*
G01*
X147623300Y-105090000D01*
G75*
G02*
X147344000Y-104810700I0J279300D01*
G01*
X147344000Y-103469300D01*
G75*
G02*
X147623300Y-103190000I279300J0D01*
G01*
G37*
G36*
G01*
X147623300Y-105730000D02*
X150064700Y-105730000D01*
G75*
G02*
X150344000Y-106009300I0J-279300D01*
G01*
X150344000Y-107350700D01*
G75*
G02*
X150064700Y-107630000I-279300J0D01*
G01*
X147623300Y-107630000D01*
G75*
G02*
X147344000Y-107350700I0J279300D01*
G01*
X147344000Y-106009300D01*
G75*
G02*
X147623300Y-105730000I279300J0D01*
G01*
G37*
G36*
G01*
X147623300Y-108270000D02*
X150064700Y-108270000D01*
G75*
G02*
X150344000Y-108549300I0J-279300D01*
G01*
X150344000Y-109890700D01*
G75*
G02*
X150064700Y-110170000I-279300J0D01*
G01*
X147623300Y-110170000D01*
G75*
G02*
X147344000Y-109890700I0J279300D01*
G01*
X147344000Y-108549300D01*
G75*
G02*
X147623300Y-108270000I279300J0D01*
G01*
G37*
%TD*%
D13*
%TO.C,RN3*%
X140900000Y-108913500D03*
D14*
X139300000Y-108913500D03*
X140100000Y-108913500D03*
D13*
X138500000Y-108913500D03*
D14*
X140100000Y-107113500D03*
D13*
X140900000Y-107113500D03*
D14*
X139300000Y-107113500D03*
D13*
X138500000Y-107113500D03*
%TD*%
D15*
%TO.C,C1*%
X132985000Y-95250000D03*
X134985000Y-95250000D03*
%TD*%
%TO.C,R7*%
G36*
G01*
X152609000Y-95483000D02*
X152609000Y-96033000D01*
G75*
G02*
X152409000Y-96233000I-200000J0D01*
G01*
X152009000Y-96233000D01*
G75*
G02*
X151809000Y-96033000I0J200000D01*
G01*
X151809000Y-95483000D01*
G75*
G02*
X152009000Y-95283000I200000J0D01*
G01*
X152409000Y-95283000D01*
G75*
G02*
X152609000Y-95483000I0J-200000D01*
G01*
G37*
G36*
G01*
X150959000Y-95483000D02*
X150959000Y-96033000D01*
G75*
G02*
X150759000Y-96233000I-200000J0D01*
G01*
X150359000Y-96233000D01*
G75*
G02*
X150159000Y-96033000I0J200000D01*
G01*
X150159000Y-95483000D01*
G75*
G02*
X150359000Y-95283000I200000J0D01*
G01*
X150759000Y-95283000D01*
G75*
G02*
X150959000Y-95483000I0J-200000D01*
G01*
G37*
%TD*%
%TO.C,R8*%
G36*
G01*
X150959000Y-98023000D02*
X150959000Y-98573000D01*
G75*
G02*
X150759000Y-98773000I-200000J0D01*
G01*
X150359000Y-98773000D01*
G75*
G02*
X150159000Y-98573000I0J200000D01*
G01*
X150159000Y-98023000D01*
G75*
G02*
X150359000Y-97823000I200000J0D01*
G01*
X150759000Y-97823000D01*
G75*
G02*
X150959000Y-98023000I0J-200000D01*
G01*
G37*
G36*
G01*
X152609000Y-98023000D02*
X152609000Y-98573000D01*
G75*
G02*
X152409000Y-98773000I-200000J0D01*
G01*
X152009000Y-98773000D01*
G75*
G02*
X151809000Y-98573000I0J200000D01*
G01*
X151809000Y-98023000D01*
G75*
G02*
X152009000Y-97823000I200000J0D01*
G01*
X152409000Y-97823000D01*
G75*
G02*
X152609000Y-98023000I0J-200000D01*
G01*
G37*
%TD*%
%TO.C,R9*%
G36*
G01*
X152609000Y-100563000D02*
X152609000Y-101113000D01*
G75*
G02*
X152409000Y-101313000I-200000J0D01*
G01*
X152009000Y-101313000D01*
G75*
G02*
X151809000Y-101113000I0J200000D01*
G01*
X151809000Y-100563000D01*
G75*
G02*
X152009000Y-100363000I200000J0D01*
G01*
X152409000Y-100363000D01*
G75*
G02*
X152609000Y-100563000I0J-200000D01*
G01*
G37*
G36*
G01*
X150959000Y-100563000D02*
X150959000Y-101113000D01*
G75*
G02*
X150759000Y-101313000I-200000J0D01*
G01*
X150359000Y-101313000D01*
G75*
G02*
X150159000Y-101113000I0J200000D01*
G01*
X150159000Y-100563000D01*
G75*
G02*
X150359000Y-100363000I200000J0D01*
G01*
X150759000Y-100363000D01*
G75*
G02*
X150959000Y-100563000I0J-200000D01*
G01*
G37*
%TD*%
%TO.C,R10*%
G36*
G01*
X150959000Y-103103000D02*
X150959000Y-103653000D01*
G75*
G02*
X150759000Y-103853000I-200000J0D01*
G01*
X150359000Y-103853000D01*
G75*
G02*
X150159000Y-103653000I0J200000D01*
G01*
X150159000Y-103103000D01*
G75*
G02*
X150359000Y-102903000I200000J0D01*
G01*
X150759000Y-102903000D01*
G75*
G02*
X150959000Y-103103000I0J-200000D01*
G01*
G37*
G36*
G01*
X152609000Y-103103000D02*
X152609000Y-103653000D01*
G75*
G02*
X152409000Y-103853000I-200000J0D01*
G01*
X152009000Y-103853000D01*
G75*
G02*
X151809000Y-103653000I0J200000D01*
G01*
X151809000Y-103103000D01*
G75*
G02*
X152009000Y-102903000I200000J0D01*
G01*
X152409000Y-102903000D01*
G75*
G02*
X152609000Y-103103000I0J-200000D01*
G01*
G37*
%TD*%
%TO.C,R11*%
G36*
G01*
X152609000Y-105643000D02*
X152609000Y-106193000D01*
G75*
G02*
X152409000Y-106393000I-200000J0D01*
G01*
X152009000Y-106393000D01*
G75*
G02*
X151809000Y-106193000I0J200000D01*
G01*
X151809000Y-105643000D01*
G75*
G02*
X152009000Y-105443000I200000J0D01*
G01*
X152409000Y-105443000D01*
G75*
G02*
X152609000Y-105643000I0J-200000D01*
G01*
G37*
G36*
G01*
X150959000Y-105643000D02*
X150959000Y-106193000D01*
G75*
G02*
X150759000Y-106393000I-200000J0D01*
G01*
X150359000Y-106393000D01*
G75*
G02*
X150159000Y-106193000I0J200000D01*
G01*
X150159000Y-105643000D01*
G75*
G02*
X150359000Y-105443000I200000J0D01*
G01*
X150759000Y-105443000D01*
G75*
G02*
X150959000Y-105643000I0J-200000D01*
G01*
G37*
%TD*%
%TO.C,R12*%
G36*
G01*
X150959000Y-108183000D02*
X150959000Y-108733000D01*
G75*
G02*
X150759000Y-108933000I-200000J0D01*
G01*
X150359000Y-108933000D01*
G75*
G02*
X150159000Y-108733000I0J200000D01*
G01*
X150159000Y-108183000D01*
G75*
G02*
X150359000Y-107983000I200000J0D01*
G01*
X150759000Y-107983000D01*
G75*
G02*
X150959000Y-108183000I0J-200000D01*
G01*
G37*
G36*
G01*
X152609000Y-108183000D02*
X152609000Y-108733000D01*
G75*
G02*
X152409000Y-108933000I-200000J0D01*
G01*
X152009000Y-108933000D01*
G75*
G02*
X151809000Y-108733000I0J200000D01*
G01*
X151809000Y-108183000D01*
G75*
G02*
X152009000Y-107983000I200000J0D01*
G01*
X152409000Y-107983000D01*
G75*
G02*
X152609000Y-108183000I0J-200000D01*
G01*
G37*
%TD*%
M02*
