%TF.GenerationSoftware,KiCad,Pcbnew,(5.1.9)-1*%
%TF.CreationDate,2022-11-25T13:08:51-06:00*%
%TF.ProjectId,pcb,7063622e-6b69-4636-9164-5f7063625858,rev?*%
%TF.SameCoordinates,Original*%
%TF.FileFunction,Paste,Top*%
%TF.FilePolarity,Positive*%
%FSLAX46Y46*%
G04 Gerber Fmt 4.6, Leading zero omitted, Abs format (unit mm)*
G04 Created by KiCad (PCBNEW (5.1.9)-1) date 2022-11-25 13:08:51*
%MOMM*%
%LPD*%
G01*
G04 APERTURE LIST*
%ADD10R,1.150000X1.300000*%
%ADD11R,0.900000X1.200000*%
%ADD12R,1.600000X0.800000*%
%ADD13R,1.000000X1.250000*%
G04 APERTURE END LIST*
D10*
%TO.C,SW1*%
X134898000Y-107987500D03*
X131548000Y-107987500D03*
D11*
X135523000Y-109537500D03*
X130923000Y-109537500D03*
%TD*%
%TO.C,P2*%
G36*
G01*
X129623600Y-97200000D02*
X133094400Y-97200000D01*
G75*
G02*
X133359000Y-97464600I0J-264600D01*
G01*
X133359000Y-98735400D01*
G75*
G02*
X133094400Y-99000000I-264600J0D01*
G01*
X129623600Y-99000000D01*
G75*
G02*
X129359000Y-98735400I0J264600D01*
G01*
X129359000Y-97464600D01*
G75*
G02*
X129623600Y-97200000I264600J0D01*
G01*
G37*
G36*
G01*
X129594200Y-99800000D02*
X133123800Y-99800000D01*
G75*
G02*
X133359000Y-100035200I0J-235200D01*
G01*
X133359000Y-101164800D01*
G75*
G02*
X133123800Y-101400000I-235200J0D01*
G01*
X129594200Y-101400000D01*
G75*
G02*
X129359000Y-101164800I0J235200D01*
G01*
X129359000Y-100035200D01*
G75*
G02*
X129594200Y-99800000I235200J0D01*
G01*
G37*
G36*
G01*
X129594200Y-101800000D02*
X133123800Y-101800000D01*
G75*
G02*
X133359000Y-102035200I0J-235200D01*
G01*
X133359000Y-103164800D01*
G75*
G02*
X133123800Y-103400000I-235200J0D01*
G01*
X129594200Y-103400000D01*
G75*
G02*
X129359000Y-103164800I0J235200D01*
G01*
X129359000Y-102035200D01*
G75*
G02*
X129594200Y-101800000I235200J0D01*
G01*
G37*
G36*
G01*
X129623600Y-104200000D02*
X133094400Y-104200000D01*
G75*
G02*
X133359000Y-104464600I0J-264600D01*
G01*
X133359000Y-105735400D01*
G75*
G02*
X133094400Y-106000000I-264600J0D01*
G01*
X129623600Y-106000000D01*
G75*
G02*
X129359000Y-105735400I0J264600D01*
G01*
X129359000Y-104464600D01*
G75*
G02*
X129623600Y-104200000I264600J0D01*
G01*
G37*
%TD*%
%TO.C,U1*%
G36*
G01*
X134800000Y-101425000D02*
X134800000Y-101275000D01*
G75*
G02*
X134875000Y-101200000I75000J0D01*
G01*
X136200000Y-101200000D01*
G75*
G02*
X136275000Y-101275000I0J-75000D01*
G01*
X136275000Y-101425000D01*
G75*
G02*
X136200000Y-101500000I-75000J0D01*
G01*
X134875000Y-101500000D01*
G75*
G02*
X134800000Y-101425000I0J75000D01*
G01*
G37*
G36*
G01*
X134800000Y-103925000D02*
X134800000Y-103775000D01*
G75*
G02*
X134875000Y-103700000I75000J0D01*
G01*
X136200000Y-103700000D01*
G75*
G02*
X136275000Y-103775000I0J-75000D01*
G01*
X136275000Y-103925000D01*
G75*
G02*
X136200000Y-104000000I-75000J0D01*
G01*
X134875000Y-104000000D01*
G75*
G02*
X134800000Y-103925000I0J75000D01*
G01*
G37*
G36*
G01*
X134800000Y-104425000D02*
X134800000Y-104275000D01*
G75*
G02*
X134875000Y-104200000I75000J0D01*
G01*
X136200000Y-104200000D01*
G75*
G02*
X136275000Y-104275000I0J-75000D01*
G01*
X136275000Y-104425000D01*
G75*
G02*
X136200000Y-104500000I-75000J0D01*
G01*
X134875000Y-104500000D01*
G75*
G02*
X134800000Y-104425000I0J75000D01*
G01*
G37*
G36*
G01*
X136800000Y-106425000D02*
X136800000Y-105100000D01*
G75*
G02*
X136875000Y-105025000I75000J0D01*
G01*
X137025000Y-105025000D01*
G75*
G02*
X137100000Y-105100000I0J-75000D01*
G01*
X137100000Y-106425000D01*
G75*
G02*
X137025000Y-106500000I-75000J0D01*
G01*
X136875000Y-106500000D01*
G75*
G02*
X136800000Y-106425000I0J75000D01*
G01*
G37*
G36*
G01*
X137300000Y-106425000D02*
X137300000Y-105100000D01*
G75*
G02*
X137375000Y-105025000I75000J0D01*
G01*
X137525000Y-105025000D01*
G75*
G02*
X137600000Y-105100000I0J-75000D01*
G01*
X137600000Y-106425000D01*
G75*
G02*
X137525000Y-106500000I-75000J0D01*
G01*
X137375000Y-106500000D01*
G75*
G02*
X137300000Y-106425000I0J75000D01*
G01*
G37*
G36*
G01*
X137800000Y-106425000D02*
X137800000Y-105100000D01*
G75*
G02*
X137875000Y-105025000I75000J0D01*
G01*
X138025000Y-105025000D01*
G75*
G02*
X138100000Y-105100000I0J-75000D01*
G01*
X138100000Y-106425000D01*
G75*
G02*
X138025000Y-106500000I-75000J0D01*
G01*
X137875000Y-106500000D01*
G75*
G02*
X137800000Y-106425000I0J75000D01*
G01*
G37*
G36*
G01*
X138300000Y-106425000D02*
X138300000Y-105100000D01*
G75*
G02*
X138375000Y-105025000I75000J0D01*
G01*
X138525000Y-105025000D01*
G75*
G02*
X138600000Y-105100000I0J-75000D01*
G01*
X138600000Y-106425000D01*
G75*
G02*
X138525000Y-106500000I-75000J0D01*
G01*
X138375000Y-106500000D01*
G75*
G02*
X138300000Y-106425000I0J75000D01*
G01*
G37*
G36*
G01*
X139300000Y-106425000D02*
X139300000Y-105100000D01*
G75*
G02*
X139375000Y-105025000I75000J0D01*
G01*
X139525000Y-105025000D01*
G75*
G02*
X139600000Y-105100000I0J-75000D01*
G01*
X139600000Y-106425000D01*
G75*
G02*
X139525000Y-106500000I-75000J0D01*
G01*
X139375000Y-106500000D01*
G75*
G02*
X139300000Y-106425000I0J75000D01*
G01*
G37*
G36*
G01*
X140300000Y-106425000D02*
X140300000Y-105100000D01*
G75*
G02*
X140375000Y-105025000I75000J0D01*
G01*
X140525000Y-105025000D01*
G75*
G02*
X140600000Y-105100000I0J-75000D01*
G01*
X140600000Y-106425000D01*
G75*
G02*
X140525000Y-106500000I-75000J0D01*
G01*
X140375000Y-106500000D01*
G75*
G02*
X140300000Y-106425000I0J75000D01*
G01*
G37*
G36*
G01*
X143125000Y-104425000D02*
X143125000Y-104275000D01*
G75*
G02*
X143200000Y-104200000I75000J0D01*
G01*
X144525000Y-104200000D01*
G75*
G02*
X144600000Y-104275000I0J-75000D01*
G01*
X144600000Y-104425000D01*
G75*
G02*
X144525000Y-104500000I-75000J0D01*
G01*
X143200000Y-104500000D01*
G75*
G02*
X143125000Y-104425000I0J75000D01*
G01*
G37*
G36*
G01*
X143125000Y-103925000D02*
X143125000Y-103775000D01*
G75*
G02*
X143200000Y-103700000I75000J0D01*
G01*
X144525000Y-103700000D01*
G75*
G02*
X144600000Y-103775000I0J-75000D01*
G01*
X144600000Y-103925000D01*
G75*
G02*
X144525000Y-104000000I-75000J0D01*
G01*
X143200000Y-104000000D01*
G75*
G02*
X143125000Y-103925000I0J75000D01*
G01*
G37*
G36*
G01*
X143125000Y-102425000D02*
X143125000Y-102275000D01*
G75*
G02*
X143200000Y-102200000I75000J0D01*
G01*
X144525000Y-102200000D01*
G75*
G02*
X144600000Y-102275000I0J-75000D01*
G01*
X144600000Y-102425000D01*
G75*
G02*
X144525000Y-102500000I-75000J0D01*
G01*
X143200000Y-102500000D01*
G75*
G02*
X143125000Y-102425000I0J75000D01*
G01*
G37*
G36*
G01*
X143125000Y-101925000D02*
X143125000Y-101775000D01*
G75*
G02*
X143200000Y-101700000I75000J0D01*
G01*
X144525000Y-101700000D01*
G75*
G02*
X144600000Y-101775000I0J-75000D01*
G01*
X144600000Y-101925000D01*
G75*
G02*
X144525000Y-102000000I-75000J0D01*
G01*
X143200000Y-102000000D01*
G75*
G02*
X143125000Y-101925000I0J75000D01*
G01*
G37*
G36*
G01*
X143125000Y-101425000D02*
X143125000Y-101275000D01*
G75*
G02*
X143200000Y-101200000I75000J0D01*
G01*
X144525000Y-101200000D01*
G75*
G02*
X144600000Y-101275000I0J-75000D01*
G01*
X144600000Y-101425000D01*
G75*
G02*
X144525000Y-101500000I-75000J0D01*
G01*
X143200000Y-101500000D01*
G75*
G02*
X143125000Y-101425000I0J75000D01*
G01*
G37*
G36*
G01*
X143125000Y-100925000D02*
X143125000Y-100775000D01*
G75*
G02*
X143200000Y-100700000I75000J0D01*
G01*
X144525000Y-100700000D01*
G75*
G02*
X144600000Y-100775000I0J-75000D01*
G01*
X144600000Y-100925000D01*
G75*
G02*
X144525000Y-101000000I-75000J0D01*
G01*
X143200000Y-101000000D01*
G75*
G02*
X143125000Y-100925000I0J75000D01*
G01*
G37*
G36*
G01*
X143125000Y-100425000D02*
X143125000Y-100275000D01*
G75*
G02*
X143200000Y-100200000I75000J0D01*
G01*
X144525000Y-100200000D01*
G75*
G02*
X144600000Y-100275000I0J-75000D01*
G01*
X144600000Y-100425000D01*
G75*
G02*
X144525000Y-100500000I-75000J0D01*
G01*
X143200000Y-100500000D01*
G75*
G02*
X143125000Y-100425000I0J75000D01*
G01*
G37*
G36*
G01*
X143125000Y-99925000D02*
X143125000Y-99775000D01*
G75*
G02*
X143200000Y-99700000I75000J0D01*
G01*
X144525000Y-99700000D01*
G75*
G02*
X144600000Y-99775000I0J-75000D01*
G01*
X144600000Y-99925000D01*
G75*
G02*
X144525000Y-100000000I-75000J0D01*
G01*
X143200000Y-100000000D01*
G75*
G02*
X143125000Y-99925000I0J75000D01*
G01*
G37*
G36*
G01*
X143125000Y-99425000D02*
X143125000Y-99275000D01*
G75*
G02*
X143200000Y-99200000I75000J0D01*
G01*
X144525000Y-99200000D01*
G75*
G02*
X144600000Y-99275000I0J-75000D01*
G01*
X144600000Y-99425000D01*
G75*
G02*
X144525000Y-99500000I-75000J0D01*
G01*
X143200000Y-99500000D01*
G75*
G02*
X143125000Y-99425000I0J75000D01*
G01*
G37*
G36*
G01*
X143125000Y-98925000D02*
X143125000Y-98775000D01*
G75*
G02*
X143200000Y-98700000I75000J0D01*
G01*
X144525000Y-98700000D01*
G75*
G02*
X144600000Y-98775000I0J-75000D01*
G01*
X144600000Y-98925000D01*
G75*
G02*
X144525000Y-99000000I-75000J0D01*
G01*
X143200000Y-99000000D01*
G75*
G02*
X143125000Y-98925000I0J75000D01*
G01*
G37*
G36*
G01*
X142300000Y-98100000D02*
X142300000Y-96775000D01*
G75*
G02*
X142375000Y-96700000I75000J0D01*
G01*
X142525000Y-96700000D01*
G75*
G02*
X142600000Y-96775000I0J-75000D01*
G01*
X142600000Y-98100000D01*
G75*
G02*
X142525000Y-98175000I-75000J0D01*
G01*
X142375000Y-98175000D01*
G75*
G02*
X142300000Y-98100000I0J75000D01*
G01*
G37*
G36*
G01*
X141300000Y-98100000D02*
X141300000Y-96775000D01*
G75*
G02*
X141375000Y-96700000I75000J0D01*
G01*
X141525000Y-96700000D01*
G75*
G02*
X141600000Y-96775000I0J-75000D01*
G01*
X141600000Y-98100000D01*
G75*
G02*
X141525000Y-98175000I-75000J0D01*
G01*
X141375000Y-98175000D01*
G75*
G02*
X141300000Y-98100000I0J75000D01*
G01*
G37*
G36*
G01*
X140300000Y-98100000D02*
X140300000Y-96775000D01*
G75*
G02*
X140375000Y-96700000I75000J0D01*
G01*
X140525000Y-96700000D01*
G75*
G02*
X140600000Y-96775000I0J-75000D01*
G01*
X140600000Y-98100000D01*
G75*
G02*
X140525000Y-98175000I-75000J0D01*
G01*
X140375000Y-98175000D01*
G75*
G02*
X140300000Y-98100000I0J75000D01*
G01*
G37*
G36*
G01*
X139800000Y-98100000D02*
X139800000Y-96775000D01*
G75*
G02*
X139875000Y-96700000I75000J0D01*
G01*
X140025000Y-96700000D01*
G75*
G02*
X140100000Y-96775000I0J-75000D01*
G01*
X140100000Y-98100000D01*
G75*
G02*
X140025000Y-98175000I-75000J0D01*
G01*
X139875000Y-98175000D01*
G75*
G02*
X139800000Y-98100000I0J75000D01*
G01*
G37*
%TD*%
D12*
%TO.C,D1*%
X137950000Y-108279500D03*
X137950000Y-109779500D03*
X141450000Y-108279500D03*
X141450000Y-109779500D03*
%TD*%
%TO.C,RN1*%
G36*
G01*
X147623300Y-93030000D02*
X150064700Y-93030000D01*
G75*
G02*
X150344000Y-93309300I0J-279300D01*
G01*
X150344000Y-94650700D01*
G75*
G02*
X150064700Y-94930000I-279300J0D01*
G01*
X147623300Y-94930000D01*
G75*
G02*
X147344000Y-94650700I0J279300D01*
G01*
X147344000Y-93309300D01*
G75*
G02*
X147623300Y-93030000I279300J0D01*
G01*
G37*
G36*
G01*
X147623300Y-95570000D02*
X150064700Y-95570000D01*
G75*
G02*
X150344000Y-95849300I0J-279300D01*
G01*
X150344000Y-97190700D01*
G75*
G02*
X150064700Y-97470000I-279300J0D01*
G01*
X147623300Y-97470000D01*
G75*
G02*
X147344000Y-97190700I0J279300D01*
G01*
X147344000Y-95849300D01*
G75*
G02*
X147623300Y-95570000I279300J0D01*
G01*
G37*
G36*
G01*
X147623300Y-98110000D02*
X150064700Y-98110000D01*
G75*
G02*
X150344000Y-98389300I0J-279300D01*
G01*
X150344000Y-99730700D01*
G75*
G02*
X150064700Y-100010000I-279300J0D01*
G01*
X147623300Y-100010000D01*
G75*
G02*
X147344000Y-99730700I0J279300D01*
G01*
X147344000Y-98389300D01*
G75*
G02*
X147623300Y-98110000I279300J0D01*
G01*
G37*
G36*
G01*
X147623300Y-100650000D02*
X150064700Y-100650000D01*
G75*
G02*
X150344000Y-100929300I0J-279300D01*
G01*
X150344000Y-102270700D01*
G75*
G02*
X150064700Y-102550000I-279300J0D01*
G01*
X147623300Y-102550000D01*
G75*
G02*
X147344000Y-102270700I0J279300D01*
G01*
X147344000Y-100929300D01*
G75*
G02*
X147623300Y-100650000I279300J0D01*
G01*
G37*
G36*
G01*
X147623300Y-103190000D02*
X150064700Y-103190000D01*
G75*
G02*
X150344000Y-103469300I0J-279300D01*
G01*
X150344000Y-104810700D01*
G75*
G02*
X150064700Y-105090000I-279300J0D01*
G01*
X147623300Y-105090000D01*
G75*
G02*
X147344000Y-104810700I0J279300D01*
G01*
X147344000Y-103469300D01*
G75*
G02*
X147623300Y-103190000I279300J0D01*
G01*
G37*
G36*
G01*
X147623300Y-105730000D02*
X150064700Y-105730000D01*
G75*
G02*
X150344000Y-106009300I0J-279300D01*
G01*
X150344000Y-107350700D01*
G75*
G02*
X150064700Y-107630000I-279300J0D01*
G01*
X147623300Y-107630000D01*
G75*
G02*
X147344000Y-107350700I0J279300D01*
G01*
X147344000Y-106009300D01*
G75*
G02*
X147623300Y-105730000I279300J0D01*
G01*
G37*
G36*
G01*
X147623300Y-108270000D02*
X150064700Y-108270000D01*
G75*
G02*
X150344000Y-108549300I0J-279300D01*
G01*
X150344000Y-109890700D01*
G75*
G02*
X150064700Y-110170000I-279300J0D01*
G01*
X147623300Y-110170000D01*
G75*
G02*
X147344000Y-109890700I0J279300D01*
G01*
X147344000Y-108549300D01*
G75*
G02*
X147623300Y-108270000I279300J0D01*
G01*
G37*
%TD*%
D13*
%TO.C,C2*%
X134985000Y-95250000D03*
X132985000Y-95250000D03*
%TD*%
%TO.C,C3*%
G36*
G01*
X140380000Y-95525000D02*
X140380000Y-94975000D01*
G75*
G02*
X140580000Y-94775000I200000J0D01*
G01*
X140980000Y-94775000D01*
G75*
G02*
X141180000Y-94975000I0J-200000D01*
G01*
X141180000Y-95525000D01*
G75*
G02*
X140980000Y-95725000I-200000J0D01*
G01*
X140580000Y-95725000D01*
G75*
G02*
X140380000Y-95525000I0J200000D01*
G01*
G37*
G36*
G01*
X142030000Y-95525000D02*
X142030000Y-94975000D01*
G75*
G02*
X142230000Y-94775000I200000J0D01*
G01*
X142630000Y-94775000D01*
G75*
G02*
X142830000Y-94975000I0J-200000D01*
G01*
X142830000Y-95525000D01*
G75*
G02*
X142630000Y-95725000I-200000J0D01*
G01*
X142230000Y-95725000D01*
G75*
G02*
X142030000Y-95525000I0J200000D01*
G01*
G37*
%TD*%
%TO.C,C4*%
X139049000Y-95250000D03*
X137049000Y-95250000D03*
%TD*%
%TO.C,R1*%
G36*
G01*
X152609000Y-95483000D02*
X152609000Y-96033000D01*
G75*
G02*
X152409000Y-96233000I-200000J0D01*
G01*
X152009000Y-96233000D01*
G75*
G02*
X151809000Y-96033000I0J200000D01*
G01*
X151809000Y-95483000D01*
G75*
G02*
X152009000Y-95283000I200000J0D01*
G01*
X152409000Y-95283000D01*
G75*
G02*
X152609000Y-95483000I0J-200000D01*
G01*
G37*
G36*
G01*
X150959000Y-95483000D02*
X150959000Y-96033000D01*
G75*
G02*
X150759000Y-96233000I-200000J0D01*
G01*
X150359000Y-96233000D01*
G75*
G02*
X150159000Y-96033000I0J200000D01*
G01*
X150159000Y-95483000D01*
G75*
G02*
X150359000Y-95283000I200000J0D01*
G01*
X150759000Y-95283000D01*
G75*
G02*
X150959000Y-95483000I0J-200000D01*
G01*
G37*
%TD*%
%TO.C,R2*%
G36*
G01*
X150959000Y-98023000D02*
X150959000Y-98573000D01*
G75*
G02*
X150759000Y-98773000I-200000J0D01*
G01*
X150359000Y-98773000D01*
G75*
G02*
X150159000Y-98573000I0J200000D01*
G01*
X150159000Y-98023000D01*
G75*
G02*
X150359000Y-97823000I200000J0D01*
G01*
X150759000Y-97823000D01*
G75*
G02*
X150959000Y-98023000I0J-200000D01*
G01*
G37*
G36*
G01*
X152609000Y-98023000D02*
X152609000Y-98573000D01*
G75*
G02*
X152409000Y-98773000I-200000J0D01*
G01*
X152009000Y-98773000D01*
G75*
G02*
X151809000Y-98573000I0J200000D01*
G01*
X151809000Y-98023000D01*
G75*
G02*
X152009000Y-97823000I200000J0D01*
G01*
X152409000Y-97823000D01*
G75*
G02*
X152609000Y-98023000I0J-200000D01*
G01*
G37*
%TD*%
%TO.C,R3*%
G36*
G01*
X152609000Y-100563000D02*
X152609000Y-101113000D01*
G75*
G02*
X152409000Y-101313000I-200000J0D01*
G01*
X152009000Y-101313000D01*
G75*
G02*
X151809000Y-101113000I0J200000D01*
G01*
X151809000Y-100563000D01*
G75*
G02*
X152009000Y-100363000I200000J0D01*
G01*
X152409000Y-100363000D01*
G75*
G02*
X152609000Y-100563000I0J-200000D01*
G01*
G37*
G36*
G01*
X150959000Y-100563000D02*
X150959000Y-101113000D01*
G75*
G02*
X150759000Y-101313000I-200000J0D01*
G01*
X150359000Y-101313000D01*
G75*
G02*
X150159000Y-101113000I0J200000D01*
G01*
X150159000Y-100563000D01*
G75*
G02*
X150359000Y-100363000I200000J0D01*
G01*
X150759000Y-100363000D01*
G75*
G02*
X150959000Y-100563000I0J-200000D01*
G01*
G37*
%TD*%
%TO.C,R4*%
G36*
G01*
X150959000Y-103103000D02*
X150959000Y-103653000D01*
G75*
G02*
X150759000Y-103853000I-200000J0D01*
G01*
X150359000Y-103853000D01*
G75*
G02*
X150159000Y-103653000I0J200000D01*
G01*
X150159000Y-103103000D01*
G75*
G02*
X150359000Y-102903000I200000J0D01*
G01*
X150759000Y-102903000D01*
G75*
G02*
X150959000Y-103103000I0J-200000D01*
G01*
G37*
G36*
G01*
X152609000Y-103103000D02*
X152609000Y-103653000D01*
G75*
G02*
X152409000Y-103853000I-200000J0D01*
G01*
X152009000Y-103853000D01*
G75*
G02*
X151809000Y-103653000I0J200000D01*
G01*
X151809000Y-103103000D01*
G75*
G02*
X152009000Y-102903000I200000J0D01*
G01*
X152409000Y-102903000D01*
G75*
G02*
X152609000Y-103103000I0J-200000D01*
G01*
G37*
%TD*%
%TO.C,R5*%
G36*
G01*
X152609000Y-105643000D02*
X152609000Y-106193000D01*
G75*
G02*
X152409000Y-106393000I-200000J0D01*
G01*
X152009000Y-106393000D01*
G75*
G02*
X151809000Y-106193000I0J200000D01*
G01*
X151809000Y-105643000D01*
G75*
G02*
X152009000Y-105443000I200000J0D01*
G01*
X152409000Y-105443000D01*
G75*
G02*
X152609000Y-105643000I0J-200000D01*
G01*
G37*
G36*
G01*
X150959000Y-105643000D02*
X150959000Y-106193000D01*
G75*
G02*
X150759000Y-106393000I-200000J0D01*
G01*
X150359000Y-106393000D01*
G75*
G02*
X150159000Y-106193000I0J200000D01*
G01*
X150159000Y-105643000D01*
G75*
G02*
X150359000Y-105443000I200000J0D01*
G01*
X150759000Y-105443000D01*
G75*
G02*
X150959000Y-105643000I0J-200000D01*
G01*
G37*
%TD*%
%TO.C,R6*%
G36*
G01*
X150959000Y-108183000D02*
X150959000Y-108733000D01*
G75*
G02*
X150759000Y-108933000I-200000J0D01*
G01*
X150359000Y-108933000D01*
G75*
G02*
X150159000Y-108733000I0J200000D01*
G01*
X150159000Y-108183000D01*
G75*
G02*
X150359000Y-107983000I200000J0D01*
G01*
X150759000Y-107983000D01*
G75*
G02*
X150959000Y-108183000I0J-200000D01*
G01*
G37*
G36*
G01*
X152609000Y-108183000D02*
X152609000Y-108733000D01*
G75*
G02*
X152409000Y-108933000I-200000J0D01*
G01*
X152009000Y-108933000D01*
G75*
G02*
X151809000Y-108733000I0J200000D01*
G01*
X151809000Y-108183000D01*
G75*
G02*
X152009000Y-107983000I200000J0D01*
G01*
X152409000Y-107983000D01*
G75*
G02*
X152609000Y-108183000I0J-200000D01*
G01*
G37*
%TD*%
M02*
