%TF.GenerationSoftware,KiCad,Pcbnew,(5.1.8)-1*%
%TF.CreationDate,2022-12-23T20:51:48-06:00*%
%TF.ProjectId,pcb,7063622e-6b69-4636-9164-5f7063625858,rev?*%
%TF.SameCoordinates,Original*%
%TF.FileFunction,Legend,Top*%
%TF.FilePolarity,Positive*%
%FSLAX46Y46*%
G04 Gerber Fmt 4.6, Leading zero omitted, Abs format (unit mm)*
G04 Created by KiCad (PCBNEW (5.1.8)-1) date 2022-12-23 20:51:48*
%MOMM*%
%LPD*%
G01*
G04 APERTURE LIST*
%ADD10C,0.100000*%
%ADD11C,0.130000*%
%ADD12C,0.120000*%
%ADD13C,0.150000*%
G04 APERTURE END LIST*
D10*
X137833285Y-96753357D02*
X138290428Y-96753357D01*
X138576142Y-96981928D02*
X138576142Y-96581928D01*
X138576142Y-96639071D02*
X138604714Y-96610500D01*
X138661857Y-96581928D01*
X138747571Y-96581928D01*
X138804714Y-96610500D01*
X138833285Y-96667642D01*
X138833285Y-96981928D01*
X138833285Y-96667642D02*
X138861857Y-96610500D01*
X138919000Y-96581928D01*
X139004714Y-96581928D01*
X139061857Y-96610500D01*
X139090428Y-96667642D01*
X139090428Y-96981928D01*
X139376142Y-96981928D02*
X139376142Y-96581928D01*
X139376142Y-96381928D02*
X139347571Y-96410500D01*
X139376142Y-96439071D01*
X139404714Y-96410500D01*
X139376142Y-96381928D01*
X139376142Y-96439071D01*
X139919000Y-96953357D02*
X139861857Y-96981928D01*
X139747571Y-96981928D01*
X139690428Y-96953357D01*
X139661857Y-96924785D01*
X139633285Y-96867642D01*
X139633285Y-96696214D01*
X139661857Y-96639071D01*
X139690428Y-96610500D01*
X139747571Y-96581928D01*
X139861857Y-96581928D01*
X139919000Y-96610500D01*
X140176142Y-96981928D02*
X140176142Y-96581928D01*
X140176142Y-96696214D02*
X140204714Y-96639071D01*
X140233285Y-96610500D01*
X140290428Y-96581928D01*
X140347571Y-96581928D01*
X140633285Y-96981928D02*
X140576142Y-96953357D01*
X140547571Y-96924785D01*
X140519000Y-96867642D01*
X140519000Y-96696214D01*
X140547571Y-96639071D01*
X140576142Y-96610500D01*
X140633285Y-96581928D01*
X140719000Y-96581928D01*
X140776142Y-96610500D01*
X140804714Y-96639071D01*
X140833285Y-96696214D01*
X140833285Y-96867642D01*
X140804714Y-96924785D01*
X140776142Y-96953357D01*
X140719000Y-96981928D01*
X140633285Y-96981928D01*
D11*
X139909809Y-96310404D02*
X139909809Y-95510404D01*
X139909809Y-95891357D02*
X140366952Y-95891357D01*
X140366952Y-96310404D02*
X140366952Y-95510404D01*
X140747904Y-96310404D02*
X140747904Y-95510404D01*
X141128857Y-96310404D02*
X141128857Y-95510404D01*
X141319333Y-95510404D01*
X141433619Y-95548500D01*
X141509809Y-95624690D01*
X141547904Y-95700880D01*
X141586000Y-95853261D01*
X141586000Y-95967547D01*
X141547904Y-96119928D01*
X141509809Y-96196119D01*
X141433619Y-96272309D01*
X141319333Y-96310404D01*
X141128857Y-96310404D01*
X141928857Y-96310404D02*
X141928857Y-95777071D01*
X141928857Y-95853261D02*
X141966952Y-95815166D01*
X142043142Y-95777071D01*
X142157428Y-95777071D01*
X142233619Y-95815166D01*
X142271714Y-95891357D01*
X142271714Y-96310404D01*
X142271714Y-95891357D02*
X142309809Y-95815166D01*
X142386000Y-95777071D01*
X142500285Y-95777071D01*
X142576476Y-95815166D01*
X142614571Y-95891357D01*
X142614571Y-96310404D01*
X143338380Y-96310404D02*
X143338380Y-95891357D01*
X143300285Y-95815166D01*
X143224095Y-95777071D01*
X143071714Y-95777071D01*
X142995523Y-95815166D01*
X143338380Y-96272309D02*
X143262190Y-96310404D01*
X143071714Y-96310404D01*
X142995523Y-96272309D01*
X142957428Y-96196119D01*
X142957428Y-96119928D01*
X142995523Y-96043738D01*
X143071714Y-96005642D01*
X143262190Y-96005642D01*
X143338380Y-95967547D01*
X143719333Y-95777071D02*
X143719333Y-96310404D01*
X143719333Y-95853261D02*
X143757428Y-95815166D01*
X143833619Y-95777071D01*
X143947904Y-95777071D01*
X144024095Y-95815166D01*
X144062190Y-95891357D01*
X144062190Y-96310404D01*
D12*
X146983500Y-106978476D02*
X146945404Y-107054666D01*
X146945404Y-107168952D01*
X146983500Y-107283238D01*
X147059690Y-107359428D01*
X147135880Y-107397523D01*
X147288261Y-107435619D01*
X147402547Y-107435619D01*
X147554928Y-107397523D01*
X147631119Y-107359428D01*
X147707309Y-107283238D01*
X147745404Y-107168952D01*
X147745404Y-107092761D01*
X147707309Y-106978476D01*
X147669214Y-106940380D01*
X147402547Y-106940380D01*
X147402547Y-107092761D01*
X144913404Y-96354880D02*
X144913404Y-96735833D01*
X145294357Y-96773928D01*
X145256261Y-96735833D01*
X145218166Y-96659642D01*
X145218166Y-96469166D01*
X145256261Y-96392976D01*
X145294357Y-96354880D01*
X145370547Y-96316785D01*
X145561023Y-96316785D01*
X145637214Y-96354880D01*
X145675309Y-96392976D01*
X145713404Y-96469166D01*
X145713404Y-96659642D01*
X145675309Y-96735833D01*
X145637214Y-96773928D01*
X144913404Y-96088214D02*
X145713404Y-95821547D01*
X144913404Y-95554880D01*
X146620666Y-101783333D02*
X145920666Y-101783333D01*
X146620666Y-101383333D02*
X146220666Y-101683333D01*
X145920666Y-101383333D02*
X146320666Y-101783333D01*
X145713404Y-99269523D02*
X144913404Y-99269523D01*
X144913404Y-99079047D01*
X144951500Y-98964761D01*
X145027690Y-98888571D01*
X145103880Y-98850476D01*
X145256261Y-98812380D01*
X145370547Y-98812380D01*
X145522928Y-98850476D01*
X145599119Y-98888571D01*
X145675309Y-98964761D01*
X145713404Y-99079047D01*
X145713404Y-99269523D01*
X145637214Y-103892380D02*
X145675309Y-103930476D01*
X145713404Y-104044761D01*
X145713404Y-104120952D01*
X145675309Y-104235238D01*
X145599119Y-104311428D01*
X145522928Y-104349523D01*
X145370547Y-104387619D01*
X145256261Y-104387619D01*
X145103880Y-104349523D01*
X145027690Y-104311428D01*
X144951500Y-104235238D01*
X144913404Y-104120952D01*
X144913404Y-104044761D01*
X144951500Y-103930476D01*
X144989595Y-103892380D01*
%TO.C,U1*%
X144081500Y-99568000D02*
G75*
G03*
X144081500Y-99568000I-254000J0D01*
G01*
X137196500Y-101600000D02*
X137196500Y-104360000D01*
X137196500Y-104360000D02*
X137471500Y-104360000D01*
X137196500Y-101600000D02*
X137196500Y-98840000D01*
X137196500Y-98840000D02*
X137471500Y-98840000D01*
X144616500Y-101600000D02*
X144616500Y-104360000D01*
X144616500Y-104360000D02*
X144341500Y-104360000D01*
X144616500Y-101600000D02*
X144616500Y-98840000D01*
X144616500Y-98840000D02*
X144341500Y-98840000D01*
X144341500Y-98840000D02*
X144341500Y-97150000D01*
D10*
%TO.C,C2*%
X142684500Y-107696000D02*
X141795500Y-107696000D01*
X142684500Y-106680000D02*
X141795500Y-106680000D01*
%TO.C,C3*%
X145034000Y-106680000D02*
X145923000Y-106680000D01*
X145034000Y-107696000D02*
X145923000Y-107696000D01*
%TO.C,D1*%
X138001500Y-106563000D02*
X140001500Y-106563000D01*
X138001500Y-107813000D02*
X140001500Y-107813000D01*
X137287000Y-106553000D02*
X137287000Y-107823000D01*
%TO.C,U1*%
D13*
X142930309Y-101242857D02*
X142977928Y-101195238D01*
X143120785Y-101147619D01*
X143216023Y-101147619D01*
X143358880Y-101195238D01*
X143454119Y-101290476D01*
X143501738Y-101385714D01*
X143549357Y-101576190D01*
X143549357Y-101719047D01*
X143501738Y-101909523D01*
X143454119Y-102004761D01*
X143358880Y-102100000D01*
X143216023Y-102147619D01*
X143120785Y-102147619D01*
X142977928Y-102100000D01*
X142930309Y-102052380D01*
X142501738Y-101147619D02*
X142501738Y-102147619D01*
X142501738Y-101671428D02*
X141930309Y-101671428D01*
X141930309Y-101147619D02*
X141930309Y-102147619D01*
X140977928Y-102147619D02*
X141454119Y-102147619D01*
X141501738Y-101671428D01*
X141454119Y-101719047D01*
X141358880Y-101766666D01*
X141120785Y-101766666D01*
X141025547Y-101719047D01*
X140977928Y-101671428D01*
X140930309Y-101576190D01*
X140930309Y-101338095D01*
X140977928Y-101242857D01*
X141025547Y-101195238D01*
X141120785Y-101147619D01*
X141358880Y-101147619D01*
X141454119Y-101195238D01*
X141501738Y-101242857D01*
X140025547Y-102147619D02*
X140501738Y-102147619D01*
X140549357Y-101671428D01*
X140501738Y-101719047D01*
X140406500Y-101766666D01*
X140168404Y-101766666D01*
X140073166Y-101719047D01*
X140025547Y-101671428D01*
X139977928Y-101576190D01*
X139977928Y-101338095D01*
X140025547Y-101242857D01*
X140073166Y-101195238D01*
X140168404Y-101147619D01*
X140406500Y-101147619D01*
X140501738Y-101195238D01*
X140549357Y-101242857D01*
X139501738Y-101147619D02*
X139311261Y-101147619D01*
X139216023Y-101195238D01*
X139168404Y-101242857D01*
X139073166Y-101385714D01*
X139025547Y-101576190D01*
X139025547Y-101957142D01*
X139073166Y-102052380D01*
X139120785Y-102100000D01*
X139216023Y-102147619D01*
X139406500Y-102147619D01*
X139501738Y-102100000D01*
X139549357Y-102052380D01*
X139596976Y-101957142D01*
X139596976Y-101719047D01*
X139549357Y-101623809D01*
X139501738Y-101576190D01*
X139406500Y-101528571D01*
X139216023Y-101528571D01*
X139120785Y-101576190D01*
X139073166Y-101623809D01*
X139025547Y-101719047D01*
X138739833Y-102147619D02*
X138168404Y-102147619D01*
X138454119Y-101147619D02*
X138454119Y-102147619D01*
%TO.C,C2*%
D10*
X142418571Y-107271333D02*
X142442380Y-107295142D01*
X142466190Y-107366571D01*
X142466190Y-107414190D01*
X142442380Y-107485619D01*
X142394761Y-107533238D01*
X142347142Y-107557047D01*
X142251904Y-107580857D01*
X142180476Y-107580857D01*
X142085238Y-107557047D01*
X142037619Y-107533238D01*
X141990000Y-107485619D01*
X141966190Y-107414190D01*
X141966190Y-107366571D01*
X141990000Y-107295142D01*
X142013809Y-107271333D01*
X142013809Y-107080857D02*
X141990000Y-107057047D01*
X141966190Y-107009428D01*
X141966190Y-106890380D01*
X141990000Y-106842761D01*
X142013809Y-106818952D01*
X142061428Y-106795142D01*
X142109047Y-106795142D01*
X142180476Y-106818952D01*
X142466190Y-107104666D01*
X142466190Y-106795142D01*
%TO.C,C3*%
X145657071Y-107271333D02*
X145680880Y-107295142D01*
X145704690Y-107366571D01*
X145704690Y-107414190D01*
X145680880Y-107485619D01*
X145633261Y-107533238D01*
X145585642Y-107557047D01*
X145490404Y-107580857D01*
X145418976Y-107580857D01*
X145323738Y-107557047D01*
X145276119Y-107533238D01*
X145228500Y-107485619D01*
X145204690Y-107414190D01*
X145204690Y-107366571D01*
X145228500Y-107295142D01*
X145252309Y-107271333D01*
X145204690Y-107104666D02*
X145204690Y-106795142D01*
X145395166Y-106961809D01*
X145395166Y-106890380D01*
X145418976Y-106842761D01*
X145442785Y-106818952D01*
X145490404Y-106795142D01*
X145609452Y-106795142D01*
X145657071Y-106818952D01*
X145680880Y-106842761D01*
X145704690Y-106890380D01*
X145704690Y-107033238D01*
X145680880Y-107080857D01*
X145657071Y-107104666D01*
%TO.C,D1*%
X139227690Y-107557047D02*
X138727690Y-107557047D01*
X138727690Y-107438000D01*
X138751500Y-107366571D01*
X138799119Y-107318952D01*
X138846738Y-107295142D01*
X138941976Y-107271333D01*
X139013404Y-107271333D01*
X139108642Y-107295142D01*
X139156261Y-107318952D01*
X139203880Y-107366571D01*
X139227690Y-107438000D01*
X139227690Y-107557047D01*
X139227690Y-106795142D02*
X139227690Y-107080857D01*
X139227690Y-106938000D02*
X138727690Y-106938000D01*
X138799119Y-106985619D01*
X138846738Y-107033238D01*
X138870547Y-107080857D01*
%TD*%
M02*
