%TF.GenerationSoftware,KiCad,Pcbnew,(5.1.8)-1*%
%TF.CreationDate,2022-12-23T20:51:48-06:00*%
%TF.ProjectId,pcb,7063622e-6b69-4636-9164-5f7063625858,rev?*%
%TF.SameCoordinates,Original*%
%TF.FileFunction,Copper,L1,Top*%
%TF.FilePolarity,Positive*%
%FSLAX46Y46*%
G04 Gerber Fmt 4.6, Leading zero omitted, Abs format (unit mm)*
G04 Created by KiCad (PCBNEW (5.1.8)-1) date 2022-12-23 20:51:48*
%MOMM*%
%LPD*%
G01*
G04 APERTURE LIST*
%TA.AperFunction,ComponentPad*%
%ADD10O,2.400000X1.000000*%
%TD*%
%TA.AperFunction,ComponentPad*%
%ADD11O,2.100000X1.000000*%
%TD*%
%TA.AperFunction,SMDPad,CuDef*%
%ADD12R,1.000000X1.250000*%
%TD*%
%TA.AperFunction,ViaPad*%
%ADD13C,0.800000*%
%TD*%
%TA.AperFunction,ViaPad*%
%ADD14C,0.700000*%
%TD*%
%TA.AperFunction,Conductor*%
%ADD15C,1.000000*%
%TD*%
%TA.AperFunction,Conductor*%
%ADD16C,0.500000*%
%TD*%
%TA.AperFunction,Conductor*%
%ADD17C,0.400000*%
%TD*%
%TA.AperFunction,Conductor*%
%ADD18C,0.180000*%
%TD*%
%TA.AperFunction,Conductor*%
%ADD19C,0.100000*%
%TD*%
G04 APERTURE END LIST*
D10*
%TO.P,P1,4*%
%TO.N,GND*%
X137985500Y-95250000D03*
%TD*%
D11*
%TO.P,SW1,2*%
%TO.N,Net-(SW1-Pad2)*%
X146457500Y-95250000D03*
%TO.P,SW1,1*%
%TO.N,GND*%
X138657500Y-95250000D03*
%TD*%
%TO.P,U1,1*%
%TO.N,N/C*%
%TA.AperFunction,SMDPad,CuDef*%
G36*
G01*
X143706500Y-97150000D02*
X143956500Y-97150000D01*
G75*
G02*
X144081500Y-97275000I0J-125000D01*
G01*
X144081500Y-98925000D01*
G75*
G02*
X143956500Y-99050000I-125000J0D01*
G01*
X143706500Y-99050000D01*
G75*
G02*
X143581500Y-98925000I0J125000D01*
G01*
X143581500Y-97275000D01*
G75*
G02*
X143706500Y-97150000I125000J0D01*
G01*
G37*
%TD.AperFunction*%
%TO.P,U1,2*%
%TO.N,KB_DATA*%
%TA.AperFunction,SMDPad,CuDef*%
G36*
G01*
X143056500Y-97150000D02*
X143306500Y-97150000D01*
G75*
G02*
X143431500Y-97275000I0J-125000D01*
G01*
X143431500Y-98925000D01*
G75*
G02*
X143306500Y-99050000I-125000J0D01*
G01*
X143056500Y-99050000D01*
G75*
G02*
X142931500Y-98925000I0J125000D01*
G01*
X142931500Y-97275000D01*
G75*
G02*
X143056500Y-97150000I125000J0D01*
G01*
G37*
%TD.AperFunction*%
%TO.P,U1,3*%
%TO.N,MS_DATA*%
%TA.AperFunction,SMDPad,CuDef*%
G36*
G01*
X142406500Y-97150000D02*
X142656500Y-97150000D01*
G75*
G02*
X142781500Y-97275000I0J-125000D01*
G01*
X142781500Y-98925000D01*
G75*
G02*
X142656500Y-99050000I-125000J0D01*
G01*
X142406500Y-99050000D01*
G75*
G02*
X142281500Y-98925000I0J125000D01*
G01*
X142281500Y-97275000D01*
G75*
G02*
X142406500Y-97150000I125000J0D01*
G01*
G37*
%TD.AperFunction*%
%TO.P,U1,4*%
%TO.N,MS_CLK*%
%TA.AperFunction,SMDPad,CuDef*%
G36*
G01*
X141756500Y-97150000D02*
X142006500Y-97150000D01*
G75*
G02*
X142131500Y-97275000I0J-125000D01*
G01*
X142131500Y-98925000D01*
G75*
G02*
X142006500Y-99050000I-125000J0D01*
G01*
X141756500Y-99050000D01*
G75*
G02*
X141631500Y-98925000I0J125000D01*
G01*
X141631500Y-97275000D01*
G75*
G02*
X141756500Y-97150000I125000J0D01*
G01*
G37*
%TD.AperFunction*%
%TO.P,U1,5*%
%TO.N,KB_CLK*%
%TA.AperFunction,SMDPad,CuDef*%
G36*
G01*
X141106500Y-97150000D02*
X141356500Y-97150000D01*
G75*
G02*
X141481500Y-97275000I0J-125000D01*
G01*
X141481500Y-98925000D01*
G75*
G02*
X141356500Y-99050000I-125000J0D01*
G01*
X141106500Y-99050000D01*
G75*
G02*
X140981500Y-98925000I0J125000D01*
G01*
X140981500Y-97275000D01*
G75*
G02*
X141106500Y-97150000I125000J0D01*
G01*
G37*
%TD.AperFunction*%
%TO.P,U1,6*%
%TO.N,N/C*%
%TA.AperFunction,SMDPad,CuDef*%
G36*
G01*
X140456500Y-97150000D02*
X140706500Y-97150000D01*
G75*
G02*
X140831500Y-97275000I0J-125000D01*
G01*
X140831500Y-98925000D01*
G75*
G02*
X140706500Y-99050000I-125000J0D01*
G01*
X140456500Y-99050000D01*
G75*
G02*
X140331500Y-98925000I0J125000D01*
G01*
X140331500Y-97275000D01*
G75*
G02*
X140456500Y-97150000I125000J0D01*
G01*
G37*
%TD.AperFunction*%
%TO.P,U1,7*%
%TA.AperFunction,SMDPad,CuDef*%
G36*
G01*
X139806500Y-97150000D02*
X140056500Y-97150000D01*
G75*
G02*
X140181500Y-97275000I0J-125000D01*
G01*
X140181500Y-98925000D01*
G75*
G02*
X140056500Y-99050000I-125000J0D01*
G01*
X139806500Y-99050000D01*
G75*
G02*
X139681500Y-98925000I0J125000D01*
G01*
X139681500Y-97275000D01*
G75*
G02*
X139806500Y-97150000I125000J0D01*
G01*
G37*
%TD.AperFunction*%
%TO.P,U1,8*%
%TA.AperFunction,SMDPad,CuDef*%
G36*
G01*
X139156500Y-97150000D02*
X139406500Y-97150000D01*
G75*
G02*
X139531500Y-97275000I0J-125000D01*
G01*
X139531500Y-98925000D01*
G75*
G02*
X139406500Y-99050000I-125000J0D01*
G01*
X139156500Y-99050000D01*
G75*
G02*
X139031500Y-98925000I0J125000D01*
G01*
X139031500Y-97275000D01*
G75*
G02*
X139156500Y-97150000I125000J0D01*
G01*
G37*
%TD.AperFunction*%
%TO.P,U1,9*%
%TO.N,Net-(SW1-Pad2)*%
%TA.AperFunction,SMDPad,CuDef*%
G36*
G01*
X138506500Y-97150000D02*
X138756500Y-97150000D01*
G75*
G02*
X138881500Y-97275000I0J-125000D01*
G01*
X138881500Y-98925000D01*
G75*
G02*
X138756500Y-99050000I-125000J0D01*
G01*
X138506500Y-99050000D01*
G75*
G02*
X138381500Y-98925000I0J125000D01*
G01*
X138381500Y-97275000D01*
G75*
G02*
X138506500Y-97150000I125000J0D01*
G01*
G37*
%TD.AperFunction*%
%TO.P,U1,10*%
%TO.N,GND*%
%TA.AperFunction,SMDPad,CuDef*%
G36*
G01*
X137856500Y-97150000D02*
X138106500Y-97150000D01*
G75*
G02*
X138231500Y-97275000I0J-125000D01*
G01*
X138231500Y-98925000D01*
G75*
G02*
X138106500Y-99050000I-125000J0D01*
G01*
X137856500Y-99050000D01*
G75*
G02*
X137731500Y-98925000I0J125000D01*
G01*
X137731500Y-97275000D01*
G75*
G02*
X137856500Y-97150000I125000J0D01*
G01*
G37*
%TD.AperFunction*%
%TO.P,U1,11*%
%TO.N,Net-(D1-Pad1)*%
%TA.AperFunction,SMDPad,CuDef*%
G36*
G01*
X137856500Y-104150000D02*
X138106500Y-104150000D01*
G75*
G02*
X138231500Y-104275000I0J-125000D01*
G01*
X138231500Y-105925000D01*
G75*
G02*
X138106500Y-106050000I-125000J0D01*
G01*
X137856500Y-106050000D01*
G75*
G02*
X137731500Y-105925000I0J125000D01*
G01*
X137731500Y-104275000D01*
G75*
G02*
X137856500Y-104150000I125000J0D01*
G01*
G37*
%TD.AperFunction*%
%TO.P,U1,12*%
%TO.N,N/C*%
%TA.AperFunction,SMDPad,CuDef*%
G36*
G01*
X138506500Y-104150000D02*
X138756500Y-104150000D01*
G75*
G02*
X138881500Y-104275000I0J-125000D01*
G01*
X138881500Y-105925000D01*
G75*
G02*
X138756500Y-106050000I-125000J0D01*
G01*
X138506500Y-106050000D01*
G75*
G02*
X138381500Y-105925000I0J125000D01*
G01*
X138381500Y-104275000D01*
G75*
G02*
X138506500Y-104150000I125000J0D01*
G01*
G37*
%TD.AperFunction*%
%TO.P,U1,13*%
%TA.AperFunction,SMDPad,CuDef*%
G36*
G01*
X139156500Y-104150000D02*
X139406500Y-104150000D01*
G75*
G02*
X139531500Y-104275000I0J-125000D01*
G01*
X139531500Y-105925000D01*
G75*
G02*
X139406500Y-106050000I-125000J0D01*
G01*
X139156500Y-106050000D01*
G75*
G02*
X139031500Y-105925000I0J125000D01*
G01*
X139031500Y-104275000D01*
G75*
G02*
X139156500Y-104150000I125000J0D01*
G01*
G37*
%TD.AperFunction*%
%TO.P,U1,14*%
%TO.N,USB_D+*%
%TA.AperFunction,SMDPad,CuDef*%
G36*
G01*
X139806500Y-104150000D02*
X140056500Y-104150000D01*
G75*
G02*
X140181500Y-104275000I0J-125000D01*
G01*
X140181500Y-105925000D01*
G75*
G02*
X140056500Y-106050000I-125000J0D01*
G01*
X139806500Y-106050000D01*
G75*
G02*
X139681500Y-105925000I0J125000D01*
G01*
X139681500Y-104275000D01*
G75*
G02*
X139806500Y-104150000I125000J0D01*
G01*
G37*
%TD.AperFunction*%
%TO.P,U1,15*%
%TO.N,USB_D-*%
%TA.AperFunction,SMDPad,CuDef*%
G36*
G01*
X140456500Y-104150000D02*
X140706500Y-104150000D01*
G75*
G02*
X140831500Y-104275000I0J-125000D01*
G01*
X140831500Y-105925000D01*
G75*
G02*
X140706500Y-106050000I-125000J0D01*
G01*
X140456500Y-106050000D01*
G75*
G02*
X140331500Y-105925000I0J125000D01*
G01*
X140331500Y-104275000D01*
G75*
G02*
X140456500Y-104150000I125000J0D01*
G01*
G37*
%TD.AperFunction*%
%TO.P,U1,16*%
%TO.N,N/C*%
%TA.AperFunction,SMDPad,CuDef*%
G36*
G01*
X141106500Y-104150000D02*
X141356500Y-104150000D01*
G75*
G02*
X141481500Y-104275000I0J-125000D01*
G01*
X141481500Y-105925000D01*
G75*
G02*
X141356500Y-106050000I-125000J0D01*
G01*
X141106500Y-106050000D01*
G75*
G02*
X140981500Y-105925000I0J125000D01*
G01*
X140981500Y-104275000D01*
G75*
G02*
X141106500Y-104150000I125000J0D01*
G01*
G37*
%TD.AperFunction*%
%TO.P,U1,17*%
%TA.AperFunction,SMDPad,CuDef*%
G36*
G01*
X141756500Y-104150000D02*
X142006500Y-104150000D01*
G75*
G02*
X142131500Y-104275000I0J-125000D01*
G01*
X142131500Y-105925000D01*
G75*
G02*
X142006500Y-106050000I-125000J0D01*
G01*
X141756500Y-106050000D01*
G75*
G02*
X141631500Y-105925000I0J125000D01*
G01*
X141631500Y-104275000D01*
G75*
G02*
X141756500Y-104150000I125000J0D01*
G01*
G37*
%TD.AperFunction*%
%TO.P,U1,18*%
%TO.N,GND*%
%TA.AperFunction,SMDPad,CuDef*%
G36*
G01*
X142406500Y-104150000D02*
X142656500Y-104150000D01*
G75*
G02*
X142781500Y-104275000I0J-125000D01*
G01*
X142781500Y-105925000D01*
G75*
G02*
X142656500Y-106050000I-125000J0D01*
G01*
X142406500Y-106050000D01*
G75*
G02*
X142281500Y-105925000I0J125000D01*
G01*
X142281500Y-104275000D01*
G75*
G02*
X142406500Y-104150000I125000J0D01*
G01*
G37*
%TD.AperFunction*%
%TO.P,U1,19*%
%TO.N,+5V*%
%TA.AperFunction,SMDPad,CuDef*%
G36*
G01*
X143056500Y-104150000D02*
X143306500Y-104150000D01*
G75*
G02*
X143431500Y-104275000I0J-125000D01*
G01*
X143431500Y-105925000D01*
G75*
G02*
X143306500Y-106050000I-125000J0D01*
G01*
X143056500Y-106050000D01*
G75*
G02*
X142931500Y-105925000I0J125000D01*
G01*
X142931500Y-104275000D01*
G75*
G02*
X143056500Y-104150000I125000J0D01*
G01*
G37*
%TD.AperFunction*%
%TO.P,U1,20*%
%TO.N,+3V3*%
%TA.AperFunction,SMDPad,CuDef*%
G36*
G01*
X143706500Y-104150000D02*
X143956500Y-104150000D01*
G75*
G02*
X144081500Y-104275000I0J-125000D01*
G01*
X144081500Y-105925000D01*
G75*
G02*
X143956500Y-106050000I-125000J0D01*
G01*
X143706500Y-106050000D01*
G75*
G02*
X143581500Y-105925000I0J125000D01*
G01*
X143581500Y-104275000D01*
G75*
G02*
X143706500Y-104150000I125000J0D01*
G01*
G37*
%TD.AperFunction*%
%TD*%
%TO.P,J1,1*%
%TO.N,+5V*%
%TA.AperFunction,SMDPad,CuDef*%
G36*
G01*
X144718500Y-98425400D02*
X144718500Y-97154600D01*
G75*
G02*
X144983100Y-96890000I264600J0D01*
G01*
X147653900Y-96890000D01*
G75*
G02*
X147918500Y-97154600I0J-264600D01*
G01*
X147918500Y-98425400D01*
G75*
G02*
X147653900Y-98690000I-264600J0D01*
G01*
X144983100Y-98690000D01*
G75*
G02*
X144718500Y-98425400I0J264600D01*
G01*
G37*
%TD.AperFunction*%
%TO.P,J1,3*%
%TO.N,KB_DATA*%
%TA.AperFunction,SMDPad,CuDef*%
G36*
G01*
X144718500Y-100965400D02*
X144718500Y-99694600D01*
G75*
G02*
X144983100Y-99430000I264600J0D01*
G01*
X147653900Y-99430000D01*
G75*
G02*
X147918500Y-99694600I0J-264600D01*
G01*
X147918500Y-100965400D01*
G75*
G02*
X147653900Y-101230000I-264600J0D01*
G01*
X144983100Y-101230000D01*
G75*
G02*
X144718500Y-100965400I0J264600D01*
G01*
G37*
%TD.AperFunction*%
%TO.P,J1,5*%
%TO.N,KB_CLK*%
%TA.AperFunction,SMDPad,CuDef*%
G36*
G01*
X144718500Y-103505400D02*
X144718500Y-102234600D01*
G75*
G02*
X144983100Y-101970000I264600J0D01*
G01*
X147653900Y-101970000D01*
G75*
G02*
X147918500Y-102234600I0J-264600D01*
G01*
X147918500Y-103505400D01*
G75*
G02*
X147653900Y-103770000I-264600J0D01*
G01*
X144983100Y-103770000D01*
G75*
G02*
X144718500Y-103505400I0J264600D01*
G01*
G37*
%TD.AperFunction*%
%TO.P,J1,7*%
%TO.N,GND*%
%TA.AperFunction,SMDPad,CuDef*%
G36*
G01*
X144718500Y-106045400D02*
X144718500Y-104774600D01*
G75*
G02*
X144983100Y-104510000I264600J0D01*
G01*
X147653900Y-104510000D01*
G75*
G02*
X147918500Y-104774600I0J-264600D01*
G01*
X147918500Y-106045400D01*
G75*
G02*
X147653900Y-106310000I-264600J0D01*
G01*
X144983100Y-106310000D01*
G75*
G02*
X144718500Y-106045400I0J264600D01*
G01*
G37*
%TD.AperFunction*%
%TD*%
%TO.P,C2,1*%
%TO.N,+5V*%
%TA.AperFunction,SMDPad,CuDef*%
G36*
G01*
X143465000Y-106913000D02*
X143465000Y-107463000D01*
G75*
G02*
X143265000Y-107663000I-200000J0D01*
G01*
X142865000Y-107663000D01*
G75*
G02*
X142665000Y-107463000I0J200000D01*
G01*
X142665000Y-106913000D01*
G75*
G02*
X142865000Y-106713000I200000J0D01*
G01*
X143265000Y-106713000D01*
G75*
G02*
X143465000Y-106913000I0J-200000D01*
G01*
G37*
%TD.AperFunction*%
%TO.P,C2,2*%
%TO.N,GND*%
%TA.AperFunction,SMDPad,CuDef*%
G36*
G01*
X141815000Y-106913000D02*
X141815000Y-107463000D01*
G75*
G02*
X141615000Y-107663000I-200000J0D01*
G01*
X141215000Y-107663000D01*
G75*
G02*
X141015000Y-107463000I0J200000D01*
G01*
X141015000Y-106913000D01*
G75*
G02*
X141215000Y-106713000I200000J0D01*
G01*
X141615000Y-106713000D01*
G75*
G02*
X141815000Y-106913000I0J-200000D01*
G01*
G37*
%TD.AperFunction*%
%TD*%
%TO.P,C3,1*%
%TO.N,+3V3*%
%TA.AperFunction,SMDPad,CuDef*%
G36*
G01*
X144253500Y-107463000D02*
X144253500Y-106913000D01*
G75*
G02*
X144453500Y-106713000I200000J0D01*
G01*
X144853500Y-106713000D01*
G75*
G02*
X145053500Y-106913000I0J-200000D01*
G01*
X145053500Y-107463000D01*
G75*
G02*
X144853500Y-107663000I-200000J0D01*
G01*
X144453500Y-107663000D01*
G75*
G02*
X144253500Y-107463000I0J200000D01*
G01*
G37*
%TD.AperFunction*%
%TO.P,C3,2*%
%TO.N,GND*%
%TA.AperFunction,SMDPad,CuDef*%
G36*
G01*
X145903500Y-107463000D02*
X145903500Y-106913000D01*
G75*
G02*
X146103500Y-106713000I200000J0D01*
G01*
X146503500Y-106713000D01*
G75*
G02*
X146703500Y-106913000I0J-200000D01*
G01*
X146703500Y-107463000D01*
G75*
G02*
X146503500Y-107663000I-200000J0D01*
G01*
X146103500Y-107663000D01*
G75*
G02*
X145903500Y-107463000I0J200000D01*
G01*
G37*
%TD.AperFunction*%
%TD*%
D12*
%TO.P,D1,1*%
%TO.N,Net-(D1-Pad1)*%
X138001500Y-107188000D03*
%TO.P,D1,2*%
%TO.N,Net-(D1-Pad2)*%
X140001500Y-107188000D03*
%TD*%
D13*
%TO.N,+5V*%
X143179800Y-103842820D03*
X144716500Y-97282000D03*
X144716500Y-98298000D03*
X143516064Y-107181936D03*
%TO.N,GND*%
X144716500Y-104902000D03*
X146304000Y-106426000D03*
X144716500Y-105918000D03*
X138049000Y-96329500D03*
D14*
X141478000Y-103659940D03*
X142240000Y-106538410D03*
D13*
%TO.N,KB_DATA*%
X143192500Y-96774000D03*
%TO.N,KB_CLK*%
X141287500Y-96710500D03*
D14*
%TO.N,MS_DATA*%
X144145000Y-101155500D03*
%TO.N,MS_CLK*%
X144145000Y-102044500D03*
D13*
%TO.N,USB_D-*%
X139319000Y-100647500D03*
%TO.N,USB_D+*%
X139319000Y-102679500D03*
%TO.N,Net-(D1-Pad2)*%
X139509500Y-107188000D03*
%TD*%
D15*
%TO.N,+5V*%
X146304000Y-97775500D02*
X146318500Y-97790000D01*
D16*
X143245000Y-103847135D02*
X143266415Y-103825720D01*
D15*
X144739360Y-97282000D02*
X144739360Y-98298000D01*
D16*
X143181500Y-105100000D02*
X143181500Y-106754000D01*
X143181500Y-103844520D02*
X143179800Y-103842820D01*
X143181500Y-105100000D02*
X143181500Y-103844520D01*
X143071064Y-107181936D02*
X143065000Y-107188000D01*
X143516064Y-107181936D02*
X143071064Y-107181936D01*
D17*
%TO.N,GND*%
X138049000Y-96329500D02*
X138049000Y-95625010D01*
X138049000Y-95858500D02*
X138282490Y-95625010D01*
X138049000Y-96329500D02*
X138049000Y-95858500D01*
D16*
X142531500Y-106213153D02*
X142206243Y-106538410D01*
X142531500Y-105100000D02*
X142531500Y-106213153D01*
%TO.N,+3V3*%
X143831500Y-106366000D02*
X144653500Y-107188000D01*
X143831500Y-105100000D02*
X143831500Y-106366000D01*
%TO.N,KB_DATA*%
X143245000Y-96826500D02*
X143192500Y-96774000D01*
X146280499Y-100291999D02*
X146318500Y-100330000D01*
X143181500Y-96785000D02*
X143192500Y-96774000D01*
X143181500Y-98100000D02*
X143181500Y-96785000D01*
X143181500Y-98100000D02*
X143181500Y-99433246D01*
X144078254Y-100330000D02*
X146318500Y-100330000D01*
X143181500Y-99433246D02*
X144078254Y-100330000D01*
%TO.N,KB_CLK*%
X141295000Y-96821181D02*
X141340061Y-96776120D01*
X146280499Y-102908001D02*
X146318500Y-102870000D01*
X141231500Y-96766500D02*
X141287500Y-96710500D01*
X141231500Y-98100000D02*
X141231500Y-96766500D01*
X141231500Y-98100000D02*
X141231500Y-100241002D01*
X141231500Y-100241002D02*
X143784999Y-102794501D01*
X146243001Y-102794501D02*
X146318500Y-102870000D01*
X143784999Y-102794501D02*
X146243001Y-102794501D01*
%TO.N,MS_DATA*%
X142531500Y-98100000D02*
X142531500Y-99702498D01*
X143984502Y-101155500D02*
X144145000Y-101155500D01*
X142531500Y-99702498D02*
X143984502Y-101155500D01*
%TO.N,MS_CLK*%
X141881500Y-98100000D02*
X141881500Y-99971750D01*
X143954250Y-102044500D02*
X144145000Y-102044500D01*
X141881500Y-99971750D02*
X143954250Y-102044500D01*
%TO.N,USB_D-*%
X139319000Y-100647500D02*
X139319000Y-101495498D01*
X140581500Y-102757998D02*
X139319000Y-101495498D01*
X140581500Y-105100000D02*
X140581500Y-102757998D01*
%TO.N,USB_D+*%
X139931500Y-103292000D02*
X139319000Y-102679500D01*
X139931500Y-105100000D02*
X139931500Y-103292000D01*
%TO.N,Net-(SW1-Pad2)*%
X138631500Y-97057522D02*
X138631500Y-98100000D01*
X138939032Y-96749990D02*
X138631500Y-97057522D01*
X138980316Y-96749990D02*
X138939032Y-96749990D01*
X139819807Y-95910499D02*
X139518653Y-96211653D01*
X139518653Y-96211653D02*
X138980316Y-96749990D01*
X139756307Y-95973999D02*
X139518653Y-96211653D01*
X146315523Y-95910499D02*
X146551012Y-95675010D01*
X141262001Y-95910499D02*
X146315523Y-95910499D01*
X141671501Y-95910499D02*
X141262001Y-95910499D01*
X141262001Y-95910499D02*
X139819807Y-95910499D01*
%TO.N,Net-(D1-Pad1)*%
X137981500Y-107017500D02*
X137811000Y-107188000D01*
X137981500Y-105100000D02*
X137981500Y-107017500D01*
%TO.N,Net-(D1-Pad2)*%
X139509500Y-107188000D02*
X140001500Y-107188000D01*
%TD*%
D18*
%TO.N,GND*%
X145178208Y-95395065D02*
X145185923Y-95420499D01*
X139843861Y-95420499D01*
X139819806Y-95418130D01*
X139795751Y-95420499D01*
X139795745Y-95420499D01*
X139723750Y-95427590D01*
X139631385Y-95455608D01*
X139546261Y-95501108D01*
X139471649Y-95562341D01*
X139456303Y-95581040D01*
X139426846Y-95610497D01*
X139426840Y-95610502D01*
X139189194Y-95848148D01*
X139189184Y-95848157D01*
X138732637Y-96304706D01*
X138665486Y-96340599D01*
X138590874Y-96401832D01*
X138575528Y-96420531D01*
X138302041Y-96694018D01*
X138283342Y-96709364D01*
X138222109Y-96783976D01*
X138176609Y-96869101D01*
X138148591Y-96961466D01*
X138141500Y-97033461D01*
X138141500Y-97033467D01*
X138139131Y-97057522D01*
X138141500Y-97081577D01*
X138141500Y-97263211D01*
X138140339Y-97275000D01*
X138140339Y-98925000D01*
X138147375Y-98996434D01*
X138168211Y-99065124D01*
X138202048Y-99128428D01*
X138247585Y-99183915D01*
X138303072Y-99229452D01*
X138366376Y-99263289D01*
X138435066Y-99284125D01*
X138506500Y-99291161D01*
X138756500Y-99291161D01*
X138827934Y-99284125D01*
X138896624Y-99263289D01*
X138956500Y-99231284D01*
X139016376Y-99263289D01*
X139085066Y-99284125D01*
X139156500Y-99291161D01*
X139406500Y-99291161D01*
X139477934Y-99284125D01*
X139546624Y-99263289D01*
X139606500Y-99231284D01*
X139666376Y-99263289D01*
X139735066Y-99284125D01*
X139806500Y-99291161D01*
X140056500Y-99291161D01*
X140127934Y-99284125D01*
X140196624Y-99263289D01*
X140256500Y-99231284D01*
X140316376Y-99263289D01*
X140385066Y-99284125D01*
X140456500Y-99291161D01*
X140706500Y-99291161D01*
X140741501Y-99287714D01*
X140741501Y-100216937D01*
X140739131Y-100241002D01*
X140748591Y-100337058D01*
X140764061Y-100388055D01*
X140776610Y-100429424D01*
X140822110Y-100514548D01*
X140883343Y-100589160D01*
X140902036Y-100604501D01*
X143421500Y-103123965D01*
X143436841Y-103142659D01*
X143511453Y-103203892D01*
X143596577Y-103249392D01*
X143688942Y-103277410D01*
X143760937Y-103284501D01*
X143760944Y-103284501D01*
X143784999Y-103286870D01*
X143809054Y-103284501D01*
X144477339Y-103284501D01*
X144477339Y-103505400D01*
X144487057Y-103604069D01*
X144515838Y-103698946D01*
X144562575Y-103786386D01*
X144625473Y-103863027D01*
X144702114Y-103925925D01*
X144789554Y-103972662D01*
X144884431Y-104001443D01*
X144983100Y-104011161D01*
X147653900Y-104011161D01*
X147752569Y-104001443D01*
X147840001Y-103974921D01*
X147840001Y-107835000D01*
X145088890Y-107835000D01*
X145098596Y-107829812D01*
X145165448Y-107774948D01*
X145220312Y-107708096D01*
X145261080Y-107631825D01*
X145286184Y-107549066D01*
X145294661Y-107463000D01*
X145294661Y-106913000D01*
X145286184Y-106826934D01*
X145261080Y-106744175D01*
X145220312Y-106667904D01*
X145165448Y-106601052D01*
X145098596Y-106546188D01*
X145022325Y-106505420D01*
X144939566Y-106480316D01*
X144853500Y-106471839D01*
X144630303Y-106471839D01*
X144321500Y-106163037D01*
X144321500Y-105936787D01*
X144322661Y-105925000D01*
X144322661Y-104275000D01*
X144315625Y-104203566D01*
X144294789Y-104134876D01*
X144260952Y-104071572D01*
X144215415Y-104016085D01*
X144159928Y-103970548D01*
X144096624Y-103936711D01*
X144027934Y-103915875D01*
X143956500Y-103908839D01*
X143819206Y-103908839D01*
X143819800Y-103905855D01*
X143819800Y-103779785D01*
X143795205Y-103656139D01*
X143746961Y-103539666D01*
X143676921Y-103434844D01*
X143587776Y-103345699D01*
X143482954Y-103275659D01*
X143366481Y-103227415D01*
X143242835Y-103202820D01*
X143116765Y-103202820D01*
X142993119Y-103227415D01*
X142876646Y-103275659D01*
X142771824Y-103345699D01*
X142682679Y-103434844D01*
X142612639Y-103539666D01*
X142564395Y-103656139D01*
X142539800Y-103779785D01*
X142539800Y-103905855D01*
X142564395Y-104029501D01*
X142612639Y-104145974D01*
X142682679Y-104250796D01*
X142691501Y-104259618D01*
X142691501Y-104263206D01*
X142690339Y-104275000D01*
X142690339Y-105925000D01*
X142691501Y-105936792D01*
X142691501Y-106507918D01*
X142619904Y-106546188D01*
X142553052Y-106601052D01*
X142498188Y-106667904D01*
X142457420Y-106744175D01*
X142432316Y-106826934D01*
X142423839Y-106913000D01*
X142423839Y-107463000D01*
X142432316Y-107549066D01*
X142457420Y-107631825D01*
X142498188Y-107708096D01*
X142553052Y-107774948D01*
X142619904Y-107829812D01*
X142629610Y-107835000D01*
X140740494Y-107835000D01*
X140742661Y-107813000D01*
X140742661Y-106563000D01*
X140738027Y-106515952D01*
X140724304Y-106470712D01*
X140702018Y-106429018D01*
X140672027Y-106392473D01*
X140635482Y-106362482D01*
X140593788Y-106340196D01*
X140548548Y-106326473D01*
X140501500Y-106321839D01*
X139501500Y-106321839D01*
X139454452Y-106326473D01*
X139409212Y-106340196D01*
X139367518Y-106362482D01*
X139330973Y-106392473D01*
X139300982Y-106429018D01*
X139278696Y-106470712D01*
X139264973Y-106515952D01*
X139260339Y-106563000D01*
X139260339Y-106598475D01*
X139206346Y-106620839D01*
X139101524Y-106690879D01*
X139012379Y-106780024D01*
X138942339Y-106884846D01*
X138894095Y-107001319D01*
X138869500Y-107124965D01*
X138869500Y-107251035D01*
X138894095Y-107374681D01*
X138942339Y-107491154D01*
X139012379Y-107595976D01*
X139101524Y-107685121D01*
X139206346Y-107755161D01*
X139260339Y-107777525D01*
X139260339Y-107813000D01*
X139262506Y-107835000D01*
X138740494Y-107835000D01*
X138742661Y-107813000D01*
X138742661Y-106563000D01*
X138738027Y-106515952D01*
X138724304Y-106470712D01*
X138702018Y-106429018D01*
X138672027Y-106392473D01*
X138635482Y-106362482D01*
X138593788Y-106340196D01*
X138548548Y-106326473D01*
X138501500Y-106321839D01*
X138471500Y-106321839D01*
X138471500Y-106287714D01*
X138506500Y-106291161D01*
X138756500Y-106291161D01*
X138827934Y-106284125D01*
X138896624Y-106263289D01*
X138956500Y-106231284D01*
X139016376Y-106263289D01*
X139085066Y-106284125D01*
X139156500Y-106291161D01*
X139406500Y-106291161D01*
X139477934Y-106284125D01*
X139546624Y-106263289D01*
X139606500Y-106231284D01*
X139666376Y-106263289D01*
X139735066Y-106284125D01*
X139806500Y-106291161D01*
X140056500Y-106291161D01*
X140127934Y-106284125D01*
X140196624Y-106263289D01*
X140256500Y-106231284D01*
X140316376Y-106263289D01*
X140385066Y-106284125D01*
X140456500Y-106291161D01*
X140706500Y-106291161D01*
X140777934Y-106284125D01*
X140846624Y-106263289D01*
X140906500Y-106231284D01*
X140966376Y-106263289D01*
X141035066Y-106284125D01*
X141106500Y-106291161D01*
X141356500Y-106291161D01*
X141427934Y-106284125D01*
X141496624Y-106263289D01*
X141556500Y-106231284D01*
X141616376Y-106263289D01*
X141685066Y-106284125D01*
X141756500Y-106291161D01*
X142006500Y-106291161D01*
X142077934Y-106284125D01*
X142146624Y-106263289D01*
X142209928Y-106229452D01*
X142265415Y-106183915D01*
X142310952Y-106128428D01*
X142344789Y-106065124D01*
X142365625Y-105996434D01*
X142372661Y-105925000D01*
X142372661Y-104275000D01*
X142365625Y-104203566D01*
X142344789Y-104134876D01*
X142310952Y-104071572D01*
X142265415Y-104016085D01*
X142209928Y-103970548D01*
X142146624Y-103936711D01*
X142077934Y-103915875D01*
X142006500Y-103908839D01*
X141756500Y-103908839D01*
X141685066Y-103915875D01*
X141616376Y-103936711D01*
X141556500Y-103968716D01*
X141496624Y-103936711D01*
X141427934Y-103915875D01*
X141356500Y-103908839D01*
X141106500Y-103908839D01*
X141071500Y-103912286D01*
X141071500Y-102782060D01*
X141073870Y-102757998D01*
X141064409Y-102661941D01*
X141036391Y-102569576D01*
X140990891Y-102484452D01*
X140959615Y-102446343D01*
X140929658Y-102409840D01*
X140910964Y-102394498D01*
X139809000Y-101292535D01*
X139809000Y-101062597D01*
X139816121Y-101055476D01*
X139886161Y-100950654D01*
X139934405Y-100834181D01*
X139959000Y-100710535D01*
X139959000Y-100584465D01*
X139934405Y-100460819D01*
X139886161Y-100344346D01*
X139816121Y-100239524D01*
X139726976Y-100150379D01*
X139622154Y-100080339D01*
X139505681Y-100032095D01*
X139382035Y-100007500D01*
X139255965Y-100007500D01*
X139132319Y-100032095D01*
X139015846Y-100080339D01*
X138911024Y-100150379D01*
X138821879Y-100239524D01*
X138751839Y-100344346D01*
X138703595Y-100460819D01*
X138679000Y-100584465D01*
X138679000Y-100710535D01*
X138703595Y-100834181D01*
X138751839Y-100950654D01*
X138821879Y-101055476D01*
X138829000Y-101062597D01*
X138829001Y-101471434D01*
X138826631Y-101495498D01*
X138836091Y-101591554D01*
X138853174Y-101647869D01*
X138864110Y-101683920D01*
X138909610Y-101769044D01*
X138970843Y-101843656D01*
X138989536Y-101858997D01*
X139184295Y-102053756D01*
X139132319Y-102064095D01*
X139015846Y-102112339D01*
X138911024Y-102182379D01*
X138821879Y-102271524D01*
X138751839Y-102376346D01*
X138703595Y-102492819D01*
X138679000Y-102616465D01*
X138679000Y-102742535D01*
X138703595Y-102866181D01*
X138751839Y-102982654D01*
X138821879Y-103087476D01*
X138911024Y-103176621D01*
X139015846Y-103246661D01*
X139132319Y-103294905D01*
X139255965Y-103319500D01*
X139266037Y-103319500D01*
X139441501Y-103494965D01*
X139441501Y-103912286D01*
X139406500Y-103908839D01*
X139156500Y-103908839D01*
X139085066Y-103915875D01*
X139016376Y-103936711D01*
X138956500Y-103968716D01*
X138896624Y-103936711D01*
X138827934Y-103915875D01*
X138756500Y-103908839D01*
X138506500Y-103908839D01*
X138435066Y-103915875D01*
X138366376Y-103936711D01*
X138306500Y-103968716D01*
X138246624Y-103936711D01*
X138177934Y-103915875D01*
X138106500Y-103908839D01*
X137856500Y-103908839D01*
X137785066Y-103915875D01*
X137716376Y-103936711D01*
X137653072Y-103970548D01*
X137597585Y-104016085D01*
X137552048Y-104071572D01*
X137518211Y-104134876D01*
X137497375Y-104203566D01*
X137490339Y-104275000D01*
X137490339Y-105925000D01*
X137491500Y-105936792D01*
X137491501Y-106322824D01*
X137454452Y-106326473D01*
X137409212Y-106340196D01*
X137367518Y-106362482D01*
X137330973Y-106392473D01*
X137300982Y-106429018D01*
X137278696Y-106470712D01*
X137275000Y-106482896D01*
X137275000Y-95365000D01*
X145175247Y-95365000D01*
X145178208Y-95395065D01*
%TA.AperFunction,Conductor*%
D19*
G36*
X145178208Y-95395065D02*
G01*
X145185923Y-95420499D01*
X139843861Y-95420499D01*
X139819806Y-95418130D01*
X139795751Y-95420499D01*
X139795745Y-95420499D01*
X139723750Y-95427590D01*
X139631385Y-95455608D01*
X139546261Y-95501108D01*
X139471649Y-95562341D01*
X139456303Y-95581040D01*
X139426846Y-95610497D01*
X139426840Y-95610502D01*
X139189194Y-95848148D01*
X139189184Y-95848157D01*
X138732637Y-96304706D01*
X138665486Y-96340599D01*
X138590874Y-96401832D01*
X138575528Y-96420531D01*
X138302041Y-96694018D01*
X138283342Y-96709364D01*
X138222109Y-96783976D01*
X138176609Y-96869101D01*
X138148591Y-96961466D01*
X138141500Y-97033461D01*
X138141500Y-97033467D01*
X138139131Y-97057522D01*
X138141500Y-97081577D01*
X138141500Y-97263211D01*
X138140339Y-97275000D01*
X138140339Y-98925000D01*
X138147375Y-98996434D01*
X138168211Y-99065124D01*
X138202048Y-99128428D01*
X138247585Y-99183915D01*
X138303072Y-99229452D01*
X138366376Y-99263289D01*
X138435066Y-99284125D01*
X138506500Y-99291161D01*
X138756500Y-99291161D01*
X138827934Y-99284125D01*
X138896624Y-99263289D01*
X138956500Y-99231284D01*
X139016376Y-99263289D01*
X139085066Y-99284125D01*
X139156500Y-99291161D01*
X139406500Y-99291161D01*
X139477934Y-99284125D01*
X139546624Y-99263289D01*
X139606500Y-99231284D01*
X139666376Y-99263289D01*
X139735066Y-99284125D01*
X139806500Y-99291161D01*
X140056500Y-99291161D01*
X140127934Y-99284125D01*
X140196624Y-99263289D01*
X140256500Y-99231284D01*
X140316376Y-99263289D01*
X140385066Y-99284125D01*
X140456500Y-99291161D01*
X140706500Y-99291161D01*
X140741501Y-99287714D01*
X140741501Y-100216937D01*
X140739131Y-100241002D01*
X140748591Y-100337058D01*
X140764061Y-100388055D01*
X140776610Y-100429424D01*
X140822110Y-100514548D01*
X140883343Y-100589160D01*
X140902036Y-100604501D01*
X143421500Y-103123965D01*
X143436841Y-103142659D01*
X143511453Y-103203892D01*
X143596577Y-103249392D01*
X143688942Y-103277410D01*
X143760937Y-103284501D01*
X143760944Y-103284501D01*
X143784999Y-103286870D01*
X143809054Y-103284501D01*
X144477339Y-103284501D01*
X144477339Y-103505400D01*
X144487057Y-103604069D01*
X144515838Y-103698946D01*
X144562575Y-103786386D01*
X144625473Y-103863027D01*
X144702114Y-103925925D01*
X144789554Y-103972662D01*
X144884431Y-104001443D01*
X144983100Y-104011161D01*
X147653900Y-104011161D01*
X147752569Y-104001443D01*
X147840001Y-103974921D01*
X147840001Y-107835000D01*
X145088890Y-107835000D01*
X145098596Y-107829812D01*
X145165448Y-107774948D01*
X145220312Y-107708096D01*
X145261080Y-107631825D01*
X145286184Y-107549066D01*
X145294661Y-107463000D01*
X145294661Y-106913000D01*
X145286184Y-106826934D01*
X145261080Y-106744175D01*
X145220312Y-106667904D01*
X145165448Y-106601052D01*
X145098596Y-106546188D01*
X145022325Y-106505420D01*
X144939566Y-106480316D01*
X144853500Y-106471839D01*
X144630303Y-106471839D01*
X144321500Y-106163037D01*
X144321500Y-105936787D01*
X144322661Y-105925000D01*
X144322661Y-104275000D01*
X144315625Y-104203566D01*
X144294789Y-104134876D01*
X144260952Y-104071572D01*
X144215415Y-104016085D01*
X144159928Y-103970548D01*
X144096624Y-103936711D01*
X144027934Y-103915875D01*
X143956500Y-103908839D01*
X143819206Y-103908839D01*
X143819800Y-103905855D01*
X143819800Y-103779785D01*
X143795205Y-103656139D01*
X143746961Y-103539666D01*
X143676921Y-103434844D01*
X143587776Y-103345699D01*
X143482954Y-103275659D01*
X143366481Y-103227415D01*
X143242835Y-103202820D01*
X143116765Y-103202820D01*
X142993119Y-103227415D01*
X142876646Y-103275659D01*
X142771824Y-103345699D01*
X142682679Y-103434844D01*
X142612639Y-103539666D01*
X142564395Y-103656139D01*
X142539800Y-103779785D01*
X142539800Y-103905855D01*
X142564395Y-104029501D01*
X142612639Y-104145974D01*
X142682679Y-104250796D01*
X142691501Y-104259618D01*
X142691501Y-104263206D01*
X142690339Y-104275000D01*
X142690339Y-105925000D01*
X142691501Y-105936792D01*
X142691501Y-106507918D01*
X142619904Y-106546188D01*
X142553052Y-106601052D01*
X142498188Y-106667904D01*
X142457420Y-106744175D01*
X142432316Y-106826934D01*
X142423839Y-106913000D01*
X142423839Y-107463000D01*
X142432316Y-107549066D01*
X142457420Y-107631825D01*
X142498188Y-107708096D01*
X142553052Y-107774948D01*
X142619904Y-107829812D01*
X142629610Y-107835000D01*
X140740494Y-107835000D01*
X140742661Y-107813000D01*
X140742661Y-106563000D01*
X140738027Y-106515952D01*
X140724304Y-106470712D01*
X140702018Y-106429018D01*
X140672027Y-106392473D01*
X140635482Y-106362482D01*
X140593788Y-106340196D01*
X140548548Y-106326473D01*
X140501500Y-106321839D01*
X139501500Y-106321839D01*
X139454452Y-106326473D01*
X139409212Y-106340196D01*
X139367518Y-106362482D01*
X139330973Y-106392473D01*
X139300982Y-106429018D01*
X139278696Y-106470712D01*
X139264973Y-106515952D01*
X139260339Y-106563000D01*
X139260339Y-106598475D01*
X139206346Y-106620839D01*
X139101524Y-106690879D01*
X139012379Y-106780024D01*
X138942339Y-106884846D01*
X138894095Y-107001319D01*
X138869500Y-107124965D01*
X138869500Y-107251035D01*
X138894095Y-107374681D01*
X138942339Y-107491154D01*
X139012379Y-107595976D01*
X139101524Y-107685121D01*
X139206346Y-107755161D01*
X139260339Y-107777525D01*
X139260339Y-107813000D01*
X139262506Y-107835000D01*
X138740494Y-107835000D01*
X138742661Y-107813000D01*
X138742661Y-106563000D01*
X138738027Y-106515952D01*
X138724304Y-106470712D01*
X138702018Y-106429018D01*
X138672027Y-106392473D01*
X138635482Y-106362482D01*
X138593788Y-106340196D01*
X138548548Y-106326473D01*
X138501500Y-106321839D01*
X138471500Y-106321839D01*
X138471500Y-106287714D01*
X138506500Y-106291161D01*
X138756500Y-106291161D01*
X138827934Y-106284125D01*
X138896624Y-106263289D01*
X138956500Y-106231284D01*
X139016376Y-106263289D01*
X139085066Y-106284125D01*
X139156500Y-106291161D01*
X139406500Y-106291161D01*
X139477934Y-106284125D01*
X139546624Y-106263289D01*
X139606500Y-106231284D01*
X139666376Y-106263289D01*
X139735066Y-106284125D01*
X139806500Y-106291161D01*
X140056500Y-106291161D01*
X140127934Y-106284125D01*
X140196624Y-106263289D01*
X140256500Y-106231284D01*
X140316376Y-106263289D01*
X140385066Y-106284125D01*
X140456500Y-106291161D01*
X140706500Y-106291161D01*
X140777934Y-106284125D01*
X140846624Y-106263289D01*
X140906500Y-106231284D01*
X140966376Y-106263289D01*
X141035066Y-106284125D01*
X141106500Y-106291161D01*
X141356500Y-106291161D01*
X141427934Y-106284125D01*
X141496624Y-106263289D01*
X141556500Y-106231284D01*
X141616376Y-106263289D01*
X141685066Y-106284125D01*
X141756500Y-106291161D01*
X142006500Y-106291161D01*
X142077934Y-106284125D01*
X142146624Y-106263289D01*
X142209928Y-106229452D01*
X142265415Y-106183915D01*
X142310952Y-106128428D01*
X142344789Y-106065124D01*
X142365625Y-105996434D01*
X142372661Y-105925000D01*
X142372661Y-104275000D01*
X142365625Y-104203566D01*
X142344789Y-104134876D01*
X142310952Y-104071572D01*
X142265415Y-104016085D01*
X142209928Y-103970548D01*
X142146624Y-103936711D01*
X142077934Y-103915875D01*
X142006500Y-103908839D01*
X141756500Y-103908839D01*
X141685066Y-103915875D01*
X141616376Y-103936711D01*
X141556500Y-103968716D01*
X141496624Y-103936711D01*
X141427934Y-103915875D01*
X141356500Y-103908839D01*
X141106500Y-103908839D01*
X141071500Y-103912286D01*
X141071500Y-102782060D01*
X141073870Y-102757998D01*
X141064409Y-102661941D01*
X141036391Y-102569576D01*
X140990891Y-102484452D01*
X140959615Y-102446343D01*
X140929658Y-102409840D01*
X140910964Y-102394498D01*
X139809000Y-101292535D01*
X139809000Y-101062597D01*
X139816121Y-101055476D01*
X139886161Y-100950654D01*
X139934405Y-100834181D01*
X139959000Y-100710535D01*
X139959000Y-100584465D01*
X139934405Y-100460819D01*
X139886161Y-100344346D01*
X139816121Y-100239524D01*
X139726976Y-100150379D01*
X139622154Y-100080339D01*
X139505681Y-100032095D01*
X139382035Y-100007500D01*
X139255965Y-100007500D01*
X139132319Y-100032095D01*
X139015846Y-100080339D01*
X138911024Y-100150379D01*
X138821879Y-100239524D01*
X138751839Y-100344346D01*
X138703595Y-100460819D01*
X138679000Y-100584465D01*
X138679000Y-100710535D01*
X138703595Y-100834181D01*
X138751839Y-100950654D01*
X138821879Y-101055476D01*
X138829000Y-101062597D01*
X138829001Y-101471434D01*
X138826631Y-101495498D01*
X138836091Y-101591554D01*
X138853174Y-101647869D01*
X138864110Y-101683920D01*
X138909610Y-101769044D01*
X138970843Y-101843656D01*
X138989536Y-101858997D01*
X139184295Y-102053756D01*
X139132319Y-102064095D01*
X139015846Y-102112339D01*
X138911024Y-102182379D01*
X138821879Y-102271524D01*
X138751839Y-102376346D01*
X138703595Y-102492819D01*
X138679000Y-102616465D01*
X138679000Y-102742535D01*
X138703595Y-102866181D01*
X138751839Y-102982654D01*
X138821879Y-103087476D01*
X138911024Y-103176621D01*
X139015846Y-103246661D01*
X139132319Y-103294905D01*
X139255965Y-103319500D01*
X139266037Y-103319500D01*
X139441501Y-103494965D01*
X139441501Y-103912286D01*
X139406500Y-103908839D01*
X139156500Y-103908839D01*
X139085066Y-103915875D01*
X139016376Y-103936711D01*
X138956500Y-103968716D01*
X138896624Y-103936711D01*
X138827934Y-103915875D01*
X138756500Y-103908839D01*
X138506500Y-103908839D01*
X138435066Y-103915875D01*
X138366376Y-103936711D01*
X138306500Y-103968716D01*
X138246624Y-103936711D01*
X138177934Y-103915875D01*
X138106500Y-103908839D01*
X137856500Y-103908839D01*
X137785066Y-103915875D01*
X137716376Y-103936711D01*
X137653072Y-103970548D01*
X137597585Y-104016085D01*
X137552048Y-104071572D01*
X137518211Y-104134876D01*
X137497375Y-104203566D01*
X137490339Y-104275000D01*
X137490339Y-105925000D01*
X137491500Y-105936792D01*
X137491501Y-106322824D01*
X137454452Y-106326473D01*
X137409212Y-106340196D01*
X137367518Y-106362482D01*
X137330973Y-106392473D01*
X137300982Y-106429018D01*
X137278696Y-106470712D01*
X137275000Y-106482896D01*
X137275000Y-95365000D01*
X145175247Y-95365000D01*
X145178208Y-95395065D01*
G37*
%TD.AperFunction*%
%TD*%
M02*
