%TF.GenerationSoftware,KiCad,Pcbnew,(5.1.8)-1*%
%TF.CreationDate,2022-12-23T20:51:48-06:00*%
%TF.ProjectId,pcb,7063622e-6b69-4636-9164-5f7063625858,rev?*%
%TF.SameCoordinates,Original*%
%TF.FileFunction,Legend,Bot*%
%TF.FilePolarity,Positive*%
%FSLAX46Y46*%
G04 Gerber Fmt 4.6, Leading zero omitted, Abs format (unit mm)*
G04 Created by KiCad (PCBNEW (5.1.8)-1) date 2022-12-23 20:51:48*
%MOMM*%
%LPD*%
G01*
G04 APERTURE LIST*
%ADD10C,0.120000*%
%ADD11C,0.100000*%
G04 APERTURE END LIST*
D10*
X147559523Y-107549904D02*
X147559523Y-106749904D01*
X147254761Y-106749904D01*
X147178571Y-106788000D01*
X147140476Y-106826095D01*
X147102380Y-106902285D01*
X147102380Y-107016571D01*
X147140476Y-107092761D01*
X147178571Y-107130857D01*
X147254761Y-107168952D01*
X147559523Y-107168952D01*
X146797619Y-107511809D02*
X146683333Y-107549904D01*
X146492857Y-107549904D01*
X146416666Y-107511809D01*
X146378571Y-107473714D01*
X146340476Y-107397523D01*
X146340476Y-107321333D01*
X146378571Y-107245142D01*
X146416666Y-107207047D01*
X146492857Y-107168952D01*
X146645238Y-107130857D01*
X146721428Y-107092761D01*
X146759523Y-107054666D01*
X146797619Y-106978476D01*
X146797619Y-106902285D01*
X146759523Y-106826095D01*
X146721428Y-106788000D01*
X146645238Y-106749904D01*
X146454761Y-106749904D01*
X146340476Y-106788000D01*
X145426190Y-106711809D02*
X146111904Y-107740380D01*
X145197619Y-106826095D02*
X145159523Y-106788000D01*
X145083333Y-106749904D01*
X144892857Y-106749904D01*
X144816666Y-106788000D01*
X144778571Y-106826095D01*
X144740476Y-106902285D01*
X144740476Y-106978476D01*
X144778571Y-107092761D01*
X145235714Y-107549904D01*
X144740476Y-107549904D01*
X140193523Y-106749904D02*
X140193523Y-107397523D01*
X140155428Y-107473714D01*
X140117333Y-107511809D01*
X140041142Y-107549904D01*
X139888761Y-107549904D01*
X139812571Y-107511809D01*
X139774476Y-107473714D01*
X139736380Y-107397523D01*
X139736380Y-106749904D01*
X139393523Y-107511809D02*
X139279238Y-107549904D01*
X139088761Y-107549904D01*
X139012571Y-107511809D01*
X138974476Y-107473714D01*
X138936380Y-107397523D01*
X138936380Y-107321333D01*
X138974476Y-107245142D01*
X139012571Y-107207047D01*
X139088761Y-107168952D01*
X139241142Y-107130857D01*
X139317333Y-107092761D01*
X139355428Y-107054666D01*
X139393523Y-106978476D01*
X139393523Y-106902285D01*
X139355428Y-106826095D01*
X139317333Y-106788000D01*
X139241142Y-106749904D01*
X139050666Y-106749904D01*
X138936380Y-106788000D01*
X138326857Y-107130857D02*
X138212571Y-107168952D01*
X138174476Y-107207047D01*
X138136380Y-107283238D01*
X138136380Y-107397523D01*
X138174476Y-107473714D01*
X138212571Y-107511809D01*
X138288761Y-107549904D01*
X138593523Y-107549904D01*
X138593523Y-106749904D01*
X138326857Y-106749904D01*
X138250666Y-106788000D01*
X138212571Y-106826095D01*
X138174476Y-106902285D01*
X138174476Y-106978476D01*
X138212571Y-107054666D01*
X138250666Y-107092761D01*
X138326857Y-107130857D01*
X138593523Y-107130857D01*
X141306595Y-103320761D02*
X142106595Y-103320761D01*
X142106595Y-103130285D01*
X142068500Y-103016000D01*
X141992309Y-102939809D01*
X141916119Y-102901714D01*
X141763738Y-102863619D01*
X141649452Y-102863619D01*
X141497071Y-102901714D01*
X141420880Y-102939809D01*
X141344690Y-103016000D01*
X141306595Y-103130285D01*
X141306595Y-103320761D01*
X141611357Y-102520761D02*
X141611357Y-101911238D01*
X141306595Y-102216000D02*
X141916119Y-102216000D01*
X141306595Y-101288761D02*
X142106595Y-101288761D01*
X142106595Y-101098285D01*
X142068500Y-100984000D01*
X141992309Y-100907809D01*
X141916119Y-100869714D01*
X141763738Y-100831619D01*
X141649452Y-100831619D01*
X141497071Y-100869714D01*
X141420880Y-100907809D01*
X141344690Y-100984000D01*
X141306595Y-101098285D01*
X141306595Y-101288761D01*
X141611357Y-100488761D02*
X141611357Y-99879238D01*
X142068500Y-105702023D02*
X142106595Y-105778214D01*
X142106595Y-105892500D01*
X142068500Y-106006785D01*
X141992309Y-106082976D01*
X141916119Y-106121071D01*
X141763738Y-106159166D01*
X141649452Y-106159166D01*
X141497071Y-106121071D01*
X141420880Y-106082976D01*
X141344690Y-106006785D01*
X141306595Y-105892500D01*
X141306595Y-105816309D01*
X141344690Y-105702023D01*
X141382785Y-105663928D01*
X141649452Y-105663928D01*
X141649452Y-105816309D01*
X141306595Y-105321071D02*
X142106595Y-105321071D01*
X141306595Y-104863928D01*
X142106595Y-104863928D01*
X141306595Y-104482976D02*
X142106595Y-104482976D01*
X142106595Y-104292500D01*
X142068500Y-104178214D01*
X141992309Y-104102023D01*
X141916119Y-104063928D01*
X141763738Y-104025833D01*
X141649452Y-104025833D01*
X141497071Y-104063928D01*
X141420880Y-104102023D01*
X141344690Y-104178214D01*
X141306595Y-104292500D01*
X141306595Y-104482976D01*
X141611357Y-99263071D02*
X141611357Y-98653547D01*
X141306595Y-98958309D02*
X141916119Y-98958309D01*
X142106595Y-97891642D02*
X142106595Y-98272595D01*
X141725642Y-98310690D01*
X141763738Y-98272595D01*
X141801833Y-98196404D01*
X141801833Y-98005928D01*
X141763738Y-97929738D01*
X141725642Y-97891642D01*
X141649452Y-97853547D01*
X141458976Y-97853547D01*
X141382785Y-97891642D01*
X141344690Y-97929738D01*
X141306595Y-98005928D01*
X141306595Y-98196404D01*
X141344690Y-98272595D01*
X141382785Y-98310690D01*
X142106595Y-97624976D02*
X141306595Y-97358309D01*
X142106595Y-97091642D01*
X143681500Y-104800476D02*
X143643404Y-104724285D01*
X143643404Y-104610000D01*
X143681500Y-104495714D01*
X143757690Y-104419523D01*
X143833880Y-104381428D01*
X143986261Y-104343333D01*
X144100547Y-104343333D01*
X144252928Y-104381428D01*
X144329119Y-104419523D01*
X144405309Y-104495714D01*
X144443404Y-104610000D01*
X144443404Y-104686190D01*
X144405309Y-104800476D01*
X144367214Y-104838571D01*
X144100547Y-104838571D01*
X144100547Y-104686190D01*
X144443404Y-105181428D02*
X143643404Y-105181428D01*
X144443404Y-105638571D01*
X143643404Y-105638571D01*
X144443404Y-106019523D02*
X143643404Y-106019523D01*
X143643404Y-106210000D01*
X143681500Y-106324285D01*
X143757690Y-106400476D01*
X143833880Y-106438571D01*
X143986261Y-106476666D01*
X144100547Y-106476666D01*
X144252928Y-106438571D01*
X144329119Y-106400476D01*
X144405309Y-106324285D01*
X144443404Y-106210000D01*
X144443404Y-106019523D01*
X146620666Y-101366666D02*
X145920666Y-101366666D01*
X146420666Y-101600000D01*
X145920666Y-101833333D01*
X146620666Y-101833333D01*
X144075142Y-96761428D02*
X144075142Y-97370952D01*
X144379904Y-97066190D02*
X143770380Y-97066190D01*
X143579904Y-98132857D02*
X143579904Y-97751904D01*
X143960857Y-97713809D01*
X143922761Y-97751904D01*
X143884666Y-97828095D01*
X143884666Y-98018571D01*
X143922761Y-98094761D01*
X143960857Y-98132857D01*
X144037047Y-98170952D01*
X144227523Y-98170952D01*
X144303714Y-98132857D01*
X144341809Y-98094761D01*
X144379904Y-98018571D01*
X144379904Y-97828095D01*
X144341809Y-97751904D01*
X144303714Y-97713809D01*
X143579904Y-98399523D02*
X144379904Y-98666190D01*
X143579904Y-98932857D01*
X144494214Y-103689119D02*
X144532309Y-103651023D01*
X144570404Y-103536738D01*
X144570404Y-103460547D01*
X144532309Y-103346261D01*
X144456119Y-103270071D01*
X144379928Y-103231976D01*
X144227547Y-103193880D01*
X144113261Y-103193880D01*
X143960880Y-103231976D01*
X143884690Y-103270071D01*
X143808500Y-103346261D01*
X143770404Y-103460547D01*
X143770404Y-103536738D01*
X143808500Y-103651023D01*
X143846595Y-103689119D01*
X144506904Y-99485476D02*
X143706904Y-99485476D01*
X143706904Y-99675952D01*
X143745000Y-99790238D01*
X143821190Y-99866428D01*
X143897380Y-99904523D01*
X144049761Y-99942619D01*
X144164047Y-99942619D01*
X144316428Y-99904523D01*
X144392619Y-99866428D01*
X144468809Y-99790238D01*
X144506904Y-99675952D01*
X144506904Y-99485476D01*
D11*
%TO.C,C1*%
X142250000Y-103711500D02*
X142250000Y-105711500D01*
X143500000Y-103711500D02*
X143500000Y-105711500D01*
%TO.C,R1*%
X144462500Y-96520000D02*
X143573500Y-96520000D01*
X144462500Y-95504000D02*
X143573500Y-95504000D01*
%TO.C,R2*%
X140589000Y-96520000D02*
X141478000Y-96520000D01*
X140589000Y-95504000D02*
X141478000Y-95504000D01*
%TO.C,R3*%
X143065500Y-100203000D02*
X143954500Y-100203000D01*
X143065500Y-101219000D02*
X143954500Y-101219000D01*
%TO.C,R4*%
X143065500Y-102997000D02*
X143954500Y-102997000D01*
X143065500Y-101981000D02*
X143954500Y-101981000D01*
%TO.C,R5*%
X142684500Y-106680000D02*
X141795500Y-106680000D01*
X142684500Y-107696000D02*
X141795500Y-107696000D01*
%TO.C,C1*%
X142958333Y-104890071D02*
X142982142Y-104913880D01*
X143053571Y-104937690D01*
X143101190Y-104937690D01*
X143172619Y-104913880D01*
X143220238Y-104866261D01*
X143244047Y-104818642D01*
X143267857Y-104723404D01*
X143267857Y-104651976D01*
X143244047Y-104556738D01*
X143220238Y-104509119D01*
X143172619Y-104461500D01*
X143101190Y-104437690D01*
X143053571Y-104437690D01*
X142982142Y-104461500D01*
X142958333Y-104485309D01*
X142482142Y-104937690D02*
X142767857Y-104937690D01*
X142625000Y-104937690D02*
X142625000Y-104437690D01*
X142672619Y-104509119D01*
X142720238Y-104556738D01*
X142767857Y-104580547D01*
%TO.C,R1*%
X144244190Y-95928666D02*
X144006095Y-95762000D01*
X144244190Y-95642952D02*
X143744190Y-95642952D01*
X143744190Y-95833428D01*
X143768000Y-95881047D01*
X143791809Y-95904857D01*
X143839428Y-95928666D01*
X143910857Y-95928666D01*
X143958476Y-95904857D01*
X143982285Y-95881047D01*
X144006095Y-95833428D01*
X144006095Y-95642952D01*
X144244190Y-96404857D02*
X144244190Y-96119142D01*
X144244190Y-96262000D02*
X143744190Y-96262000D01*
X143815619Y-96214380D01*
X143863238Y-96166761D01*
X143887047Y-96119142D01*
%TO.C,R2*%
X141259690Y-95928666D02*
X141021595Y-95762000D01*
X141259690Y-95642952D02*
X140759690Y-95642952D01*
X140759690Y-95833428D01*
X140783500Y-95881047D01*
X140807309Y-95904857D01*
X140854928Y-95928666D01*
X140926357Y-95928666D01*
X140973976Y-95904857D01*
X140997785Y-95881047D01*
X141021595Y-95833428D01*
X141021595Y-95642952D01*
X140807309Y-96119142D02*
X140783500Y-96142952D01*
X140759690Y-96190571D01*
X140759690Y-96309619D01*
X140783500Y-96357238D01*
X140807309Y-96381047D01*
X140854928Y-96404857D01*
X140902547Y-96404857D01*
X140973976Y-96381047D01*
X141259690Y-96095333D01*
X141259690Y-96404857D01*
%TO.C,R3*%
X143736190Y-100627666D02*
X143498095Y-100461000D01*
X143736190Y-100341952D02*
X143236190Y-100341952D01*
X143236190Y-100532428D01*
X143260000Y-100580047D01*
X143283809Y-100603857D01*
X143331428Y-100627666D01*
X143402857Y-100627666D01*
X143450476Y-100603857D01*
X143474285Y-100580047D01*
X143498095Y-100532428D01*
X143498095Y-100341952D01*
X143236190Y-100794333D02*
X143236190Y-101103857D01*
X143426666Y-100937190D01*
X143426666Y-101008619D01*
X143450476Y-101056238D01*
X143474285Y-101080047D01*
X143521904Y-101103857D01*
X143640952Y-101103857D01*
X143688571Y-101080047D01*
X143712380Y-101056238D01*
X143736190Y-101008619D01*
X143736190Y-100865761D01*
X143712380Y-100818142D01*
X143688571Y-100794333D01*
%TO.C,R4*%
X143736190Y-102405666D02*
X143498095Y-102239000D01*
X143736190Y-102119952D02*
X143236190Y-102119952D01*
X143236190Y-102310428D01*
X143260000Y-102358047D01*
X143283809Y-102381857D01*
X143331428Y-102405666D01*
X143402857Y-102405666D01*
X143450476Y-102381857D01*
X143474285Y-102358047D01*
X143498095Y-102310428D01*
X143498095Y-102119952D01*
X143402857Y-102834238D02*
X143736190Y-102834238D01*
X143212380Y-102715190D02*
X143569523Y-102596142D01*
X143569523Y-102905666D01*
%TO.C,R5*%
X142466190Y-107104666D02*
X142228095Y-106938000D01*
X142466190Y-106818952D02*
X141966190Y-106818952D01*
X141966190Y-107009428D01*
X141990000Y-107057047D01*
X142013809Y-107080857D01*
X142061428Y-107104666D01*
X142132857Y-107104666D01*
X142180476Y-107080857D01*
X142204285Y-107057047D01*
X142228095Y-107009428D01*
X142228095Y-106818952D01*
X141966190Y-107557047D02*
X141966190Y-107318952D01*
X142204285Y-107295142D01*
X142180476Y-107318952D01*
X142156666Y-107366571D01*
X142156666Y-107485619D01*
X142180476Y-107533238D01*
X142204285Y-107557047D01*
X142251904Y-107580857D01*
X142370952Y-107580857D01*
X142418571Y-107557047D01*
X142442380Y-107533238D01*
X142466190Y-107485619D01*
X142466190Y-107366571D01*
X142442380Y-107318952D01*
X142418571Y-107295142D01*
%TD*%
M02*
