%TF.GenerationSoftware,KiCad,Pcbnew,(5.1.8)-1*%
%TF.CreationDate,2022-12-23T20:51:48-06:00*%
%TF.ProjectId,pcb,7063622e-6b69-4636-9164-5f7063625858,rev?*%
%TF.SameCoordinates,Original*%
%TF.FileFunction,Soldermask,Top*%
%TF.FilePolarity,Negative*%
%FSLAX46Y46*%
G04 Gerber Fmt 4.6, Leading zero omitted, Abs format (unit mm)*
G04 Created by KiCad (PCBNEW (5.1.8)-1) date 2022-12-23 20:51:48*
%MOMM*%
%LPD*%
G01*
G04 APERTURE LIST*
%ADD10O,2.400000X1.000000*%
%ADD11O,2.100000X1.000000*%
%ADD12R,1.000000X1.250000*%
G04 APERTURE END LIST*
D10*
%TO.C,P1*%
X137985500Y-95250000D03*
%TD*%
D11*
%TO.C,SW1*%
X146457500Y-95250000D03*
X138657500Y-95250000D03*
%TD*%
%TO.C,U1*%
G36*
G01*
X143706500Y-97150000D02*
X143956500Y-97150000D01*
G75*
G02*
X144081500Y-97275000I0J-125000D01*
G01*
X144081500Y-98925000D01*
G75*
G02*
X143956500Y-99050000I-125000J0D01*
G01*
X143706500Y-99050000D01*
G75*
G02*
X143581500Y-98925000I0J125000D01*
G01*
X143581500Y-97275000D01*
G75*
G02*
X143706500Y-97150000I125000J0D01*
G01*
G37*
G36*
G01*
X143056500Y-97150000D02*
X143306500Y-97150000D01*
G75*
G02*
X143431500Y-97275000I0J-125000D01*
G01*
X143431500Y-98925000D01*
G75*
G02*
X143306500Y-99050000I-125000J0D01*
G01*
X143056500Y-99050000D01*
G75*
G02*
X142931500Y-98925000I0J125000D01*
G01*
X142931500Y-97275000D01*
G75*
G02*
X143056500Y-97150000I125000J0D01*
G01*
G37*
G36*
G01*
X142406500Y-97150000D02*
X142656500Y-97150000D01*
G75*
G02*
X142781500Y-97275000I0J-125000D01*
G01*
X142781500Y-98925000D01*
G75*
G02*
X142656500Y-99050000I-125000J0D01*
G01*
X142406500Y-99050000D01*
G75*
G02*
X142281500Y-98925000I0J125000D01*
G01*
X142281500Y-97275000D01*
G75*
G02*
X142406500Y-97150000I125000J0D01*
G01*
G37*
G36*
G01*
X141756500Y-97150000D02*
X142006500Y-97150000D01*
G75*
G02*
X142131500Y-97275000I0J-125000D01*
G01*
X142131500Y-98925000D01*
G75*
G02*
X142006500Y-99050000I-125000J0D01*
G01*
X141756500Y-99050000D01*
G75*
G02*
X141631500Y-98925000I0J125000D01*
G01*
X141631500Y-97275000D01*
G75*
G02*
X141756500Y-97150000I125000J0D01*
G01*
G37*
G36*
G01*
X141106500Y-97150000D02*
X141356500Y-97150000D01*
G75*
G02*
X141481500Y-97275000I0J-125000D01*
G01*
X141481500Y-98925000D01*
G75*
G02*
X141356500Y-99050000I-125000J0D01*
G01*
X141106500Y-99050000D01*
G75*
G02*
X140981500Y-98925000I0J125000D01*
G01*
X140981500Y-97275000D01*
G75*
G02*
X141106500Y-97150000I125000J0D01*
G01*
G37*
G36*
G01*
X140456500Y-97150000D02*
X140706500Y-97150000D01*
G75*
G02*
X140831500Y-97275000I0J-125000D01*
G01*
X140831500Y-98925000D01*
G75*
G02*
X140706500Y-99050000I-125000J0D01*
G01*
X140456500Y-99050000D01*
G75*
G02*
X140331500Y-98925000I0J125000D01*
G01*
X140331500Y-97275000D01*
G75*
G02*
X140456500Y-97150000I125000J0D01*
G01*
G37*
G36*
G01*
X139806500Y-97150000D02*
X140056500Y-97150000D01*
G75*
G02*
X140181500Y-97275000I0J-125000D01*
G01*
X140181500Y-98925000D01*
G75*
G02*
X140056500Y-99050000I-125000J0D01*
G01*
X139806500Y-99050000D01*
G75*
G02*
X139681500Y-98925000I0J125000D01*
G01*
X139681500Y-97275000D01*
G75*
G02*
X139806500Y-97150000I125000J0D01*
G01*
G37*
G36*
G01*
X139156500Y-97150000D02*
X139406500Y-97150000D01*
G75*
G02*
X139531500Y-97275000I0J-125000D01*
G01*
X139531500Y-98925000D01*
G75*
G02*
X139406500Y-99050000I-125000J0D01*
G01*
X139156500Y-99050000D01*
G75*
G02*
X139031500Y-98925000I0J125000D01*
G01*
X139031500Y-97275000D01*
G75*
G02*
X139156500Y-97150000I125000J0D01*
G01*
G37*
G36*
G01*
X138506500Y-97150000D02*
X138756500Y-97150000D01*
G75*
G02*
X138881500Y-97275000I0J-125000D01*
G01*
X138881500Y-98925000D01*
G75*
G02*
X138756500Y-99050000I-125000J0D01*
G01*
X138506500Y-99050000D01*
G75*
G02*
X138381500Y-98925000I0J125000D01*
G01*
X138381500Y-97275000D01*
G75*
G02*
X138506500Y-97150000I125000J0D01*
G01*
G37*
G36*
G01*
X137856500Y-97150000D02*
X138106500Y-97150000D01*
G75*
G02*
X138231500Y-97275000I0J-125000D01*
G01*
X138231500Y-98925000D01*
G75*
G02*
X138106500Y-99050000I-125000J0D01*
G01*
X137856500Y-99050000D01*
G75*
G02*
X137731500Y-98925000I0J125000D01*
G01*
X137731500Y-97275000D01*
G75*
G02*
X137856500Y-97150000I125000J0D01*
G01*
G37*
G36*
G01*
X137856500Y-104150000D02*
X138106500Y-104150000D01*
G75*
G02*
X138231500Y-104275000I0J-125000D01*
G01*
X138231500Y-105925000D01*
G75*
G02*
X138106500Y-106050000I-125000J0D01*
G01*
X137856500Y-106050000D01*
G75*
G02*
X137731500Y-105925000I0J125000D01*
G01*
X137731500Y-104275000D01*
G75*
G02*
X137856500Y-104150000I125000J0D01*
G01*
G37*
G36*
G01*
X138506500Y-104150000D02*
X138756500Y-104150000D01*
G75*
G02*
X138881500Y-104275000I0J-125000D01*
G01*
X138881500Y-105925000D01*
G75*
G02*
X138756500Y-106050000I-125000J0D01*
G01*
X138506500Y-106050000D01*
G75*
G02*
X138381500Y-105925000I0J125000D01*
G01*
X138381500Y-104275000D01*
G75*
G02*
X138506500Y-104150000I125000J0D01*
G01*
G37*
G36*
G01*
X139156500Y-104150000D02*
X139406500Y-104150000D01*
G75*
G02*
X139531500Y-104275000I0J-125000D01*
G01*
X139531500Y-105925000D01*
G75*
G02*
X139406500Y-106050000I-125000J0D01*
G01*
X139156500Y-106050000D01*
G75*
G02*
X139031500Y-105925000I0J125000D01*
G01*
X139031500Y-104275000D01*
G75*
G02*
X139156500Y-104150000I125000J0D01*
G01*
G37*
G36*
G01*
X139806500Y-104150000D02*
X140056500Y-104150000D01*
G75*
G02*
X140181500Y-104275000I0J-125000D01*
G01*
X140181500Y-105925000D01*
G75*
G02*
X140056500Y-106050000I-125000J0D01*
G01*
X139806500Y-106050000D01*
G75*
G02*
X139681500Y-105925000I0J125000D01*
G01*
X139681500Y-104275000D01*
G75*
G02*
X139806500Y-104150000I125000J0D01*
G01*
G37*
G36*
G01*
X140456500Y-104150000D02*
X140706500Y-104150000D01*
G75*
G02*
X140831500Y-104275000I0J-125000D01*
G01*
X140831500Y-105925000D01*
G75*
G02*
X140706500Y-106050000I-125000J0D01*
G01*
X140456500Y-106050000D01*
G75*
G02*
X140331500Y-105925000I0J125000D01*
G01*
X140331500Y-104275000D01*
G75*
G02*
X140456500Y-104150000I125000J0D01*
G01*
G37*
G36*
G01*
X141106500Y-104150000D02*
X141356500Y-104150000D01*
G75*
G02*
X141481500Y-104275000I0J-125000D01*
G01*
X141481500Y-105925000D01*
G75*
G02*
X141356500Y-106050000I-125000J0D01*
G01*
X141106500Y-106050000D01*
G75*
G02*
X140981500Y-105925000I0J125000D01*
G01*
X140981500Y-104275000D01*
G75*
G02*
X141106500Y-104150000I125000J0D01*
G01*
G37*
G36*
G01*
X141756500Y-104150000D02*
X142006500Y-104150000D01*
G75*
G02*
X142131500Y-104275000I0J-125000D01*
G01*
X142131500Y-105925000D01*
G75*
G02*
X142006500Y-106050000I-125000J0D01*
G01*
X141756500Y-106050000D01*
G75*
G02*
X141631500Y-105925000I0J125000D01*
G01*
X141631500Y-104275000D01*
G75*
G02*
X141756500Y-104150000I125000J0D01*
G01*
G37*
G36*
G01*
X142406500Y-104150000D02*
X142656500Y-104150000D01*
G75*
G02*
X142781500Y-104275000I0J-125000D01*
G01*
X142781500Y-105925000D01*
G75*
G02*
X142656500Y-106050000I-125000J0D01*
G01*
X142406500Y-106050000D01*
G75*
G02*
X142281500Y-105925000I0J125000D01*
G01*
X142281500Y-104275000D01*
G75*
G02*
X142406500Y-104150000I125000J0D01*
G01*
G37*
G36*
G01*
X143056500Y-104150000D02*
X143306500Y-104150000D01*
G75*
G02*
X143431500Y-104275000I0J-125000D01*
G01*
X143431500Y-105925000D01*
G75*
G02*
X143306500Y-106050000I-125000J0D01*
G01*
X143056500Y-106050000D01*
G75*
G02*
X142931500Y-105925000I0J125000D01*
G01*
X142931500Y-104275000D01*
G75*
G02*
X143056500Y-104150000I125000J0D01*
G01*
G37*
G36*
G01*
X143706500Y-104150000D02*
X143956500Y-104150000D01*
G75*
G02*
X144081500Y-104275000I0J-125000D01*
G01*
X144081500Y-105925000D01*
G75*
G02*
X143956500Y-106050000I-125000J0D01*
G01*
X143706500Y-106050000D01*
G75*
G02*
X143581500Y-105925000I0J125000D01*
G01*
X143581500Y-104275000D01*
G75*
G02*
X143706500Y-104150000I125000J0D01*
G01*
G37*
%TD*%
%TO.C,J1*%
G36*
G01*
X144718500Y-98425400D02*
X144718500Y-97154600D01*
G75*
G02*
X144983100Y-96890000I264600J0D01*
G01*
X147653900Y-96890000D01*
G75*
G02*
X147918500Y-97154600I0J-264600D01*
G01*
X147918500Y-98425400D01*
G75*
G02*
X147653900Y-98690000I-264600J0D01*
G01*
X144983100Y-98690000D01*
G75*
G02*
X144718500Y-98425400I0J264600D01*
G01*
G37*
G36*
G01*
X144718500Y-100965400D02*
X144718500Y-99694600D01*
G75*
G02*
X144983100Y-99430000I264600J0D01*
G01*
X147653900Y-99430000D01*
G75*
G02*
X147918500Y-99694600I0J-264600D01*
G01*
X147918500Y-100965400D01*
G75*
G02*
X147653900Y-101230000I-264600J0D01*
G01*
X144983100Y-101230000D01*
G75*
G02*
X144718500Y-100965400I0J264600D01*
G01*
G37*
G36*
G01*
X144718500Y-103505400D02*
X144718500Y-102234600D01*
G75*
G02*
X144983100Y-101970000I264600J0D01*
G01*
X147653900Y-101970000D01*
G75*
G02*
X147918500Y-102234600I0J-264600D01*
G01*
X147918500Y-103505400D01*
G75*
G02*
X147653900Y-103770000I-264600J0D01*
G01*
X144983100Y-103770000D01*
G75*
G02*
X144718500Y-103505400I0J264600D01*
G01*
G37*
G36*
G01*
X144718500Y-106045400D02*
X144718500Y-104774600D01*
G75*
G02*
X144983100Y-104510000I264600J0D01*
G01*
X147653900Y-104510000D01*
G75*
G02*
X147918500Y-104774600I0J-264600D01*
G01*
X147918500Y-106045400D01*
G75*
G02*
X147653900Y-106310000I-264600J0D01*
G01*
X144983100Y-106310000D01*
G75*
G02*
X144718500Y-106045400I0J264600D01*
G01*
G37*
%TD*%
%TO.C,C2*%
G36*
G01*
X143465000Y-106913000D02*
X143465000Y-107463000D01*
G75*
G02*
X143265000Y-107663000I-200000J0D01*
G01*
X142865000Y-107663000D01*
G75*
G02*
X142665000Y-107463000I0J200000D01*
G01*
X142665000Y-106913000D01*
G75*
G02*
X142865000Y-106713000I200000J0D01*
G01*
X143265000Y-106713000D01*
G75*
G02*
X143465000Y-106913000I0J-200000D01*
G01*
G37*
G36*
G01*
X141815000Y-106913000D02*
X141815000Y-107463000D01*
G75*
G02*
X141615000Y-107663000I-200000J0D01*
G01*
X141215000Y-107663000D01*
G75*
G02*
X141015000Y-107463000I0J200000D01*
G01*
X141015000Y-106913000D01*
G75*
G02*
X141215000Y-106713000I200000J0D01*
G01*
X141615000Y-106713000D01*
G75*
G02*
X141815000Y-106913000I0J-200000D01*
G01*
G37*
%TD*%
%TO.C,C3*%
G36*
G01*
X144253500Y-107463000D02*
X144253500Y-106913000D01*
G75*
G02*
X144453500Y-106713000I200000J0D01*
G01*
X144853500Y-106713000D01*
G75*
G02*
X145053500Y-106913000I0J-200000D01*
G01*
X145053500Y-107463000D01*
G75*
G02*
X144853500Y-107663000I-200000J0D01*
G01*
X144453500Y-107663000D01*
G75*
G02*
X144253500Y-107463000I0J200000D01*
G01*
G37*
G36*
G01*
X145903500Y-107463000D02*
X145903500Y-106913000D01*
G75*
G02*
X146103500Y-106713000I200000J0D01*
G01*
X146503500Y-106713000D01*
G75*
G02*
X146703500Y-106913000I0J-200000D01*
G01*
X146703500Y-107463000D01*
G75*
G02*
X146503500Y-107663000I-200000J0D01*
G01*
X146103500Y-107663000D01*
G75*
G02*
X145903500Y-107463000I0J200000D01*
G01*
G37*
%TD*%
D12*
%TO.C,D1*%
X138001500Y-107188000D03*
X140001500Y-107188000D03*
%TD*%
M02*
