%TF.GenerationSoftware,KiCad,Pcbnew,(5.1.8)-1*%
%TF.CreationDate,2022-12-23T20:51:48-06:00*%
%TF.ProjectId,pcb,7063622e-6b69-4636-9164-5f7063625858,rev?*%
%TF.SameCoordinates,Original*%
%TF.FileFunction,Paste,Bot*%
%TF.FilePolarity,Positive*%
%FSLAX46Y46*%
G04 Gerber Fmt 4.6, Leading zero omitted, Abs format (unit mm)*
G04 Created by KiCad (PCBNEW (5.1.8)-1) date 2022-12-23 20:51:48*
%MOMM*%
%LPD*%
G01*
G04 APERTURE LIST*
%ADD10R,1.250000X1.000000*%
G04 APERTURE END LIST*
%TO.C,P1*%
G36*
G01*
X137434100Y-97200000D02*
X140904900Y-97200000D01*
G75*
G02*
X141169500Y-97464600I0J-264600D01*
G01*
X141169500Y-98735400D01*
G75*
G02*
X140904900Y-99000000I-264600J0D01*
G01*
X137434100Y-99000000D01*
G75*
G02*
X137169500Y-98735400I0J264600D01*
G01*
X137169500Y-97464600D01*
G75*
G02*
X137434100Y-97200000I264600J0D01*
G01*
G37*
G36*
G01*
X137404700Y-99800000D02*
X140934300Y-99800000D01*
G75*
G02*
X141169500Y-100035200I0J-235200D01*
G01*
X141169500Y-101164800D01*
G75*
G02*
X140934300Y-101400000I-235200J0D01*
G01*
X137404700Y-101400000D01*
G75*
G02*
X137169500Y-101164800I0J235200D01*
G01*
X137169500Y-100035200D01*
G75*
G02*
X137404700Y-99800000I235200J0D01*
G01*
G37*
G36*
G01*
X137404700Y-101800000D02*
X140934300Y-101800000D01*
G75*
G02*
X141169500Y-102035200I0J-235200D01*
G01*
X141169500Y-103164800D01*
G75*
G02*
X140934300Y-103400000I-235200J0D01*
G01*
X137404700Y-103400000D01*
G75*
G02*
X137169500Y-103164800I0J235200D01*
G01*
X137169500Y-102035200D01*
G75*
G02*
X137404700Y-101800000I235200J0D01*
G01*
G37*
G36*
G01*
X137434100Y-104200000D02*
X140904900Y-104200000D01*
G75*
G02*
X141169500Y-104464600I0J-264600D01*
G01*
X141169500Y-105735400D01*
G75*
G02*
X140904900Y-106000000I-264600J0D01*
G01*
X137434100Y-106000000D01*
G75*
G02*
X137169500Y-105735400I0J264600D01*
G01*
X137169500Y-104464600D01*
G75*
G02*
X137434100Y-104200000I264600J0D01*
G01*
G37*
%TD*%
%TO.C,J1*%
G36*
G01*
X144718500Y-98425400D02*
X144718500Y-97154600D01*
G75*
G02*
X144983100Y-96890000I264600J0D01*
G01*
X147653900Y-96890000D01*
G75*
G02*
X147918500Y-97154600I0J-264600D01*
G01*
X147918500Y-98425400D01*
G75*
G02*
X147653900Y-98690000I-264600J0D01*
G01*
X144983100Y-98690000D01*
G75*
G02*
X144718500Y-98425400I0J264600D01*
G01*
G37*
G36*
G01*
X144718500Y-100965400D02*
X144718500Y-99694600D01*
G75*
G02*
X144983100Y-99430000I264600J0D01*
G01*
X147653900Y-99430000D01*
G75*
G02*
X147918500Y-99694600I0J-264600D01*
G01*
X147918500Y-100965400D01*
G75*
G02*
X147653900Y-101230000I-264600J0D01*
G01*
X144983100Y-101230000D01*
G75*
G02*
X144718500Y-100965400I0J264600D01*
G01*
G37*
G36*
G01*
X144718500Y-103505400D02*
X144718500Y-102234600D01*
G75*
G02*
X144983100Y-101970000I264600J0D01*
G01*
X147653900Y-101970000D01*
G75*
G02*
X147918500Y-102234600I0J-264600D01*
G01*
X147918500Y-103505400D01*
G75*
G02*
X147653900Y-103770000I-264600J0D01*
G01*
X144983100Y-103770000D01*
G75*
G02*
X144718500Y-103505400I0J264600D01*
G01*
G37*
G36*
G01*
X144718500Y-106045400D02*
X144718500Y-104774600D01*
G75*
G02*
X144983100Y-104510000I264600J0D01*
G01*
X147653900Y-104510000D01*
G75*
G02*
X147918500Y-104774600I0J-264600D01*
G01*
X147918500Y-106045400D01*
G75*
G02*
X147653900Y-106310000I-264600J0D01*
G01*
X144983100Y-106310000D01*
G75*
G02*
X144718500Y-106045400I0J264600D01*
G01*
G37*
%TD*%
D10*
%TO.C,C1*%
X142875000Y-103711500D03*
X142875000Y-105711500D03*
%TD*%
%TO.C,R1*%
G36*
G01*
X145243000Y-95737000D02*
X145243000Y-96287000D01*
G75*
G02*
X145043000Y-96487000I-200000J0D01*
G01*
X144643000Y-96487000D01*
G75*
G02*
X144443000Y-96287000I0J200000D01*
G01*
X144443000Y-95737000D01*
G75*
G02*
X144643000Y-95537000I200000J0D01*
G01*
X145043000Y-95537000D01*
G75*
G02*
X145243000Y-95737000I0J-200000D01*
G01*
G37*
G36*
G01*
X143593000Y-95737000D02*
X143593000Y-96287000D01*
G75*
G02*
X143393000Y-96487000I-200000J0D01*
G01*
X142993000Y-96487000D01*
G75*
G02*
X142793000Y-96287000I0J200000D01*
G01*
X142793000Y-95737000D01*
G75*
G02*
X142993000Y-95537000I200000J0D01*
G01*
X143393000Y-95537000D01*
G75*
G02*
X143593000Y-95737000I0J-200000D01*
G01*
G37*
%TD*%
%TO.C,R2*%
G36*
G01*
X141458500Y-96287000D02*
X141458500Y-95737000D01*
G75*
G02*
X141658500Y-95537000I200000J0D01*
G01*
X142058500Y-95537000D01*
G75*
G02*
X142258500Y-95737000I0J-200000D01*
G01*
X142258500Y-96287000D01*
G75*
G02*
X142058500Y-96487000I-200000J0D01*
G01*
X141658500Y-96487000D01*
G75*
G02*
X141458500Y-96287000I0J200000D01*
G01*
G37*
G36*
G01*
X139808500Y-96287000D02*
X139808500Y-95737000D01*
G75*
G02*
X140008500Y-95537000I200000J0D01*
G01*
X140408500Y-95537000D01*
G75*
G02*
X140608500Y-95737000I0J-200000D01*
G01*
X140608500Y-96287000D01*
G75*
G02*
X140408500Y-96487000I-200000J0D01*
G01*
X140008500Y-96487000D01*
G75*
G02*
X139808500Y-96287000I0J200000D01*
G01*
G37*
%TD*%
%TO.C,R3*%
G36*
G01*
X142285000Y-100986000D02*
X142285000Y-100436000D01*
G75*
G02*
X142485000Y-100236000I200000J0D01*
G01*
X142885000Y-100236000D01*
G75*
G02*
X143085000Y-100436000I0J-200000D01*
G01*
X143085000Y-100986000D01*
G75*
G02*
X142885000Y-101186000I-200000J0D01*
G01*
X142485000Y-101186000D01*
G75*
G02*
X142285000Y-100986000I0J200000D01*
G01*
G37*
G36*
G01*
X143935000Y-100986000D02*
X143935000Y-100436000D01*
G75*
G02*
X144135000Y-100236000I200000J0D01*
G01*
X144535000Y-100236000D01*
G75*
G02*
X144735000Y-100436000I0J-200000D01*
G01*
X144735000Y-100986000D01*
G75*
G02*
X144535000Y-101186000I-200000J0D01*
G01*
X144135000Y-101186000D01*
G75*
G02*
X143935000Y-100986000I0J200000D01*
G01*
G37*
%TD*%
%TO.C,R4*%
G36*
G01*
X143935000Y-102764000D02*
X143935000Y-102214000D01*
G75*
G02*
X144135000Y-102014000I200000J0D01*
G01*
X144535000Y-102014000D01*
G75*
G02*
X144735000Y-102214000I0J-200000D01*
G01*
X144735000Y-102764000D01*
G75*
G02*
X144535000Y-102964000I-200000J0D01*
G01*
X144135000Y-102964000D01*
G75*
G02*
X143935000Y-102764000I0J200000D01*
G01*
G37*
G36*
G01*
X142285000Y-102764000D02*
X142285000Y-102214000D01*
G75*
G02*
X142485000Y-102014000I200000J0D01*
G01*
X142885000Y-102014000D01*
G75*
G02*
X143085000Y-102214000I0J-200000D01*
G01*
X143085000Y-102764000D01*
G75*
G02*
X142885000Y-102964000I-200000J0D01*
G01*
X142485000Y-102964000D01*
G75*
G02*
X142285000Y-102764000I0J200000D01*
G01*
G37*
%TD*%
%TO.C,R5*%
G36*
G01*
X143465000Y-106913000D02*
X143465000Y-107463000D01*
G75*
G02*
X143265000Y-107663000I-200000J0D01*
G01*
X142865000Y-107663000D01*
G75*
G02*
X142665000Y-107463000I0J200000D01*
G01*
X142665000Y-106913000D01*
G75*
G02*
X142865000Y-106713000I200000J0D01*
G01*
X143265000Y-106713000D01*
G75*
G02*
X143465000Y-106913000I0J-200000D01*
G01*
G37*
G36*
G01*
X141815000Y-106913000D02*
X141815000Y-107463000D01*
G75*
G02*
X141615000Y-107663000I-200000J0D01*
G01*
X141215000Y-107663000D01*
G75*
G02*
X141015000Y-107463000I0J200000D01*
G01*
X141015000Y-106913000D01*
G75*
G02*
X141215000Y-106713000I200000J0D01*
G01*
X141615000Y-106713000D01*
G75*
G02*
X141815000Y-106913000I0J-200000D01*
G01*
G37*
%TD*%
M02*
