M48
; DRILL file {KiCad (5.1.8)-1} date 12/23/22 20:51:47
; FORMAT={-:-/ absolute / inch / decimal}
; #@! TF.CreationDate,2022-12-23T20:51:47-06:00
; #@! TF.GenerationSoftware,Kicad,Pcbnew,(5.1.8)-1
; #@! TF.FileFunction,Plated,1,2,PTH
FMAT,2
INCH
T1C0.0138
T2C0.0157
%
G90
G05
T1
X5.57Y-4.0811
X5.6Y-4.1944
X5.675Y-3.9825
X5.675Y-4.0175
T2
X5.435Y-3.7925
X5.485Y-3.9625
X5.485Y-4.0425
X5.4925Y-4.22
X5.5625Y-3.8075
X5.637Y-4.0883
X5.6375Y-3.81
X5.6502Y-4.2198
X5.6975Y-3.83
X5.6975Y-3.87
X5.6975Y-4.13
X5.6975Y-4.17
X5.76Y-4.19
T2
G00X5.4049Y-3.75
M15
G01X5.4601Y-3.75
M16
G05
G00X5.4373Y-3.75
M15
G01X5.4806Y-3.75
M16
G05
G00X5.7444Y-3.75
M15
G01X5.7877Y-3.75
M16
G05
T0
M30
